<?xml version="1.0" encoding="UTF-8" standalone="no"?>
<svg
   xmlns:dc="http://purl.org/dc/elements/1.1/"
   xmlns:cc="http://creativecommons.org/ns#"
   xmlns:rdf="http://www.w3.org/1999/02/22-rdf-syntax-ns#"
   xmlns:svg="http://www.w3.org/2000/svg"
   xmlns="http://www.w3.org/2000/svg"
   xmlns:sodipodi="http://sodipodi.sourceforge.net/DTD/sodipodi-0.dtd"
   xmlns:inkscape="http://www.inkscape.org/namespaces/inkscape"
   viewBox="0 0 6.25 6.9414506"
   width="50"
   height="55.531605"
   version="1.1"
   id="svg5"
   sodipodi:docname="bigdata.svg"
   inkscape:export-filename="C:\xampp\htdocs\Nebula\images\icon\bigdata.png"
   inkscape:export-xdpi="96"
   inkscape:export-ydpi="96"
   inkscape:version="0.92.4 (5da689c313, 2019-01-14)">
  <metadata
     id="metadata11">
    <rdf:RDF>
      <cc:Work
         rdf:about="">
        <dc:format>image/svg+xml</dc:format>
        <dc:type
           rdf:resource="http://purl.org/dc/dcmitype/StillImage" />
        <dc:title></dc:title>
      </cc:Work>
    </rdf:RDF>
  </metadata>
  <defs
     id="defs9" />
  <sodipodi:namedview
     pagecolor="#ffffff"
     bordercolor="#666666"
     borderopacity="1"
     objecttolerance="10"
     gridtolerance="10"
     guidetolerance="10"
     inkscape:pageopacity="0"
     inkscape:pageshadow="2"
     inkscape:window-width="1600"
     inkscape:window-height="837"
     id="namedview7"
     showgrid="false"
     fit-margin-top="0"
     fit-margin-left="0"
     fit-margin-right="0"
     fit-margin-bottom="0"
     inkscape:zoom="2.8370726"
     inkscape:cx="-5.5433092"
     inkscape:cy="-53.639409"
     inkscape:window-x="-8"
     inkscape:window-y="-8"
     inkscape:window-maximized="1"
     inkscape:current-layer="svg5" />
  <g
     id="Big_data"
     data-name="Big data"
     transform="matrix(0.10416667,0,0,0.10416667,-0.20833344,0.13739186)"
     inkscape:export-filename="C:\xampp\htdocs\Nebula\images\icon\Bigdata.png"
     inkscape:export-xdpi="96"
     inkscape:export-ydpi="96"
     style="fill:#ffffff">
    <path
       d="M 56,41.142 V 22.858 A 3.99,3.99 0 1 0 52.347,16.029 L 35.947,6.565 A 3.9,3.9 0 0 0 36,6 4,4 0 0 0 28,6 3.9,3.9 0 0 0 28.057,6.565 l -16.4,9.464 A 3.988,3.988 0 1 0 8,22.858 v 18.284 a 3.99,3.99 0 1 0 3.653,6.829 l 16.4,9.464 A 3.9,3.9 0 0 0 28,58 a 4,4 0 0 0 8,0 3.9,3.9 0 0 0 -0.057,-0.565 l 16.4,-9.464 A 3.988,3.988 0 1 0 56,41.142 Z M 41.417,44 43.863,39.853 51.152,43.969 51.142,44 Z M 12.858,44 12.848,43.969 20.137,39.853 22.583,44 Z M 22.583,20 20.137,24.147 12.848,20.031 12.858,20 Z m 28.559,0 0.01,0.031 -7.289,4.116 L 41.417,20 Z M 53.905,41.172 48.5,32 53.91,22.828 c 0.032,0.01 0.063,0.022 0.095,0.03 v 18.284 c -0.037,0.008 -0.068,0.02 -0.1,0.03 z m -1.775,1.053 -7.251,-4.095 2.455,-4.162 4.839,8.2 c -0.016,0.02 -0.027,0.04 -0.043,0.057 z M 35.848,30.969 43.137,26.853 46.173,32 43.137,37.147 35.848,33.031 a 3.573,3.573 0 0 0 0,-2.062 z m 16.325,-9.141 -4.839,8.2 -2.455,-4.158 7.251,-4.1 c 0.016,0.022 0.027,0.042 0.043,0.058 z m -10.052,3.3 -7.251,4.1 A 3.986,3.986 0 0 0 33,28.142 V 20 h 6.1 z M 32,34 a 2,2 0 1 1 2,-2 2,2 0 0 1 -2,2 z M 33,18 V 9.858 c 0.032,-0.008 0.063,-0.02 0.095,-0.03 L 37.915,18 Z M 31,9.858 V 18 h -4.915 l 4.82,-8.172 C 30.937,9.838 30.968,9.85 31,9.858 Z M 31,20 v 8.142 a 3.986,3.986 0 0 0 -1.87,1.083 L 21.879,25.125 24.905,20 Z m -19.173,22.172 4.839,-8.2 2.455,4.162 -7.251,4.091 c -0.016,-0.017 -0.027,-0.037 -0.043,-0.053 z m 6,-10.172 3.036,-5.147 7.289,4.116 a 3.573,3.573 0 0 0 0,2.062 l -7.289,4.116 z m -5.957,-10.225 7.251,4.1 -2.455,4.162 -4.839,-8.2 c 0.016,-0.025 0.027,-0.045 0.043,-0.062 z M 10.1,22.828 15.505,32 10.1,41.172 C 10.068,41.162 10.037,41.15 10,41.142 V 22.858 c 0.032,-0.008 0.063,-0.02 0.1,-0.03 z M 21.879,38.87 29.13,34.775 A 3.986,3.986 0 0 0 31,35.858 V 44 H 24.905 Z M 31,46 v 8.142 c -0.032,0.008 -0.063,0.02 -0.095,0.03 L 26.085,46 Z m 2,8.142 V 46 h 4.915 L 33.1,54.172 C 33.063,54.162 33.032,54.15 33,54.142 Z M 33,44 v -8.142 a 3.986,3.986 0 0 0 1.87,-1.083 L 42.121,38.87 39.1,44 Z M 55,17 a 2,2 0 1 1 -2,2 2,2 0 0 1 2,-2 z m -3.764,0.7 c -0.035,0.1 -0.067,0.2 -0.094,0.3 h -10.9 L 34.826,8.828 a 4.068,4.068 0 0 0 0.335,-0.4 z M 32,4 A 2,2 0 1 1 30,6 2,2 0 0 1 32,4 Z M 29.174,8.828 23.763,18 h -10.9 c -0.027,-0.1 -0.059,-0.2 -0.094,-0.3 l 16.07,-9.277 a 4.068,4.068 0 0 0 0.335,0.405 z M 7,19 a 2,2 0 1 1 2,2 2,2 0 0 1 -2,-2 z m 2,28 a 2,2 0 1 1 2,-2 2,2 0 0 1 -2,2 z m 3.764,-0.7 c 0.035,-0.1 0.067,-0.2 0.094,-0.3 h 10.905 l 5.411,9.172 a 4.068,4.068 0 0 0 -0.335,0.405 z M 32,60 a 2,2 0 1 1 2,-2 2,2 0 0 1 -2,2 z M 34.826,55.172 40.237,46 h 10.905 c 0.027,0.1 0.059,0.2 0.094,0.3 L 35.161,55.577 A 4.068,4.068 0 0 0 34.826,55.172 Z M 55,47 a 2,2 0 1 1 2,-2 2,2 0 0 1 -2,2 z"
       id="path2"
       inkscape:connector-curvature="0"
       style="fill:#ffffff" />
  </g>
</svg>
