<?xml version="1.0" encoding="UTF-8" standalone="no"?>
<svg
   xmlns:dc="http://purl.org/dc/elements/1.1/"
   xmlns:cc="http://creativecommons.org/ns#"
   xmlns:rdf="http://www.w3.org/1999/02/22-rdf-syntax-ns#"
   xmlns:svg="http://www.w3.org/2000/svg"
   xmlns="http://www.w3.org/2000/svg"
   xmlns:sodipodi="http://sodipodi.sourceforge.net/DTD/sodipodi-0.dtd"
   xmlns:inkscape="http://www.inkscape.org/namespaces/inkscape"
   id="Layer_1_1_"
   enable-background="new 0 0 64 64"
   height="50"
   viewBox="0 0 6.25 6.25"
   width="50"
   version="1.1"
   sodipodi:docname="biometrics.svg"
   inkscape:version="0.92.4 (5da689c313, 2019-01-14)">
  <metadata
     id="metadata9">
    <rdf:RDF>
      <cc:Work
         rdf:about="">
        <dc:format>image/svg+xml</dc:format>
        <dc:type
           rdf:resource="http://purl.org/dc/dcmitype/StillImage" />
        <dc:title></dc:title>
      </cc:Work>
    </rdf:RDF>
  </metadata>
  <defs
     id="defs7" />
  <sodipodi:namedview
     pagecolor="#ffffff"
     bordercolor="#666666"
     borderopacity="1"
     objecttolerance="10"
     gridtolerance="10"
     guidetolerance="10"
     inkscape:pageopacity="0"
     inkscape:pageshadow="2"
     inkscape:window-width="1600"
     inkscape:window-height="837"
     id="namedview5"
     showgrid="false"
     fit-margin-top="0"
     fit-margin-left="0"
     fit-margin-right="0"
     fit-margin-bottom="0"
     inkscape:zoom="6.063101"
     inkscape:cx="47.728814"
     inkscape:cy="6.5084746"
     inkscape:window-x="-8"
     inkscape:window-y="-8"
     inkscape:window-maximized="1"
     inkscape:current-layer="Layer_1_1_" />
  <path
     d="M 1.1941667,3.625 C 1.0847917,3.572187 0.9627083,3.541667 0.8333333,3.541667 0.3738542,3.541667 0,3.915521 0,4.375 c 0,0.459479 0.3738542,0.833333 0.8333333,0.833333 0.2883334,0 0.5428125,-0.147291 0.6925,-0.370521 L 2.3130208,5.231875 C 2.2994788,5.291355 2.2916668,5.353125 2.2916668,5.416667 2.2916667,5.876146 2.6655208,6.25 3.125,6.25 c 0.4594792,0 0.8333333,-0.373854 0.8333333,-0.833333 0,-0.172709 -0.052812,-0.33323 -0.1432291,-0.466459 L 4.92125,3.793646 C 5.06,3.896562 5.2310417,3.958333 5.4166667,3.958333 5.8761458,3.958333 6.25,3.584479 6.25,3.125 6.25,2.665521 5.8761458,2.291667 5.4166667,2.291667 5.224375,2.291667 5.0477083,2.357707 4.9064583,2.4675 L 3.7825,1.343542 C 3.8922917,1.202292 3.9583333,1.025625 3.9583333,0.833333 3.9583333,0.373854 3.5844792,0 3.125,0 2.6655208,0 2.2916667,0.373854 2.2916667,0.833333 c 0,0.06333 0.00771,0.124896 0.02125,0.184271 l -0.73875,0.269167 C 1.435625,1.017917 1.1559375,0.833333 0.8333333,0.833333 0.3738542,0.833333 0,1.207187 0,1.666667 0,2.126146 0.3738542,2.5 0.8333333,2.5 0.951875,2.5 1.0644792,2.47479 1.1666667,2.4299 L 1.5501042,3.075212 Z M 0.8333333,5 c -0.3446875,0 -0.625,-0.280313 -0.625,-0.625 0,-0.344688 0.2803125,-0.625 0.625,-0.625 0.3446875,0 0.625,0.280312 0.625,0.625 0,0.344687 -0.2803125,0.625 -0.625,0.625 z M 1.6186458,4.651146 c 0.030521,-0.08656 0.048021,-0.179271 0.048021,-0.276146 0,-0.255521 -0.1158334,-0.484271 -0.2973959,-0.637188 L 1.6688542,3.275104 2.5720833,4.795 C 2.4960413,4.86271 2.4323958,4.94375 2.3852083,5.034896 Z M 3.125,1.666667 c 0.1922917,0 0.3689583,-0.06604 0.5102083,-0.175834 l 1.1240625,1.124063 c -0.067396,0.08667 -0.1178125,0.186771 -0.146875,0.295729 l -0.654375,-0.09 c -1.041e-4,-0.0027 3.125e-4,-0.0054 3.125e-4,-0.0081 0,-0.459479 -0.3738541,-0.833333 -0.8333333,-0.833333 -0.2883333,0 -0.5429167,0.147291 -0.6925,0.37052 L 2.3082292,2.287632 2.7642708,1.583361 C 2.8735417,1.636171 2.995625,1.666691 3.125,1.666691 Z M 3.2291667,4.590521 V 3.638542 C 3.5677083,3.596042 3.843125,3.35 3.929375,3.026875 l 0.654375,0.09 c 0,0.0027 -4.167e-4,0.0054 -4.167e-4,0.0081 0,0.198958 0.070208,0.381562 0.1869792,0.525 l -1.09375,1.143646 C 3.5539583,4.685 3.3996875,4.611979 3.2291667,4.590521 Z M 3.125,2.1875 c 0.3446875,0 0.625,0.280312 0.625,0.625 0,0.344687 -0.2803125,0.625 -0.625,0.625 C 2.7803125,3.4375 2.5,3.157187 2.5,2.8125 2.5,2.467812 2.7803125,2.1875 3.125,2.1875 Z M 2.3396875,2.536354 c -0.030521,0.08656 -0.048021,0.179271 -0.048021,0.276146 0,0.424167 0.31875,0.774583 0.7291666,0.826146 v 0.951979 c -0.09875,0.0124 -0.1919791,0.04198 -0.276875,0.08583 L 1.7952081,3.079893 2.1942706,2.463643 Z M 3.125,6.041667 c -0.3446875,0 -0.625,-0.280313 -0.625,-0.625 0,-0.344688 0.2803125,-0.625 0.625,-0.625 0.3446875,0 0.625,0.280312 0.625,0.625 0,0.344687 -0.2803125,0.625 -0.625,0.625 z M 5.4166667,2.5 c 0.3446875,0 0.625,0.280312 0.625,0.625 0,0.344687 -0.2803125,0.625 -0.625,0.625 -0.3446875,0 -0.625,-0.280313 -0.625,-0.625 0,-0.344688 0.2803125,-0.625 0.625,-0.625 z M 3.125,0.208333 c 0.3446875,0 0.625,0.280313 0.625,0.625 0,0.344688 -0.2803125,0.625 -0.625,0.625 -0.3446875,0 -0.625,-0.280312 -0.625,-0.625 0,-0.344687 0.2803125,-0.625 0.625,-0.625 z M 2.3841667,1.213229 c 0.050937,0.09885 0.120625,0.18625 0.2048958,0.257292 L 2.1207292,2.193854 1.6186458,1.942812 c 0.030521,-0.08656 0.048021,-0.17927 0.048021,-0.276145 0,-0.06333 -0.00771,-0.124896 -0.02125,-0.184271 z M 0.2083333,1.666667 c 0,-0.344688 0.2803125,-0.625 0.625,-0.625 0.3446875,0 0.625,0.280312 0.625,0.625 0,0.344687 -0.2803125,0.625 -0.625,0.625 -0.3446875,0 -0.625,-0.280313 -0.625,-0.625 z M 1.3453125,2.322812 C 1.4151045,2.268232 1.4763542,2.203229 1.5258333,2.129479 L 2.0067708,2.369896 1.6764583,2.88 Z"
     id="path2"
     inkscape:connector-curvature="0"
     style="stroke-width:0.10416666;fill:#ffffff"
     inkscape:export-filename="C:\xampp\htdocs\Nebula\images\icon\biometric.png"
     inkscape:export-xdpi="96"
     inkscape:export-ydpi="96" />
</svg>
