<?xml version="1.0" encoding="UTF-8" standalone="no"?>
<!-- Generator: Adobe Illustrator 19.0.0, SVG Export Plug-In . SVG Version: 6.00 Build 0)  -->

<svg
   xmlns:dc="http://purl.org/dc/elements/1.1/"
   xmlns:cc="http://creativecommons.org/ns#"
   xmlns:rdf="http://www.w3.org/1999/02/22-rdf-syntax-ns#"
   xmlns:svg="http://www.w3.org/2000/svg"
   xmlns="http://www.w3.org/2000/svg"
   xmlns:sodipodi="http://sodipodi.sourceforge.net/DTD/sodipodi-0.dtd"
   xmlns:inkscape="http://www.inkscape.org/namespaces/inkscape"
   version="1.1"
   id="Capa_1"
   x="0px"
   y="0px"
   viewBox="0 0 49.999999 55.02336"
   xml:space="preserve"
   sodipodi:docname="cerebro.svg"
   width="50"
   height="55.023361"
   inkscape:version="0.92.4 (5da689c313, 2019-01-14)"><metadata
   id="metadata139"><rdf:RDF><cc:Work
       rdf:about=""><dc:format>image/svg+xml</dc:format><dc:type
         rdf:resource="http://purl.org/dc/dcmitype/StillImage" /><dc:title></dc:title></cc:Work></rdf:RDF></metadata><defs
   id="defs137" /><sodipodi:namedview
   pagecolor="#ffffff"
   bordercolor="#666666"
   borderopacity="1"
   objecttolerance="10"
   gridtolerance="10"
   guidetolerance="10"
   inkscape:pageopacity="0"
   inkscape:pageshadow="2"
   inkscape:window-width="1600"
   inkscape:window-height="837"
   id="namedview135"
   showgrid="false"
   fit-margin-top="0"
   fit-margin-left="0"
   fit-margin-right="0"
   fit-margin-bottom="0"
   inkscape:zoom="1.1985292"
   inkscape:cx="26.889561"
   inkscape:cy="98.454997"
   inkscape:window-x="-8"
   inkscape:window-y="-8"
   inkscape:window-maximized="1"
   inkscape:current-layer="Capa_1" />
















<g
   id="g997"
   transform="matrix(0.27943632,0,0,0.27943632,-2.5115024,-1.647579e-4)"><g
     style="fill:#ffffff"
     id="g6">
	<g
   style="fill:#ffffff"
   id="g4">
		<path
   style="fill:#ffffff"
   id="path2"
   d="M 187.627,86.562 C 186.603,78.361 183.176,71.83 181.737,69.381 182.778,52.318 179.395,39.47 171.678,31.181 165.662,24.72 158.634,22.892 155.065,22.376 149.622,10.87 140.369,8.644 134.745,9.185 124.215,-0.622 114.475,-0.855 108.056,0.746 103.823,1.804 100.509,3.787 98.453,5.282 96.398,3.785 93.082,1.804 88.85,0.746 82.431,-0.858 72.691,-0.624 62.161,9.185 56.531,8.642 47.282,10.87 41.841,22.376 c -3.569,0.515 -10.597,2.343 -16.613,8.805 -7.719,8.289 -11.1,21.137 -10.059,38.2 -1.439,2.447 -4.864,8.98 -5.89,17.181 -1.159,9.293 0.611,22.398 15.141,33.031 -1.684,9.94 -0.09,27.051 15.785,35.465 -0.659,3.616 -1.096,9.888 2.132,15.249 2.538,4.217 6.731,6.991 12.477,8.259 2.901,4.477 12.901,18.343 25.38,18.343 0.079,0 0.16,0 0.239,-0.002 6.69,-0.096 12.735,-4.05 18.019,-11.771 5.286,7.719 11.331,11.675 18.019,11.771 12.571,0.184 22.7,-13.836 25.62,-18.341 5.746,-1.268 9.94,-4.041 12.477,-8.259 3.229,-5.361 2.79,-11.634 2.132,-15.249 15.877,-8.414 17.471,-25.525 15.787,-35.465 14.531,-10.633 16.302,-23.737 15.14,-33.031 z m -20.833,28.684 c -1.2,0.8 -1.768,2.268 -1.418,3.668 0.232,0.928 5.451,22.794 -13.981,31.121 -1.633,0.7 -2.456,2.533 -1.894,4.217 0.024,0.073 2.325,7.38 -0.782,12.537 -1.684,2.799 -4.815,4.598 -9.3,5.345 -1,0.166 -1.874,0.77 -2.386,1.644 -2.669,4.555 -11.494,16.305 -20.325,16.305 -0.049,0 -0.101,0 -0.152,0 -5.311,-0.082 -10.373,-4.465 -15.044,-13.027 -0.599,-1.096 -1.877,-1.778 -3.127,-1.778 -1.25,0 -2.398,0.681 -2.997,1.778 -4.669,8.562 -9.731,12.945 -15.044,13.027 -8.841,0.142 -17.792,-11.723 -20.477,-16.305 -0.512,-0.874 -1.388,-1.478 -2.386,-1.644 -4.471,-0.746 -7.595,-2.536 -9.283,-5.318 -3.145,-5.185 -0.818,-12.501 -0.797,-12.565 0.56,-1.684 -0.261,-3.517 -1.894,-4.217 -19.33,-8.284 -14.205,-30.199 -13.979,-31.121 0.35,-1.399 -0.218,-2.867 -1.418,-3.668 -25.464,-16.976 -9.318,-42.057 -8.622,-43.11 0.42,-0.63 0.618,-1.382 0.565,-2.137 -1.113,-15.563 1.603,-27.02 8.071,-34.057 6.219,-6.765 13.746,-6.939 14.041,-6.943 1.396,0 2.65,-0.85 3.169,-2.145 3.82,-9.547 9.958,-10.911 13.15,-10.911 1.027,0 1.751,0.142 1.99,0.198 1.164,0.29 2.393,-0.049 3.241,-0.898 6.946,-6.943 14.085,-9.61 21.22,-7.934 5.46,1.283 9.015,4.722 9.039,4.746 0.64,0.64 1.509,1 2.413,1 h 0.13 c 0.905,0 1.773,-0.36 2.413,-1 0.034,-0.034 3.468,-3.357 8.781,-4.685 7.219,-1.804 14.447,0.841 21.478,7.873 0.829,0.831 2.058,1.166 3.209,0.906 1.019,-0.234 10.122,-1.918 15.172,10.706 0.512,1.28 1.768,2.128 3.147,2.145 0.317,0.005 7.844,0.177 14.063,6.943 6.467,7.037 9.182,18.495 8.071,34.057 -0.053,0.754 0.145,1.507 0.565,2.137 0.044,0.065 4.35,6.607 5.434,15.275 1.413,11.309 -3.316,20.675 -14.056,27.835 z"
   inkscape:connector-curvature="0" />
	</g>
</g><g
     style="fill:#ffffff"
     id="g12">
	<g
   style="fill:#ffffff"
   id="g10">
		<path
   style="fill:#ffffff"
   id="path8"
   d="m 155.851,24.507 c -0.597,-1.789 -2.534,-2.753 -4.318,-2.159 -21.227,7.076 -21.472,24.815 -21.472,25.566 0,1.876 1.514,3.389 3.389,3.401 0.009,0 0.017,0 0.024,0 1.865,0 3.388,-1.512 3.413,-3.378 0.009,-0.555 0.377,-13.638 16.804,-19.113 1.789,-0.596 2.755,-2.528 2.16,-4.317 z"
   inkscape:connector-curvature="0" />
	</g>
</g><g
     style="fill:#ffffff"
     id="g18">
	<g
   style="fill:#ffffff"
   id="g16">
		<path
   style="fill:#ffffff"
   id="path14"
   d="m 171.272,116.014 c -1.143,-1.498 -3.282,-1.789 -4.784,-0.645 -5.562,4.238 -10.592,5.748 -14.94,4.495 -7.747,-2.231 -11.65,-12.435 -11.687,-12.539 -0.655,-1.765 -2.62,-2.668 -4.381,-2.012 -1.768,0.652 -2.673,2.616 -2.019,4.384 0.203,0.55 5.1,13.5 16.157,16.715 1.649,0.48 3.33,0.719 5.04,0.719 5.089,0 10.441,-2.118 15.969,-6.333 1.499,-1.142 1.787,-3.286 0.645,-4.784 z"
   inkscape:connector-curvature="0" />
	</g>
</g><g
     style="fill:#ffffff"
     id="g24">
	<g
   style="fill:#ffffff"
   id="g22">
		<path
   style="fill:#ffffff"
   id="path20"
   d="m 113.561,118.861 c -1.331,-1.333 -3.495,-1.333 -4.826,0 -1.333,1.333 -1.333,3.494 0,4.826 11.083,11.083 8.784,21.791 8.666,22.298 -0.444,1.823 0.667,3.662 2.488,4.118 0.276,0.068 0.555,0.102 0.829,0.102 1.529,0 2.922,-1.036 3.309,-2.587 0.151,-0.597 3.498,-14.793 -10.466,-28.757 z"
   inkscape:connector-curvature="0" />
	</g>
</g><g
     style="fill:#ffffff"
     id="g30">
	<g
   style="fill:#ffffff"
   id="g28">
		<path
   style="fill:#ffffff"
   id="path26"
   d="m 166.519,86.873 c -0.642,-1.768 -2.599,-2.683 -4.369,-2.046 -0.691,0.247 -16.966,5.938 -25.61,-5.567 -4.49,-5.975 -6.419,-11.092 -7.97,-15.203 -1.903,-5.043 -3.698,-9.808 -9.665,-10.3 -1.862,-0.157 -3.528,1.242 -3.681,3.121 -0.155,1.877 1.242,3.526 3.121,3.681 1.429,0.116 1.966,0.945 3.837,5.905 1.615,4.279 3.825,10.139 8.9,16.894 5.948,7.916 14.246,9.904 21.088,9.904 6.624,0 11.882,-1.865 12.315,-2.021 1.768,-0.645 2.676,-2.599 2.034,-4.368 z"
   inkscape:connector-curvature="0" />
	</g>
</g><g
     style="fill:#ffffff"
     id="g36">
	<g
   style="fill:#ffffff"
   id="g34">
		<path
   style="fill:#ffffff"
   id="path32"
   d="m 98.389,6.226 c -1.884,0 -3.413,1.529 -3.413,3.413 v 169.047 c 0,1.884 1.529,3.413 3.413,3.413 1.884,0 3.413,-1.527 3.413,-3.412 V 9.639 c 0,-1.884 -1.529,-3.413 -3.413,-3.413 z"
   inkscape:connector-curvature="0" />
	</g>
</g><g
     style="fill:#ffffff"
     id="g42">
	<g
   style="fill:#ffffff"
   id="g40">
		<path
   style="fill:#ffffff"
   id="path38"
   d="m 123.346,35.632 c -0.027,-1.884 -1.521,-3.413 -3.463,-3.364 -1.886,0.027 -3.391,1.579 -3.364,3.463 0.003,0.213 0.189,21.495 -10.453,34.992 -1.167,1.481 -0.915,3.627 0.567,4.794 0.626,0.495 1.37,0.734 2.111,0.734 1.009,0 2.009,-0.445 2.681,-1.3 12.127,-15.378 11.934,-38.348 11.921,-39.319 z"
   inkscape:connector-curvature="0" />
	</g>
</g><g
     style="fill:#ffffff"
     id="g48">
	<g
   style="fill:#ffffff"
   id="g46">
		<path
   style="fill:#ffffff"
   id="path44"
   d="m 130.285,140.187 c -15.046,0 -22.084,20.594 -22.376,21.472 -0.596,1.787 0.369,3.715 2.156,4.314 0.358,0.121 0.724,0.177 1.082,0.177 1.427,0 2.758,-0.901 3.238,-2.33 1.572,-4.675 7.494,-16.807 15.901,-16.807 1.884,0 3.413,-1.529 3.413,-3.413 0,-1.884 -1.53,-3.413 -3.414,-3.413 z"
   inkscape:connector-curvature="0" />
	</g>
</g><g
     style="fill:#ffffff"
     id="g54">
	<g
   style="fill:#ffffff"
   id="g52">
		<path
   style="fill:#ffffff"
   id="path50"
   d="m 134.13,8.654 c -1.509,-1.125 -3.649,-0.812 -4.775,0.701 l -8.189,11.003 c -1.125,1.51 -0.811,3.649 0.701,4.775 0.611,0.457 1.324,0.676 2.034,0.676 1.043,0 2.072,-0.474 2.741,-1.377 l 8.189,-11.003 c 1.125,-1.51 0.811,-3.648 -0.701,-4.775 z"
   inkscape:connector-curvature="0" />
	</g>
</g><g
     style="fill:#ffffff"
     id="g60">
	<g
   style="fill:#ffffff"
   id="g58">
		<path
   style="fill:#ffffff"
   id="path56"
   d="m 64.251,30.715 c -7.528,0 -13.653,6.125 -13.653,13.653 0,7.528 6.125,13.653 13.653,13.653 7.528,0 13.653,-6.125 13.653,-13.653 0,-7.528 -6.125,-13.653 -13.653,-13.653 z m 0,20.48 c -3.765,0 -6.827,-3.062 -6.827,-6.827 0,-3.765 3.062,-6.827 6.827,-6.827 3.765,0 6.827,3.062 6.827,6.827 -0.001,3.765 -3.063,6.827 -6.827,6.827 z"
   inkscape:connector-curvature="0" />
	</g>
</g><g
     style="fill:#ffffff"
     id="g66">
	<g
   style="fill:#ffffff"
   id="g64">
		<path
   style="fill:#ffffff"
   id="path62"
   d="m 40.357,75.088 c -7.528,0 -13.653,6.125 -13.653,13.653 0,7.528 6.125,13.653 13.653,13.653 7.528,0 13.653,-6.125 13.653,-13.653 0.001,-7.528 -6.125,-13.653 -13.653,-13.653 z m 0,20.48 c -3.765,0 -6.827,-3.062 -6.827,-6.827 0,-3.765 3.062,-6.827 6.827,-6.827 3.765,0 6.827,3.062 6.827,6.827 0,3.765 -3.062,6.827 -6.827,6.827 z"
   inkscape:connector-curvature="0" />
	</g>
</g><g
     style="fill:#ffffff"
     id="g72">
	<g
   style="fill:#ffffff"
   id="g70">
		<path
   style="fill:#ffffff"
   id="path68"
   d="m 74.491,105.808 c -7.528,0 -13.653,6.125 -13.653,13.653 0,7.528 6.125,13.653 13.653,13.653 7.528,0 13.653,-6.125 13.653,-13.653 0,-7.528 -6.125,-13.653 -13.653,-13.653 z m 0,20.48 c -3.765,0 -6.827,-3.062 -6.827,-6.827 0,-3.765 3.062,-6.827 6.827,-6.827 3.765,0 6.827,3.062 6.827,6.827 0,3.765 -3.063,6.827 -6.827,6.827 z"
   inkscape:connector-curvature="0" />
	</g>
</g><g
     style="fill:#ffffff"
     id="g78">
	<g
   style="fill:#ffffff"
   id="g76">
		<path
   style="fill:#ffffff"
   id="path74"
   d="m 74.491,143.355 c -7.528,0 -13.653,6.125 -13.653,13.653 0,7.528 6.125,13.653 13.653,13.653 7.528,0 13.653,-6.125 13.653,-13.653 0,-7.528 -6.125,-13.653 -13.653,-13.653 z m 0,20.48 c -3.765,0 -6.827,-3.062 -6.827,-6.827 0,-3.765 3.062,-6.827 6.827,-6.827 3.765,0 6.827,3.062 6.827,6.827 -0.001,3.765 -3.063,6.827 -6.827,6.827 z"
   inkscape:connector-curvature="0" />
	</g>
</g><g
     style="fill:#ffffff"
     id="g84">
	<g
   style="fill:#ffffff"
   id="g82">
		<path
   style="fill:#ffffff"
   id="path80"
   d="m 64.251,51.195 c -1.884,0 -3.413,1.529 -3.413,3.413 v 34.133 c 0,1.884 1.529,3.413 3.413,3.413 1.886,0 3.413,-1.527 3.413,-3.413 V 54.608 c 0,-1.884 -1.529,-3.413 -3.413,-3.413 z"
   inkscape:connector-curvature="0" />
	</g>
</g><g
     style="fill:#ffffff"
     id="g90">
	<g
   style="fill:#ffffff"
   id="g88">
		<path
   style="fill:#ffffff"
   id="path86"
   d="M 74.491,85.328 H 50.597 c -1.884,0 -3.413,1.529 -3.413,3.413 0,1.884 1.529,3.413 3.413,3.413 H 74.49 c 1.886,0 3.413,-1.529 3.413,-3.413 10e-4,-1.884 -1.528,-3.413 -3.412,-3.413 z"
   inkscape:connector-curvature="0" />
	</g>
</g><g
     style="fill:#ffffff"
     id="g96">
	<g
   style="fill:#ffffff"
   id="g94">
		<path
   style="fill:#ffffff"
   id="path92"
   d="m 74.491,85.328 c -1.884,0 -3.413,1.529 -3.413,3.413 v 20.48 c 0,1.884 1.529,3.413 3.413,3.413 1.886,0 3.413,-1.527 3.413,-3.413 v -20.48 c 0,-1.884 -1.529,-3.413 -3.413,-3.413 z"
   inkscape:connector-curvature="0" />
	</g>
</g><g
     style="fill:#ffffff"
     id="g102">
	<g
   style="fill:#ffffff"
   id="g100">
		<path
   style="fill:#ffffff"
   id="path98"
   d="m 74.491,126.288 c -1.884,0 -3.413,1.529 -3.413,3.413 v 17.067 c 0,1.884 1.529,3.413 3.413,3.413 1.886,0 3.413,-1.527 3.413,-3.413 v -17.067 c 0,-1.884 -1.529,-3.413 -3.413,-3.413 z"
   inkscape:connector-curvature="0" />
	</g>
</g></g>
<g
   id="g104"
   transform="translate(-8.9877451,-141.88563)">
</g>
<g
   id="g106"
   transform="translate(-8.9877451,-141.88563)">
</g>
<g
   id="g108"
   transform="translate(-8.9877451,-141.88563)">
</g>
<g
   id="g110"
   transform="translate(-8.9877451,-141.88563)">
</g>
<g
   id="g112"
   transform="translate(-8.9877451,-141.88563)">
</g>
<g
   id="g114"
   transform="translate(-8.9877451,-141.88563)">
</g>
<g
   id="g116"
   transform="translate(-8.9877451,-141.88563)">
</g>
<g
   id="g118"
   transform="translate(-8.9877451,-141.88563)">
</g>
<g
   id="g120"
   transform="translate(-8.9877451,-141.88563)">
</g>
<g
   id="g122"
   transform="translate(-8.9877451,-141.88563)">
</g>
<g
   id="g124"
   transform="translate(-8.9877451,-141.88563)">
</g>
<g
   id="g126"
   transform="translate(-8.9877451,-141.88563)">
</g>
<g
   id="g128"
   transform="translate(-8.9877451,-141.88563)">
</g>
<g
   id="g130"
   transform="translate(-8.9877451,-141.88563)">
</g>
<g
   id="g132"
   transform="translate(-8.9877451,-141.88563)">
</g>
</svg>