<?xml version="1.0" encoding="UTF-8" standalone="no"?>
<!-- Generator: Adobe Illustrator 19.0.0, SVG Export Plug-In . SVG Version: 6.00 Build 0)  -->

<svg
   xmlns:dc="http://purl.org/dc/elements/1.1/"
   xmlns:cc="http://creativecommons.org/ns#"
   xmlns:rdf="http://www.w3.org/1999/02/22-rdf-syntax-ns#"
   xmlns:svg="http://www.w3.org/2000/svg"
   xmlns="http://www.w3.org/2000/svg"
   xmlns:sodipodi="http://sodipodi.sourceforge.net/DTD/sodipodi-0.dtd"
   xmlns:inkscape="http://www.inkscape.org/namespaces/inkscape"
   version="1.1"
   id="Capa_1"
   x="0px"
   y="0px"
   viewBox="0 0 50 50"
   xml:space="preserve"
   sodipodi:docname="computer.svg"
   width="50"
   height="50"
   inkscape:export-filename="C:\xampp\htdocs\Nebula\images\icon\computer.png"
   inkscape:export-xdpi="96"
   inkscape:export-ydpi="96"
   inkscape:version="0.92.4 (5da689c313, 2019-01-14)"><metadata
   id="metadata97"><rdf:RDF><cc:Work
       rdf:about=""><dc:format>image/svg+xml</dc:format><dc:type
         rdf:resource="http://purl.org/dc/dcmitype/StillImage" /><dc:title></dc:title></cc:Work></rdf:RDF></metadata><defs
   id="defs95" /><sodipodi:namedview
   pagecolor="#ffffff"
   bordercolor="#666666"
   borderopacity="1"
   objecttolerance="10"
   gridtolerance="10"
   guidetolerance="10"
   inkscape:pageopacity="0"
   inkscape:pageshadow="2"
   inkscape:window-width="1600"
   inkscape:window-height="837"
   id="namedview93"
   showgrid="false"
   fit-margin-top="0"
   fit-margin-left="0"
   fit-margin-right="0"
   fit-margin-bottom="0"
   inkscape:zoom="5.7"
   inkscape:cx="50.847458"
   inkscape:cy="15.254237"
   inkscape:window-x="-8"
   inkscape:window-y="-8"
   inkscape:window-maximized="1"
   inkscape:current-layer="Capa_1" />









<g
   id="g934"
   transform="translate(3.3333326)"
   style="fill:#ffffff"><g
     transform="matrix(0.10416667,0,0,0.10416667,-3.3333334,0)"
     id="g6"
     style="fill:#ffffff">
	<g
   id="g4"
   style="fill:#ffffff">
		<path
   inkscape:connector-curvature="0"
   id="path2"
   d="m 408,64 h -8 v 16 h 8 c 13.255,0 24,10.745 24,24 V 320 H 48 V 104 C 48,90.745 58.745,80 72,80 h 8 V 64 H 72 C 49.92,64.026 32.026,81.92 32,104 v 240 c 0.026,22.08 17.92,39.974 40,40 H 188.904 L 162.24,464 H 136 v 16 H 344 V 464 H 317.76 L 291.096,384 H 408 c 22.08,-0.026 39.974,-17.92 40,-40 V 104 C 447.974,81.92 430.08,64.026 408,64 Z M 300.896,464 H 179.104 l 26.664,-80 h 68.464 z M 432,344 c 0,13.255 -10.745,24 -24,24 H 72 C 58.745,368 48,357.255 48,344 v -8 h 384 z"
   style="fill:#ffffff" />
	</g>
</g><g
     transform="matrix(0.10416667,0,0,0.10416667,-3.3333334,0)"
     id="g12"
     style="fill:#ffffff">
	<g
   id="g10"
   style="fill:#ffffff">
		<path
   inkscape:connector-curvature="0"
   id="path8"
   d="M 360,0 H 120 C 106.745,0 96,10.745 96,24 v 280 h 16 V 24 c 0,-4.418 3.582,-8 8,-8 h 240 c 4.418,0 8,3.582 8,8 v 280 h 16 V 24 C 384,10.745 373.255,0 360,0 Z"
   style="fill:#ffffff" />
	</g>
</g><g
     transform="matrix(0.10416667,0,0,0.10416667,-3.3333334,0)"
     id="g18"
     style="fill:#ffffff">
	<g
   id="g16"
   style="fill:#ffffff">
		<path
   inkscape:connector-curvature="0"
   id="path14"
   d="M 351.24,192.04 C 347.451,173.383 331.038,159.981 312,160 H 207.792 c 10.941,-14.13 10.941,-33.87 0,-48 H 312 c 22.08,-0.026 39.974,-17.92 40,-40 0,-22.091 -17.909,-40 -40,-40 -22.091,0 -40,17.909 -40,40 0.029,8.684 2.914,17.117 8.208,24 H 176 c -22.091,0 -40,17.909 -40,40 0,22.091 17.909,40 40,40 h 104.208 c -10.941,14.13 -10.941,33.87 0,48 H 184 c -22.091,0 -40,17.909 -40,40 0,22.091 17.909,40 40,40 22.091,0 40,-17.909 40,-40 -0.029,-8.684 -2.914,-17.117 -8.208,-24 H 320 v -0.8 c 21.65,-4.396 35.636,-25.51 31.24,-47.16 z M 312,48 c 13.255,0 24,10.745 24,24 0,13.255 -10.745,24 -24,24 -13.255,0 -24,-10.745 -24,-24 0,-13.255 10.745,-24 24,-24 z M 176,160 c -13.255,0 -24,-10.745 -24,-24 0,-13.255 10.745,-24 24,-24 13.255,0 24,10.745 24,24 0,13.255 -10.745,24 -24,24 z m 8,128 c -13.255,0 -24,-10.745 -24,-24 0,-13.255 10.745,-24 24,-24 13.255,0 24,10.745 24,24 0,13.255 -10.745,24 -24,24 z m 128,-64 c -13.255,0 -24,-10.745 -24,-24 0,-13.255 10.745,-24 24,-24 13.255,0 24,10.745 24,24 0,13.255 -10.745,24 -24,24 z"
   style="fill:#ffffff" />
	</g>
</g><g
     transform="matrix(0.10416667,0,0,0.10416667,-3.3333334,0)"
     id="g24"
     style="fill:#ffffff">
	<g
   id="g22"
   style="fill:#ffffff">
		<rect
   id="rect20"
   height="16"
   width="16"
   y="64"
   x="304"
   style="fill:#ffffff" />
	</g>
</g><g
     transform="matrix(0.10416667,0,0,0.10416667,-3.3333334,0)"
     id="g30"
     style="fill:#ffffff">
	<g
   id="g28"
   style="fill:#ffffff">
		<rect
   id="rect26"
   height="16"
   width="16"
   y="128"
   x="168"
   style="fill:#ffffff" />
	</g>
</g><g
     transform="matrix(0.10416667,0,0,0.10416667,-3.3333334,0)"
     id="g36"
     style="fill:#ffffff">
	<g
   id="g34"
   style="fill:#ffffff">
		<rect
   id="rect32"
   height="16"
   width="16"
   y="192"
   x="304"
   style="fill:#ffffff" />
	</g>
</g><g
     transform="matrix(0.10416667,0,0,0.10416667,-3.3333334,0)"
     id="g42"
     style="fill:#ffffff">
	<g
   id="g40"
   style="fill:#ffffff">
		<rect
   id="rect38"
   height="16"
   width="16"
   y="256"
   x="176"
   style="fill:#ffffff" />
	</g>
</g><g
     transform="matrix(0.10416667,0,0,0.10416667,-3.3333334,0)"
     id="g48"
     style="fill:#ffffff">
	<g
   id="g46"
   style="fill:#ffffff">
		<rect
   id="rect44"
   height="16"
   width="16"
   y="32"
   x="128"
   style="fill:#ffffff" />
	</g>
</g><g
     transform="matrix(0.10416667,0,0,0.10416667,-3.3333334,0)"
     id="g54"
     style="fill:#ffffff">
	<g
   id="g52"
   style="fill:#ffffff">
		<rect
   id="rect50"
   height="16"
   width="16"
   y="32"
   x="160"
   style="fill:#ffffff" />
	</g>
</g><g
     transform="matrix(0.10416667,0,0,0.10416667,-3.3333334,0)"
     id="g60"
     style="fill:#ffffff">
	<g
   id="g58"
   style="fill:#ffffff">
		<rect
   id="rect56"
   height="16"
   width="16"
   y="32"
   x="192"
   style="fill:#ffffff" />
	</g>
</g></g>
<g
   id="g62"
   transform="translate(-32,-430)">
</g>
<g
   id="g64"
   transform="translate(-32,-430)">
</g>
<g
   id="g66"
   transform="translate(-32,-430)">
</g>
<g
   id="g68"
   transform="translate(-32,-430)">
</g>
<g
   id="g70"
   transform="translate(-32,-430)">
</g>
<g
   id="g72"
   transform="translate(-32,-430)">
</g>
<g
   id="g74"
   transform="translate(-32,-430)">
</g>
<g
   id="g76"
   transform="translate(-32,-430)">
</g>
<g
   id="g78"
   transform="translate(-32,-430)">
</g>
<g
   id="g80"
   transform="translate(-32,-430)">
</g>
<g
   id="g82"
   transform="translate(-32,-430)">
</g>
<g
   id="g84"
   transform="translate(-32,-430)">
</g>
<g
   id="g86"
   transform="translate(-32,-430)">
</g>
<g
   id="g88"
   transform="translate(-32,-430)">
</g>
<g
   id="g90"
   transform="translate(-32,-430)">
</g>
</svg>