<?xml version="1.0" encoding="UTF-8" standalone="no"?>
<!-- Generator: Adobe Illustrator 19.0.0, SVG Export Plug-In . SVG Version: 6.00 Build 0)  -->

<svg
   xmlns:dc="http://purl.org/dc/elements/1.1/"
   xmlns:cc="http://creativecommons.org/ns#"
   xmlns:rdf="http://www.w3.org/1999/02/22-rdf-syntax-ns#"
   xmlns:svg="http://www.w3.org/2000/svg"
   xmlns="http://www.w3.org/2000/svg"
   xmlns:sodipodi="http://sodipodi.sourceforge.net/DTD/sodipodi-0.dtd"
   xmlns:inkscape="http://www.inkscape.org/namespaces/inkscape"
   version="1.1"
   id="Layer_1"
   x="0px"
   y="0px"
   viewBox="0 0 50 50"
   xml:space="preserve"
   sodipodi:docname="detect.svg"
   width="50"
   height="50"
   inkscape:version="0.92.4 (5da689c313, 2019-01-14)"><metadata
   id="metadata53"><rdf:RDF><cc:Work
       rdf:about=""><dc:format>image/svg+xml</dc:format><dc:type
         rdf:resource="http://purl.org/dc/dcmitype/StillImage" /><dc:title></dc:title></cc:Work></rdf:RDF></metadata><defs
   id="defs51" /><sodipodi:namedview
   pagecolor="#ffffff"
   bordercolor="#666666"
   borderopacity="1"
   objecttolerance="10"
   gridtolerance="10"
   guidetolerance="10"
   inkscape:pageopacity="0"
   inkscape:pageshadow="2"
   inkscape:window-width="1600"
   inkscape:window-height="837"
   id="namedview49"
   showgrid="false"
   fit-margin-top="0"
   fit-margin-left="0"
   fit-margin-right="0"
   fit-margin-bottom="0"
   inkscape:zoom="0.4609375"
   inkscape:cx="234.66796"
   inkscape:cy="255.99899"
   inkscape:window-x="-8"
   inkscape:window-y="-8"
   inkscape:window-maximized="1"
   inkscape:current-layer="Layer_1" />
<g
   id="g16"
   transform="matrix(0.09765635,0,0,0.09765635,-5.8891424e-5,4.5520804e-5)"
   style="fill:#ffffff">
	<g
   id="g14"
   style="fill:#ffffff">
		<g
   id="g12"
   style="fill:#ffffff">
			<path
   d="m 416,458.667 c -79.542,0 -149.333,-59.813 -149.333,-128 0,-5.896 -4.771,-10.667 -10.667,-10.667 -5.896,0 -10.667,4.771 -10.667,10.667 C 245.334,410.219 325.084,480 416,480 c 5.896,0 10.667,-4.771 10.667,-10.667 0,-5.895 -4.771,-10.666 -10.667,-10.666 z"
   id="path2"
   inkscape:connector-curvature="0"
   style="fill:#ffffff" />
			<path
   d="m 96,66.292 c 1.896,0 3.813,-0.5 5.542,-1.542 90.25,-54.77 207.271,-56.76 298.625,-6.27 5.167,2.865 11.646,0.99 14.5,-4.177 2.854,-5.156 0.979,-11.646 -4.166,-14.49 C 363.269,13.722 309.671,-0.092 255.99,0 198.312,0.1 140.537,16.13 90.459,46.5 c -5.021,3.063 -6.625,9.625 -3.583,14.656 2.02,3.313 5.52,5.136 9.124,5.136 z"
   id="path4"
   inkscape:connector-curvature="0"
   style="fill:#ffffff" />
			<path
   d="M 489.333,186.834 C 448.021,112.219 356.438,64 256,64 155.562,64 63.979,112.219 22.667,186.834 c -2.854,5.156 -0.979,11.646 4.167,14.5 5.167,2.844 11.625,0.99 14.5,-4.167 C 78.938,129.23 163.209,85.334 256,85.334 c 92.791,0 177.063,43.896 214.666,111.833 1.959,3.521 5.584,5.5 9.334,5.5 1.75,0 3.521,-0.427 5.167,-1.333 5.146,-2.854 7.021,-9.344 4.166,-14.5 z"
   id="path6"
   inkscape:connector-curvature="0"
   style="fill:#ffffff" />
			<path
   d="m 128,341.334 c 0,-74.167 53.833,-128 128,-128 77.75,0 128,46.052 128,117.333 0,5.896 4.771,10.667 10.667,10.667 5.896,0 10.667,-4.771 10.667,-10.667 C 405.334,247.73 345.313,192 256,192 c -85.125,0 -149.333,64.198 -149.333,149.333 0,62.333 22.208,113.927 72.042,167.281 2.104,2.25 4.938,3.385 7.792,3.385 2.604,0 5.229,-0.948 7.271,-2.875 4.313,-4.021 4.542,-10.771 0.521,-15.073 C 148.438,444.948 128,397.855 128,341.334 Z"
   id="path8"
   inkscape:connector-curvature="0"
   style="fill:#ffffff" />
			<path
   d="m 256,128 c -123.604,0 -213.333,85.23 -213.333,202.667 0,31.667 10.646,61.688 22.146,89.417 2.25,5.458 8.542,8 13.938,5.771 5.438,-2.26 8.021,-8.5 5.771,-13.938 C 73.854,386.219 64,358.605 64,330.667 64,223.896 142.958,149.334 256,149.334 c 109.458,0 192,82.542 192,192 0,29.406 -23.917,53.333 -53.333,53.333 -29.417,0 -53.333,-23.927 -53.333,-53.333 C 341.334,291.094 306.25,256 256,256 c -50.25,0 -85.333,35.094 -85.333,85.333 0,69.604 39.375,128.156 113.854,169.333 1.646,0.906 3.417,1.333 5.167,1.333 3.75,0 7.396,-1.99 9.333,-5.51 2.854,-5.156 0.979,-11.646 -4.167,-14.49 C 226.604,454.271 192,403.584 192,341.334 c 0,-44.208 32.146,-64 64,-64 31.854,0 64,19.792 64,64 0,41.166 33.5,74.666 74.667,74.666 41.167,0 74.667,-33.5 74.667,-74.667 C 469.334,219.709 377.625,128 256,128 Z"
   id="path10"
   inkscape:connector-curvature="0"
   style="fill:#ffffff" />
		</g>
	</g>
</g>
<g
   id="g18"
   transform="translate(-21.332038,-461.999)">
</g>
<g
   id="g20"
   transform="translate(-21.332038,-461.999)">
</g>
<g
   id="g22"
   transform="translate(-21.332038,-461.999)">
</g>
<g
   id="g24"
   transform="translate(-21.332038,-461.999)">
</g>
<g
   id="g26"
   transform="translate(-21.332038,-461.999)">
</g>
<g
   id="g28"
   transform="translate(-21.332038,-461.999)">
</g>
<g
   id="g30"
   transform="translate(-21.332038,-461.999)">
</g>
<g
   id="g32"
   transform="translate(-21.332038,-461.999)">
</g>
<g
   id="g34"
   transform="translate(-21.332038,-461.999)">
</g>
<g
   id="g36"
   transform="translate(-21.332038,-461.999)">
</g>
<g
   id="g38"
   transform="translate(-21.332038,-461.999)">
</g>
<g
   id="g40"
   transform="translate(-21.332038,-461.999)">
</g>
<g
   id="g42"
   transform="translate(-21.332038,-461.999)">
</g>
<g
   id="g44"
   transform="translate(-21.332038,-461.999)">
</g>
<g
   id="g46"
   transform="translate(-21.332038,-461.999)">
</g>
</svg>