<?xml version="1.0" encoding="UTF-8" standalone="no"?>
<!-- Created with Inkscape (http://www.inkscape.org/) -->

<svg
   xmlns:dc="http://purl.org/dc/elements/1.1/"
   xmlns:cc="http://creativecommons.org/ns#"
   xmlns:rdf="http://www.w3.org/1999/02/22-rdf-syntax-ns#"
   xmlns:svg="http://www.w3.org/2000/svg"
   xmlns="http://www.w3.org/2000/svg"
   xmlns:sodipodi="http://sodipodi.sourceforge.net/DTD/sodipodi-0.dtd"
   xmlns:inkscape="http://www.inkscape.org/namespaces/inkscape"
   version="1.1"
   id="svg2200"
   width="350"
   height="200"
   viewBox="0 0 350 199.99999"
   sodipodi:docname="icao.svg"
   inkscape:version="0.92.4 (5da689c313, 2019-01-14)">
  <metadata
     id="metadata2206">
    <rdf:RDF>
      <cc:Work
         rdf:about="">
        <dc:format>image/svg+xml</dc:format>
        <dc:type
           rdf:resource="http://purl.org/dc/dcmitype/StillImage" />
        <dc:title></dc:title>
      </cc:Work>
    </rdf:RDF>
  </metadata>
  <defs
     id="defs2204" />
  <sodipodi:namedview
     pagecolor="#ffffff"
     bordercolor="#666666"
     borderopacity="1"
     objecttolerance="10"
     gridtolerance="10"
     guidetolerance="10"
     inkscape:pageopacity="0"
     inkscape:pageshadow="2"
     inkscape:window-width="1600"
     inkscape:window-height="837"
     id="namedview2202"
     showgrid="false"
     fit-margin-top="0"
     fit-margin-left="0"
     fit-margin-right="0"
     fit-margin-bottom="0"
     inkscape:zoom="1.051592"
     inkscape:cx="-24.020818"
     inkscape:cy="66.278666"
     inkscape:window-x="-8"
     inkscape:window-y="-8"
     inkscape:window-maximized="1"
     inkscape:current-layer="svg2200" />
  <g
     id="g2820"
     transform="matrix(0.07214115,0,0,0.07214115,183.14506,30.983265)"
     style="fill:#999999">
    <path
       inkscape:connector-curvature="0"
       id="path2759-6"
       d="m -1165.6171,1701.5668 c -4.5953,-1.6526 -8.7258,-3.1022 -9.1787,-3.2215 -0.4531,-0.1193 3.7136,-0.6822 9.2588,-1.2502 12.6262,-1.2935 23.9461,-6.753 28.6773,-13.8305 2.924,-4.3742 3.4116,-6.6029 2.6647,-12.1764 -0.503,-3.7522 -1.503,-7.4108 -2.2226,-8.1303 -0.724,-0.724 -4.9855,-0.099 -9.5464,1.398 -4.783,1.5709 -13.0506,2.7352 -19.7119,2.7759 l -11.4734,0.07 0.078,-14.5329 c 0.1208,-22.653 7.3335,-36.0508 20.3462,-37.7962 11.8029,-1.5831 22.6442,7.7776 31.5015,27.1997 12.3867,27.1605 6.4807,47.9598 -16.7405,58.9569 -9.2257,4.3689 -12.7731,4.4496 -23.653,0.5373 z m 15.2391,-47.382 c 10.6601,-3.0397 11.3641,-6.0447 3.5827,-15.2922 -4.1541,-4.937 -12.4523,-6.3673 -15.4841,-2.6689 -2.2695,2.769 -5.2725,14.8664 -4.3115,17.3704 0.9624,2.5082 8.5223,2.7836 16.2129,0.5907 z m -260.909,-5.4468 c -6.1629,-15.9058 -5.9439,-17.5939 2.3356,-18.0072 4.7126,-0.2352 5.0659,0.1863 10.0572,11.9946 2.845,6.7311 5.1971,13.0895 5.2267,14.1299 0.041,1.45 -8.8928,6.5221 -11.4878,6.5221 -0.2526,0 -3.0119,-6.5878 -6.1317,-14.6394 z m -42.7171,2.1653 c -3.6235,-4.3063 -3.772,-4.9755 -1.6291,-7.3433 1.2968,-1.433 2.3577,-3.0674 2.3577,-3.6322 0,-0.5648 -8.9493,-1.0269 -19.8872,-1.0269 h -19.8872 v -6.9872 c 0,-5.9276 0.406,-6.8704 2.6772,-6.2174 7.2993,2.0987 26.7346,4.2956 33.6971,3.8093 7.0895,-0.495 7.9362,-0.2139 8.7151,2.8937 1.2112,4.8333 4.2726,4.2937 10.8528,-1.9123 3.1226,-2.9448 6.1493,-5.3542 6.7264,-5.3542 1.2653,0 7.7015,6.6961 7.7015,8.0126 0,0.5121 -6.1509,5.7831 -13.6688,11.7136 l -13.6689,10.7822 z m 166.8551,-8.157 c -12.6288,-6.7646 -12.635,-23.0573 -0.016,-29.0477 5.2658,-2.4988 6.4947,-2.5647 12.044,-0.6461 8.5465,2.955 12.7442,11.188 10.1384,19.8849 -2.8871,9.6372 -13.6237,14.3872 -22.171,9.8089 z m 13.6929,-7.6003 c 2.0652,-2.0652 3.7548,-5.1945 3.7548,-6.9536 0,-1.7593 -1.6896,-4.8883 -3.7548,-6.9536 -2.0653,-2.0651 -5.1945,-3.7549 -6.9537,-3.7549 -1.7592,0 -4.8883,1.6898 -6.9534,3.7549 -2.0653,2.0653 -3.755,5.1943 -3.755,6.9536 0,1.7591 1.6897,4.8884 3.755,6.9536 2.0651,2.0652 5.1942,3.7549 6.9534,3.7549 1.7592,0 4.8884,-1.6897 6.9537,-3.7549 z m 206.9148,1.7683 c -2.8257,-3.5348 -16.0552,-21.0771 -29.3989,-38.9826 -23.4245,-31.4326 -24.3613,-32.4646 -27.1654,-29.9274 -2.7564,2.4948 -3.0715,2.4604 -6.2078,-0.6758 l -3.3039,-3.3041 7.3574,-10.7678 c 4.0465,-5.9223 7.9086,-11.1085 8.5826,-11.525 0.6739,-0.4166 14.4341,16.4605 30.5781,37.5044 16.1439,21.044 29.865,38.5785 30.4913,38.9655 1.191,0.7359 29.7975,-8.9439 52.0892,-17.6259 28.04037,-10.9208 93.45701,-46.3592 129.26681,-70.028 20.17424,-13.3343 47.20859,-35.1832 72.66483,-58.7275 25.90252,-23.9569 68.65068,-70.5172 81.12052,-88.3551 l 3.71648,-5.3162 -5.46023,4.1648 -5.46033,4.1647 -8.53098,-6.109 -8.53115,-6.109 -29.83265,30.9081 -29.83264,30.9082 -8.53807,-2.6913 c -8.16699,-2.5746 -8.53815,-2.918 -8.53815,-7.9038 0,-8.7601 6.16549,-85.445 6.93145,-86.2109 1.61698,-1.617 2.25798,1.5863 3.77142,18.8488 2.33396,26.6254 7.97598,49.784 12.12857,49.784 0.75525,0 3.25554,-2.2374 5.55617,-4.9719 2.30064,-2.7345 14.38473,-15.5344 26.85337,-28.4441 l 22.67037,-23.4724 14.2008,11.6166 c 7.8107,6.3891 14.64914,11.6165 15.19689,11.6165 1.02511,0 21.93023,-31.7191 29.57272,-44.8704 l 4.29489,-7.3908 -10.45087,-10.5315 -10.45098,-10.5317 -6.8001,5.5722 c -6.47696,5.3073 -6.89915,5.4363 -8.88944,2.7145 -1.14928,-1.5716 -2.0895,-3.425 -2.0895,-4.1182 0,-0.9159 13.83854,-19.2982 19.06709,-25.3273 0.70448,-0.8122 38.04464,47.454 38.04464,49.1769 0,5.0518 -47.53898,71.6913 -72.15318,101.1434 -17.29624,20.6956 -72.20172,74.8724 -91.13669,89.9269 -58.44875,46.4708 -134.90573,87.6804 -214.85346,115.8038 l -21.3936,7.5256 z m -501.1924,-23.2312 c -29.427,-14.4361 -29.5449,-14.514 -27.1537,-17.9278 3.7266,-5.3206 2.9251,-6.8626 -4.1002,-7.8911 -25.5307,-3.7376 -24.094,-3.0847 -24.094,-10.9487 0,-3.7702 0.2585,-6.8549 0.5745,-6.8549 0.3161,0 4.6186,1.8024 9.5612,4.0052 5.1748,2.3064 13.1045,4.3469 18.6948,4.8105 l 9.7082,0.8056 -0.9351,4.6743 c -0.5141,2.5711 -1.6594,5.1223 -2.5447,5.6697 -0.8857,0.5472 0.54,1.8855 3.1676,2.974 2.7828,1.1525 5.3035,1.4076 6.0368,0.6108 0.6924,-0.7525 8.9986,-18.5784 18.4578,-39.6129 9.4593,-21.0346 17.4437,-38.5156 17.7429,-38.8466 1.1679,-1.2927 45.0502,18.8523 44.411,20.3876 -0.3734,0.8973 -9.0038,18.9363 -19.1782,40.0867 -10.1744,21.1504 -18.499,39.1105 -18.499,39.9113 0,0.8007 1.7209,2.2402 3.8245,3.1986 6.0681,2.7647 3.954,9.4632 -2.9833,9.4518 -1.7248,0 -16.4357,-6.5296 -32.6911,-14.5041 z m 24.8349,-12.4546 c 2.1755,-3.8923 3.9553,-7.5885 3.9553,-8.2139 0,-0.9181 -10.3392,-5.9687 -21.0209,-10.2684 -2.1958,-0.8838 -8.378,12.2834 -7.1557,15.2406 1.5117,3.6573 11.8755,10.3184 16.0541,10.3184 3.4192,0 4.9565,-1.332 8.1672,-7.0767 z m 12.3435,-28.0575 c 2.1175,-4.1789 3.8501,-8.2461 3.8501,-9.0383 0,-1.3747 -17.0598,-7.8402 -20.6876,-7.8402 -2.3016,0 -9.5934,15.6515 -7.612,16.339 0.8406,0.2917 4.9704,2.1876 9.1773,4.2133 4.2068,2.0256 8.4978,3.7373 9.5355,3.8037 1.0375,0.066 3.619,-3.2986 5.7367,-7.4775 z m 13.0833,-25.4191 c 1.6528,-3.856 2.9966,-7.8143 2.9862,-8.7963 -0.017,-1.6649 -21.0262,-11.1657 -22.0599,-9.9763 -1.7453,2.0078 -6.8526,15.7194 -6.126,16.4458 0.7153,0.7155 20.061,8.9467 21.7577,9.2575 0.2401,0.044 1.7891,-3.0748 3.442,-6.9307 z m 102.8237,70.7535 c -11.9899,-2.5892 -21.8099,-5.4271 -21.8226,-6.3065 -0.045,-3.1855 12.736,-50.5903 14.0265,-52.0208 1.3312,-1.4753 42.0537,7.5422 44.6254,9.8815 0.6942,0.6313 -1.8874,12.6026 -5.7366,26.6029 -3.8492,14.0005 -6.9987,25.7895 -6.9987,26.198 0,0.9154 1.9281,1.2638 -24.094,-4.3551 z m 20.2607,-25.2717 c 2.1997,-11.4706 2.3563,-14.5462 0.7891,-15.5147 -3.6541,-2.2583 -20.032,-5.0845 -21.3122,-3.6775 -1.0962,1.2045 -6.7161,27.671 -6.537,30.7861 0.038,0.6507 5.1106,2.5881 11.2737,4.3058 13.1171,3.6553 11.777,5.0052 15.7864,-15.8997 z m -70.3613,24.0081 c -17.7982,-1.4218 -20.6521,-2.7711 -20.6521,-9.7645 0,-2.6067 2.0669,-4.181 9.8115,-7.4724 11.5272,-4.8991 16.5707,-9.4159 13.0746,-11.709 -1.2287,-0.8059 -5.418,-1.0552 -9.3098,-0.5541 -6.8515,0.8821 -7.1285,0.7601 -8.7317,-3.8389 -2.3021,-6.6035 -1.3703,-8.0523 8.8895,-13.8233 8.2231,-4.6252 9.4195,-5.9869 13.7304,-15.6282 l 4.7226,-10.5617 4.3119,3.0704 c 8.9255,6.3556 8.8773,6.6342 -3.0106,17.377 -11.3775,10.2816 -12.0273,12.3017 -4.8368,15.0355 5.5615,2.1145 9.1792,0.4366 12.0352,-5.5822 1.3727,-2.8928 3.0129,-5.2597 3.645,-5.2597 2.2303,0 9.2107,6.3684 9.2107,8.403 0,1.134 -6.3678,7.3903 -14.1505,13.9027 -7.7828,6.5126 -14.362,12.7059 -14.6208,13.7632 -0.2997,1.2255 2.6126,2.5624 8.0314,3.6874 7.979,1.6564 8.5016,2.0403 8.5016,6.2458 0,2.6789 -0.7689,4.3948 -1.9122,4.2671 -1.0517,-0.1177 -9.4846,-0.8187 -18.7399,-1.5581 z m -130.3875,-48.7206 c -10.8593,-3.8603 -17.2367,-7.815 -17.2367,-10.6884 0,-4.543 4.6391,-9.0602 10.3702,-10.0975 6.6237,-1.199 12.8006,-4.0888 15.3785,-7.1952 1.4977,-1.8044 0.4769,-2.7418 -5.8481,-5.3703 -6.8413,-2.8431 -7.6624,-3.6875 -7.6624,-7.8808 0,-3.6571 1.1005,-5.3678 4.9718,-7.7281 2.7345,-1.6673 6.2362,-3.0341 7.7814,-3.0371 1.5452,0 7.1563,-4.1796 12.469,-9.2813 l 9.6596,-9.2754 4.1894,5.4927 c 2.3042,3.0209 3.9215,5.7388 3.5938,6.0396 -0.3277,0.3009 -6.643,3.9998 -14.034,8.2199 l -13.4381,7.6728 4.0831,3.2119 c 5.1541,4.054 5.1964,4.0511 14.411,-0.995 l 7.6823,-4.207 2.9929,3.8246 c 1.6464,2.1033 2.9969,4.1686 3.0017,4.5893 0.016,0.8304 -23.6087,15.0122 -31.6835,19.0249 -2.7346,1.3589 -4.9718,3.4741 -4.9718,4.7004 0,1.2262 3.4419,3.9737 7.6489,6.1055 15.6806,7.946 5.0475,13.4177 -13.359,6.8745 z m -74.9118,-12.1668 c -4.8954,-2.9847 -9.6355,-10.0988 -9.6355,-14.4609 0,-1.2719 5.9102,-10.9968 13.1336,-21.6108 12.6439,-18.5785 13.0345,-19.4078 10.4715,-22.2398 -1.4643,-1.6179 -3.1865,-2.9419 -3.8276,-2.9419 -0.641,0 -4.9974,5.4689 -9.681,12.153 -9.6248,13.7356 -28.2239,29.9161 -32.7404,28.4826 -1.4787,-0.4693 -3.4689,-2.9204 -4.4224,-5.4466 -1.1463,-3.0366 -2.7913,-4.5934 -4.8543,-4.5934 -1.7161,0 -4.8737,-0.7987 -7.0168,-1.7751 -3.0432,-1.3866 -3.8966,-2.8942 -3.8966,-6.8841 0,-4.581 0.4445,-5.1087 4.3032,-5.1087 4.783,0 8.4644,-3.4238 18.4036,-17.1162 l 6.3169,-8.7023 -5.7156,-4.7298 -5.7156,-4.7298 -4.5457,5.7832 c -7.4104,9.4276 -27.2961,29.5894 -28.7169,29.1158 -0.7229,-0.2408 -2.6228,-2.5047 -4.2221,-5.0305 l -2.9077,-4.5924 9.2577,-7.6198 c 5.0919,-4.1909 12.0929,-10.9923 15.5581,-15.1144 l 6.3003,-7.4947 -3.3932,-2.2531 c -3.9881,-2.648 -4.3914,-6.7956 -0.9396,-9.6606 2.0571,-1.7072 3.1444,-1.6399 6.7279,0.4169 l 4.2744,2.4531 8.723,-15.9322 8.723,-15.9321 5.0178,3.1012 5.0177,3.1012 2.5444,-3.8833 c 2.5107,-3.8319 2.6043,-3.8477 7.0676,-1.2114 5.1591,3.0476 5.2894,3.4387 2.4427,7.3318 -1.8299,2.5028 -1.6229,3.2382 1.721,6.1147 2.1621,1.8598 3.8011,4.9181 3.8011,7.0926 0,3.241 3.4752,6.0906 22.8294,18.7212 12.556,8.1941 23.2499,15.9944 23.7638,17.3342 1.2128,3.1604 -1.5876,7.4321 -4.699,7.1676 -1.3359,-0.1133 -12.4232,-6.5242 -24.6389,-14.246 -12.2154,-7.7219 -22.8098,-13.6689 -23.5429,-13.216 -3.2968,2.0376 -33.8691,48.3648 -33.8691,51.3228 v 3.3125 l 6.0468,-3.3983 c 5.6075,-3.1516 14.4233,-14.0323 26.8583,-33.1486 l 4.2412,-6.5207 6.286,3.6064 c 3.4571,1.9835 9.2659,5.2473 12.9085,7.253 8.6929,4.786 8.3294,6.3449 -7.2982,31.294 -6.7804,10.8245 -12.3278,20.1927 -12.3278,20.818 0,2.1804 3.2083,3.0986 5.162,1.4772 1.4664,-1.2172 2.9924,-0.5643 5.9866,2.5608 4.2952,4.4834 4.018,5.92 -1.9278,9.989 -4.8666,3.3302 -7.3448,3.2544 -13.3534,-0.4093 z m -12.005,-89.3189 c 6.6519,-11.8946 6.8545,-15.4825 1.0441,-18.4872 l -4.3851,-2.2676 -6.5774,10.4827 c -3.6178,5.7656 -6.6355,10.8704 -6.706,11.3441 -0.1116,0.7498 9.7529,8.6361 10.8026,8.6361 0.216,0 2.8359,-4.3685 5.8218,-9.7081 z m -8.9445,-1.4553 c -2.822,-2.0677 -2.8035,-2.2558 0.6888,-6.9796 1.9741,-2.6698 4.3118,-4.6169 5.1949,-4.3267 2.766,0.9089 2.6356,6.5062 -0.2339,10.0428 -2.4289,2.9934 -3.0877,3.1407 -5.6498,1.2635 z m -20.5226,26.4613 c 2.5881,-6.2278 3.874,-7.6489 6.9207,-7.6489 3.4074,0 3.6524,0.4448 2.7413,4.9718 -2.0053,9.9642 -2.2743,10.326 -7.6744,10.326 h -5.1664 z m -63.2685,-16.8808 c -1.4042,-0.8195 -3.8135,-4.7568 -5.3542,-8.7497 -3.9845,-10.3268 -3.9907,-38.6326 -0.016,-46.2694 l 2.7908,-5.3543 -9.4581,-8.6294 -9.4579,-8.6296 -7.5311,8.3159 c -4.142,4.5739 -7.1617,8.9136 -6.7103,9.6438 0.4514,0.7303 3.4126,1.7658 6.5805,2.3009 8.9084,1.5052 9.7954,2.4538 7.6385,8.1683 -1.0158,2.6912 -2.7696,4.8928 -3.8974,4.8928 -2.3722,0 -35.8365,-7.4521 -36.5162,-8.1317 -0.2497,-0.2498 0.2625,-3.0489 1.1382,-6.2205 1.162,-4.2084 2.7378,-6.1657 5.8327,-7.2448 2.4859,-0.8666 16.2039,-14.4307 33.1519,-32.7803 15.9012,-17.216 29.3745,-31.1272 29.9408,-30.9138 0.5663,0.2136 10.3501,8.5168 21.742,18.4517 20.1976,17.6143 36.1597,34.1986 36.1597,37.5684 0,1.7681 -17.7476,22.0258 -20.0592,22.896 -0.7435,0.28 -6.6883,-4.3822 -13.2106,-10.3603 l -11.8589,-10.8694 -4.4113,4.8766 -4.4113,4.8767 9.7771,9.3083 c 5.3775,5.1194 11.7607,10.702 14.1851,12.4059 3.469,2.438 4.1774,3.8224 3.3272,6.5016 -0.8648,2.7245 -2.2296,3.4037 -6.8401,3.4037 -4.9364,0 -6.2883,-0.8001 -9.4581,-5.597 -2.0342,-3.0785 -6.6112,-7.9758 -10.1713,-10.883 l -6.4732,-5.286 -1.5582,4.0986 c -0.8571,2.2542 -1.5585,10.165 -1.5585,17.5798 0,15.6032 1.7384,18.7055 8.7029,15.5322 4.453,-2.029 5.7858,-1.0032 7.6052,5.8522 1.9776,7.452 -11.6769,13.8847 -19.6259,9.2458 z m 50.7002,-76.6461 c 0.058,-1.3674 -36.0274,-34.9751 -37.5529,-34.9751 -0.6865,0 -3.202,1.8721 -5.5899,4.1599 l -4.3421,4.16 19.5563,18.6794 19.556,18.6794 4.1657,-4.8642 c 2.2912,-2.6755 4.1842,-5.3033 4.2069,-5.8394 z m -43.2157,1.0393 3.4015,-5.2521 -7.9646,-6.9673 c -4.3805,-3.832 -8.3727,-6.9674 -8.8715,-6.9674 -0.4988,0 -2.5376,1.7359 -4.5309,3.8575 l -3.6239,3.8574 8.2769,8.381 c 4.5521,4.6094 8.6444,8.3723 9.0938,8.3619 0.4495,-0.016 2.3478,-2.3824 4.2187,-5.271 z m 128.6899,70.0445 c -1.7495,-0.4642 -2.6938,-2.7333 -3.0616,-7.3563 -0.5005,-6.294 -0.2762,-6.7364 3.8343,-7.5585 2.4012,-0.4801 4.9835,-0.4913 5.7385,-0.024 1.5646,0.9668 1.7752,7.4237 0.4085,12.5236 -0.9087,3.3904 -1.9183,3.7429 -6.9197,2.4159 z m 230.85,-38.5005 c -4.8379,-1.3233 -8.7962,-2.8856 -8.7962,-3.4718 0,-1.7755 28.3732,-28.0473 43.3335,-40.124 17.4382,-14.0773 37.1585,-27.3096 56.1026,-37.6447 l 14.5329,-7.9286 -15.2979,0.9975 c -26.9022,1.7542 -34.6618,3.7558 -88.7276,22.8873 -13.4621,4.7636 -32.3932,10.7918 -42.0691,13.3957 -15.8749,4.2723 -19.8326,4.7421 -40.5393,4.8099 -25.6204,0.084 -47.071,-3.0969 -76.3164,-11.3175 -24.1729,-6.7946 -32.0404,-11.0025 -45.3015,-24.2289 -13.2763,-13.2417 -12.6545,-14.2895 5.5363,-9.3285 16.9612,4.6261 46.5077,5.6554 68.6583,2.3922 9.2552,-1.3635 30.5958,-5.613 47.4233,-9.4432 71.6509,-16.3089 92.3419,-19.0273 122.5816,-16.1052 17.5347,1.6945 54.4907,9.1482 75.9992,15.3284 l 10.4168,2.9932 23.5936,-6.0196 c 39.7668,-10.1455 56.542,-12.6974 83.3095,-12.6731 27.3945,0.024 39.9129,1.8632 86.4328,12.6924 57.3176,13.3427 64.3995,14.4444 93.31694,14.5147 22.78704,0.054 27.75489,-0.3974 40.13164,-3.6589 7.76882,-2.0473 14.61494,-3.2324 15.21363,-2.6337 2.12932,2.1292 -19.91992,22.4476 -29.33895,27.0356 -21.83172,10.6341 -73.44116,21.3894 -102.63746,21.3894 -22.3663,0 -48.319,-6.5646 -100.3542,-25.3841 -31.5803,-11.4219 -47.6798,-15.229 -70.4334,-16.6566 l -15.7043,-0.9854 14.0592,7.5891 c 19.3661,10.4538 36.7021,21.9804 54.8893,36.4958 15.8811,12.6747 45.0205,39.7105 45.0205,41.7702 0,1.0612 -17.6299,6.1241 -21.325,6.1241 -0.8659,0 -13.4599,-11.1002 -27.9867,-24.667 -45.8374,-42.808 -63.8978,-56.4787 -82.4333,-62.3979 -4.7253,-1.5089 -6.8132,-1.2912 -14.2326,1.4847 -17.0767,6.3892 -30.4224,16.7978 -77.6213,60.5386 -16.1621,14.9778 -28.1504,24.9601 -29.8308,24.8387 -1.5451,-0.1118 -6.7677,-1.2857 -11.6056,-2.6088 z m 731.79398,-35.0505 c -8.34376,-6.9273 -3.3608,-20.7794 7.47479,-20.7794 7.05139,0 12.89228,6.7315 11.61001,13.3802 -1.12804,5.8482 -5.99961,10.0764 -11.61001,10.0764 -2.3376,0 -5.70134,-1.2048 -7.47479,-2.6772 z M -1850.2547,1374.687 c -1.6828,-0.4047 -3.6017,-1.2456 -4.2644,-1.8687 -0.6627,-0.6231 1.4849,-8.645 4.7726,-17.8265 5.46,-15.2483 6.29,-16.6567 9.5863,-16.2672 1.9846,0.2345 4.2477,1.0654 5.0289,1.8467 1.8031,1.8032 -8.174,35.277 -10.441,35.029 -0.8925,-0.098 -2.9996,-0.5085 -4.6824,-0.9133 z m 1199.06904,-5.006 c -7.52591,-3.1063 -9.03322,-14.7151 -2.57076,-19.7986 2.21679,-1.7437 5.5661,-3.1706 7.44266,-3.1706 5.78415,0 11.4734,5.6603 11.4734,11.415 0,8.9294 -8.37001,14.846 -16.3453,11.5542 z M -1885.283,1351.4616 c -6.029,-6.1741 -6.4822,-9.9483 -1.6745,-13.9384 1.7329,-1.4379 3.0344,-1.1505 6.2529,1.3812 l 4.0644,3.1972 5.544,-3.1477 c 3.049,-1.7312 11.8493,-8.1283 19.556,-14.2159 l 14.0122,-11.0685 -7.5548,-9.7219 -7.5548,-9.7221 3.4862,-3.7231 3.4861,-3.723 5.9277,6.6371 c 17.5088,19.6043 36.1384,42.9641 36.118,45.2884 -0.04,4.4895 -2.4132,6.8813 -5.7712,5.8154 -1.7144,-0.5441 -7.0468,-5.4653 -11.8496,-10.9358 -7.7136,-8.7859 -9.0455,-9.716 -11.4146,-7.9706 -1.4751,1.0866 -10.8224,8.6877 -20.7716,16.8911 -20.9683,17.2891 -23.1275,17.8961 -31.8564,8.9566 z m -9.8306,-27.8654 0.4951,-5.1853 11.7581,-1.0663 c 6.7649,-0.6134 14.2845,-2.3552 17.7074,-4.1015 l 5.9493,-3.0353 2.7891,4.7213 c 2.6096,4.418 2.6227,4.8427 0.2027,6.6122 -1.4221,1.0399 -8.2361,2.6952 -15.1419,3.6787 -6.9059,0.9831 -15.1884,2.1868 -18.4057,2.6746 l -5.8496,0.887 z m 297.2734,2.4014 c -22.0673,-2.9034 -35.1514,-6.2848 -48.1882,-12.4536 -9.5974,-4.5413 -14.2247,-8.2162 -28.301,-22.476 -14.7622,-14.9548 -43.3716,-48.7868 -50.654,-59.901 -4.3384,-6.6216 -1.2479,-5.8739 8.9957,2.1763 18.7991,14.7737 32.0503,19.7244 84.4923,31.5658 22.972,5.187 43.2263,12.7246 69.1951,25.7503 24.4154,12.2465 39.0002,16.6 53.4931,15.9674 l 10.403,-0.4543 -12.2381,-5.8641 c -25.1275,-12.04 -28.2988,-13.8179 -38.5071,-21.5881 -5.7455,-4.3732 -14.4675,-12.7209 -19.3825,-18.5505 -15.8462,-18.7945 -28.5433,-50.6924 -28.5433,-71.7064 0,-5.1057 -0.6255,-11.4641 -1.39,-14.1297 -0.7645,-2.6657 -1.0693,-5.1672 -0.6774,-5.5591 0.6817,-0.6816 20.6016,18.1027 52.5832,49.5861 14.3075,14.0846 15.3836,15.6214 26.3802,37.6758 6.3055,12.6458 13.096,25.2139 15.09,27.9289 1.994,2.7153 9.9612,10.0411 17.7048,16.2797 7.7435,6.2389 14.496,12.0178 15.0056,12.8422 0.5551,0.8982 -2.0225,1.5113 -6.4302,1.5293 -11.3551,0.048 -26.3392,2.5683 -49.9261,8.4013 -24.3342,6.0179 -40.663,6.722 -69.1051,2.9797 z m 566.857,-3.0624 c -18.9611,-4.8442 -35.9316,-7.7275 -51.3194,-8.7193 l -6.1192,-0.3944 15.0089,-11.9979 c 17.9702,-14.3654 21.3797,-18.8117 34.1149,-44.4868 11.9078,-24.0077 18.0332,-32.3351 34.5448,-46.9632 6.98939,-6.192 19.74736,-18.3208 28.35106,-26.9524 8.6036,-8.6319 16.07865,-15.6942 16.61102,-15.6942 0.53237,0 0.48876,1.8932 -0.0964,4.207 -0.58582,2.3137 -1.39677,10.0021 -1.80212,17.0853 -0.9049,15.8138 -6.07818,32.9019 -15.55259,51.3725 -5.39356,10.515 -9.9647,16.6998 -19.34609,26.1754 -14.19098,14.3332 -19.10828,17.6842 -45.17448,30.7847 l -19.1223,9.6108 14.533,-0.6314 c 17.4641,-0.7586 23.6172,-2.7884 55.23412,-18.2215 27.01406,-13.1862 43.81074,-19.0977 70.47766,-24.8041 42.4916,-9.0928 60.188,-15.949 77.66523,-30.0906 5.20748,-4.2135 9.86705,-7.2621 10.35452,-6.7747 2.41211,2.4121 -28.73873,40.9312 -52.26651,64.6292 -14.03932,14.1407 -18.84974,17.951 -28.41593,22.5075 -13.48967,6.4251 -26.17755,9.5996 -50.35852,12.5992 -28.66005,3.5555 -43.51807,2.8401 -67.32117,-3.2411 z m -764.6201,-3.2556 c -1.5139,-0.6089 -18.7023,-21.1038 -28.2411,-33.6742 -1.7032,-2.2445 3.0501,-9.9994 5.7312,-9.3506 2.9975,0.7252 31.3447,35.2908 31.3447,38.2204 0,2.1673 -4.5034,6.1842 -6.401,5.7096 -0.2658,-0.066 -1.361,-0.4738 -2.4338,-0.9052 z m -122.36,-9.4246 c -2.2544,-1.7131 -3.0749,-3.5588 -2.4943,-5.6122 0.4757,-1.6828 9.2376,-9.7322 19.4711,-17.8875 10.2335,-8.1555 26.7386,-21.4073 36.6781,-29.4485 9.9394,-8.0411 19.3786,-14.6202 20.9758,-14.6202 3.1873,0 26.5187,27.6139 24.7204,29.2578 -0.5758,0.5263 -8.8138,3.5164 -18.3071,6.6447 l -17.2604,5.6881 -4.4696,8.8541 c -5.0013,9.9076 -16.8,19.9254 -23.4682,19.9254 -2.154,0 -5.8008,-1.6209 -8.1041,-3.602 -3.9256,-3.3766 -4.0628,-3.9028 -2.1944,-8.4137 2.3697,-5.721 2.6845,-5.7844 7.2823,-1.4648 2.9192,2.7422 4.3105,3.0841 7.7002,1.892 4.3572,-1.5324 6.2676,-4.5309 10.3217,-16.2021 2.4657,-7.0989 2.5599,-7.1697 16.9348,-12.7394 7.9505,-3.0806 14.4553,-6.09 14.4553,-6.6875 0,-0.5973 -1.8931,-3.2532 -4.2069,-5.9015 l -4.2069,-4.8152 -32.8904,27.4589 c -18.0897,15.1022 -33.945,28.0815 -35.2342,28.8426 -1.5801,0.9328 -3.4387,0.5518 -5.7032,-1.169 z m 593.9546,-18.864 c -33.0129,-3.7175 -75.1501,-14.6345 -106.32,-27.5454 -89.0387,-36.8808 -168.8154,-112.5284 -200.4059,-190.0326 l -5.68,-13.9358 -143.635,-0.7649 -143.6348,-0.7648 -9.5289,-5.8279 c -31.8018,-19.45 -64.6657,-52.5039 -64.6657,-65.03997 0,-3.46764 5.1207,-10.33365 9.4247,-12.6371 2.3637,-1.26501 3.6813,-1.08715 5.7386,0.77449 2.3999,2.17202 19.9677,2.41659 173.5033,2.41659 h 170.8329 v 4.58944 4.58934 h -172.8657 c -149.62,0 -172.8657,0.29685 -172.8657,2.20794 0,1.21438 1.5301,3.27954 3.4001,4.5893 3.0275,2.12062 21.9452,2.38153 172.6894,2.38153 h 169.2894 l 1.0099,8.79624 c 8.0246,69.8969 50.0926,138.2929 119.2264,193.843 51.8668,41.676 112.202,68.1843 181.4839,79.7348 19.6452,3.2754 73.0322,4.5754 95.0647,2.315 73.633,-7.5539 142.1249,-35.1432 199.1418,-80.2163 36.5368,-28.8832 70.35307,-67.1158 91.0209,-102.9075 14.03932,-24.3128 27.69229,-65.2621 30.18144,-90.5231 l 1.08797,-11.04214 h 170.13643 c 162.88237,0 170.24412,-0.11938 172.6679,-2.79754 1.39253,-1.53864 2.5318,-3.6039 2.5318,-4.58933 0,-1.35868 -41.79083,-1.7919 -172.86556,-1.7919 h -172.8659 v -4.58934 -4.58944 h 170.99574 c 153.11774,0 171.35488,-0.25179 174.43435,-2.40864 3.26927,-2.2901 3.70086,-2.14671 8.75421,2.90656 3.59205,3.59222 5.31524,6.73541 5.31524,9.69571 0,12.68876 -32.63354,45.00256 -65.66974,65.02616 l -8.40447,5.0941 -143.63791,0.7648 -143.6378,0.7649 -3.61261,9.6104 c -21.91325,58.2938 -80.96719,125.2956 -146.01319,165.6642 -47.603,29.543 -108.7618,50.3973 -165.5115,56.4366 -17.601,1.8734 -68.7652,1.756 -86.1107,-0.1974 z m 653.21839,-41.803 c -17.66903,-18.8745 -32.7597,-34.3445 -33.53482,-34.3775 -0.7752,-0.034 -2.72091,1.127 -4.32398,2.5777 -2.77853,2.5145 -3.05071,2.4607 -5.82311,-1.1474 -3.84576,-5.0047 -3.79662,-5.4272 2.11128,-18.1821 l 5.0877,-10.9843 40.02015,40.6202 40.01989,40.6202 -4.69962,7.638 c -2.58492,4.2009 -5.15706,7.6188 -5.71585,7.5952 -0.55888,-0.024 -15.4727,-15.4855 -33.14164,-34.36 z m -627.97689,19.6975 c -116.1204,-7.5457 -215.7645,-62.7994 -283.8465,-157.3957 -26.4024,-36.6851 -41.1899,-80.7826 -41.0392,-122.38274 0.078,-21.60484 2.4893,-35.75683 8.7198,-51.18192 12.1916,-30.18324 37.6748,-55.41125 71.9843,-71.26322 11.0604,-5.11024 11.6038,-5.59132 9.9277,-8.79099 -0.9754,-1.86178 -9.3148,-15.25992 -18.5322,-29.77375 l -16.7589,-26.38878 h -305.0408 c -300.929,0 -305.0406,0.0398 -305.0406,2.96928 0,1.63304 0.8605,3.52617 1.9122,4.2069 1.0517,0.68064 137.1608,1.58182 302.4645,2.00246 l 300.5522,0.76492 13.2545,20.62517 13.2547,20.625 -10.4424,5.6662 c -5.7435,3.1165 -14.0854,8.1195 -18.5381,11.11804 l -8.0953,5.45169 h -265.587 -265.5872 l -13.1363,-8.24721 c -34.7433,-21.81245 -63.8199,-50.7984 -63.8199,-63.62073 0,-7.86296 9.7372,-16.25041 14.3862,-12.39221 1.4255,1.18314 75.9626,1.54936 259.262,1.27372 l 257.2611,-0.38687 7.4308,-22.18187 c 27.8097,-83.01598 84.8107,-156.69823 158.477,-204.85507 71.6922,-46.8662 163.7233,-70.3534 246.2954,-62.85686 91.1838,8.27841 168.2895,41.47169 234.6077,100.99623 48.65631,43.67205 89.12187,105.46477 109.56293,167.30757 l 7.38896,22.35493 h 257.44177 c 169.97728,0 257.76249,-0.51968 258.38683,-1.52985 3.06902,-4.96577 14.53292,4.45767 14.53292,11.94627 0,13.48639 -32.43958,45.31434 -68.02573,66.74329 l -9.04833,5.44866 h -265.07752 -265.07762 l -10.37376,-6.68628 c -5.70549,-3.67738 -13.98794,-8.50775 -18.40515,-10.73413 -4.4173,-2.22645 -8.0088,-4.55283 -7.9812,-5.16965 0.028,-0.61691 5.7592,-10.07084 12.73731,-21.00884 l 12.6874,-19.8872 300.48621,-0.76492 c 165.26712,-0.42064 301.34639,-1.32182 302.3981,-2.00246 1.05169,-0.68073 1.91221,-2.57386 1.91221,-4.2069 0,-2.92921 -4.10932,-2.96928 -304.82402,-2.96928 -288.63623,0 -304.91522,0.14223 -306.53773,2.67706 -13.03518,20.36482 -29.74218,46.70653 -32.41678,51.11075 l -3.4005,5.59953 15.7203,7.59766 c 18.35178,8.86923 27.34467,15.09603 40.79435,28.2465 26.16038,25.5787 38.34714,59.05003 36.34218,99.81602 -1.93761,39.39758 -15.06131,76.81428 -39.43744,112.43928 -58.08269,84.8865 -153.82679,143.4158 -256.34409,156.7056 -17.6479,2.2875 -53.9134,3.885 -67.7673,2.9847 z m 13.7681,-36.2609 v -26.4892 l -20.0848,-1.8812 c -42.6912,-3.9984 -78.7896,-14.2901 -115.9419,-33.0552 -19.7389,-9.9698 -51.3106,-32.2221 -67.073,-47.2742 l -6.5222,-6.2286 -19.0201,18.9744 c -10.4611,10.4359 -18.6415,19.5867 -18.179,20.3352 2.5561,4.1358 37.3516,32.1516 51.8255,41.7274 55.4218,36.667 124.432,59.5514 181.6099,60.2237 l 13.3856,0.1573 z m 65.8369,22.0582 c 50.0267,-8.6567 96.5222,-27.149 138.7175,-55.1715 16.8966,-11.2213 42.8187,-31.8044 50.5005,-40.0995 l 3.4055,-3.6772 -18.9453,-18.8997 -18.9452,-18.8997 -8.1719,7.6537 c -24.091,22.5638 -64.9135,47.9125 -96.0416,59.6368 -5.418,2.0406 -12.1539,5.7322 -14.9687,8.2036 -5.7833,5.0781 -6.9656,5.3737 -9.4608,2.3671 -1.4988,-1.8058 -3.4276,-1.7002 -12.8079,0.7019 -14.3378,3.6715 -36.4871,7.1098 -54.26,8.4228 l -14.1506,1.0452 v 26.8065 26.8064 l 18.74,-0.9212 c 10.3069,-0.5067 26.6818,-2.2957 36.3885,-3.9752 z m -65.8369,-91.151 c 0,-36.1012 2.2338,-32.0766 -18.6249,-33.5574 -31.5318,-2.2386 -72.3282,-16.2327 -100.3674,-34.4284 -5.2872,-3.4308 -9.8693,-6.238 -10.1829,-6.238 -0.3135,0 -0.248,1.2318 0.1453,2.7372 1.3216,5.0542 -4.7105,8.3986 -16.9532,9.4 -7.5555,0.6181 -12.3057,1.8088 -14.2558,3.5736 -1.9061,1.7249 -5.4481,2.6467 -10.1711,2.6467 -7.6156,0 -11.8653,-1.5675 -17.0738,-6.2973 -3.0976,-2.8129 -3.23,-2.7677 -8.9114,3.0506 l -5.7671,5.906 10.4412,9.3076 c 50.1059,44.6651 119.5336,72.673 185.9839,75.0276 l 5.7367,0.2032 z m 32.3459,29.7634 c 16.482,-1.6313 36.1721,-4.9157 46.0795,-7.6864 l 5.7608,-1.6113 -4.231,-3.5305 c -2.3269,-1.942 -6.3035,-4.5927 -8.8367,-5.8908 -2.5333,-1.298 -7.6104,-5.9232 -11.2824,-10.278 -6.1393,-7.2805 -6.6064,-8.4319 -5.8021,-14.3004 0.7053,-5.1451 0.056,-7.8654 -3.3432,-14.0314 -2.3199,-4.2068 -4.9722,-7.4981 -5.8942,-7.3141 -0.9219,0.184 -7.42,0.7433 -14.4402,1.2426 -22.053,1.5688 -19.648,-2.5489 -19.648,33.6369 0,29.7273 0.1484,31.3314 2.8977,31.3314 1.5935,0 10.0265,-0.7055 18.7398,-1.568 z m 150.9901,-57.7748 c 6.3683,-4.793 15.5886,-12.4268 20.4894,-16.9639 8.4874,-7.8578 8.7879,-8.3852 6.3309,-11.1002 -1.4189,-1.5677 -3.8841,-2.8505 -5.4781,-2.8505 -5.7187,0 -11.5391,-4.4848 -14.7866,-11.3935 -1.7919,-3.8118 -3.2578,-7.4758 -3.2578,-8.1424 0,-0.6666 -4.1346,-5.3033 -9.188,-10.3041 l -9.1879,-9.0921 -4.7434,4.7434 c -5.6043,5.6042 -5.232,8.1458 2.5595,17.4714 6.2641,7.4977 6.5402,11.0665 1.4375,18.5757 -3.233,4.7579 -3.8244,7.3895 -3.8244,17.0192 0,8.7139 -0.5394,11.5978 -2.2948,12.2713 -2.6412,1.0137 -3.2572,11.6852 -0.6747,11.6852 0.8911,0 1.1054,0.8331 0.476,1.8514 -1.7149,2.7746 9.0735,-3.9349 22.1424,-13.7709 z m -419.4726,-6.6528 18.6168,-18.572 -15.1015,-17.4211 c -8.3059,-9.5817 -16.2625,-19.868 -17.6815,-22.8585 -2.361,-4.9751 -3.0017,-5.358 -7.5406,-4.5066 -4.4257,0.8303 -5.4719,0.2844 -9.7092,-5.0657 -2.612,-3.2979 -4.7491,-6.6226 -4.7491,-7.3881 0,-2.8887 -10.2261,-11.1509 -14.9773,-12.1011 -3.4988,-0.6998 -5.2165,-2.0536 -5.8606,-4.6192 -0.7594,-3.0258 -1.8813,-3.6293 -6.7468,-3.6293 -3.895,0 -7.274,-1.2023 -10.1601,-3.6151 -2.3783,-1.9884 -6.0427,-4.1537 -8.1429,-4.812 -2.1001,-0.6583 -4.6254,-2.3003 -5.6117,-3.6489 -3.47,-4.7459 -4.1205,0.023 -1.4952,10.9615 6.1271,25.5342 21.2226,55.7515 41.2367,82.5444 10.3537,13.8606 26.9647,33.304 28.4527,33.304 0.4695,0 9.2312,-8.3575 19.4703,-18.5723 z m 514.5533,6.0197 c 12.03421,-13.9035 25.51819,-32.32 33.93138,-46.3442 33.78308,-56.313 38.01502,-117.25253 11.20743,-161.38256 -7.88946,-12.98744 -9.54987,-13.9065 -10.55805,-5.84391 -3.59603,28.762 -4.83348,36.12904 -8.56051,50.96275 -7.0931,28.23102 -19.61915,58.46712 -34.85655,84.13822 -6.9771,11.7547 -29.1891,41.4782 -35.3668,47.3271 -2.6103,2.4713 -4.7459,5.2145 -4.7459,6.0962 0,1.7715 35.2502,37.599 36.9931,37.599 0.5999,0 5.9801,-5.6486 11.9559,-12.5526 z m -278.4167,-22.6325 c 0,-7.8721 -1.2701,-9.3539 -4.5893,-5.3543 -2.6955,3.2479 -16.1492,2.8984 -23.7117,-0.6162 -10.8361,-5.0356 -24.4135,-22.8363 -21.2826,-27.9023 0.5481,-0.8871 0.9521,-6.3437 0.8977,-12.1262 -0.09,-9.5195 0.2718,-10.8049 3.8212,-13.597 3.6078,-2.8377 3.6923,-3.162 1.0632,-4.0704 -17.4367,-6.0256 -37.3384,-17.1645 -51.9912,-29.0992 l -8.6118,-7.0145 -20.425,20.3831 c -20.2414,20.1996 -20.3993,20.4109 -17.5496,23.5011 1.5815,1.715 3.9812,5.8014 5.333,9.0806 2.7644,6.7073 3.091,7.0061 20.0176,18.3274 22.1314,14.8025 47.6787,25.6698 73.9835,31.4714 16.8084,3.707 20.1239,4.1566 32.719,4.4363 l 10.326,0.229 z m 39.4046,5.4691 c 1.8651,-1.865 -2.147,-6.1676 -8.9709,-9.6208 -5.1565,-2.6094 -8.2362,-3.1877 -13.2236,-2.483 l -6.5017,0.9184 v 6.8948 6.8948 l 13.8348,-0.7888 c 7.6091,-0.4338 14.2969,-1.2507 14.8614,-1.8154 z m -242.8661,-21.5319 c 2.8543,-2.9449 4.5383,-5.4017 3.7423,-5.4596 -1.9864,-0.1453 -8.7586,-1.0808 -10.6263,-1.4688 -2.3607,-0.4905 -4.3792,-0.041 -6.8571,1.5252 -1.8938,1.1974 -1.5311,2.203 2.1984,6.0958 2.4565,2.5639 4.8908,4.6617 5.4096,4.6617 0.5192,0 3.279,-2.4095 6.1331,-5.3543 z m 430.9024,-1.1472 c 16.1498,-16.7758 33.2059,-42.7637 47.1235,-71.8008 15.11641,-31.53826 23.78677,-63.44151 27.04481,-99.51465 l 1.89477,-20.97731 -3.62962,-3.8633 c -3.62297,-3.85673 -3.67816,-3.86347 -31.44496,-3.86347 h -27.8159 l -1.0761,15.68029 c -3.5099,51.13671 -21.014,95.54874 -53.2787,135.17894 l -10.1065,12.4135 6.7275,6.6024 c 6.4543,6.3347 6.846,6.495 9.6518,3.9559 2.4035,-2.1751 2.699,-3.6476 1.6576,-8.2647 -0.6969,-3.0898 -1.0275,-5.8573 -0.7349,-6.15 1.3797,-1.3797 12.7044,6.0417 15.9484,10.4516 3.3245,4.5193 3.5687,5.9852 2.7633,16.5982 -0.8398,11.0632 -0.6836,11.8499 3.1411,15.848 2.2135,2.3138 4.441,4.2069 4.9497,4.2069 0.5088,0 3.7417,-2.9258 7.1842,-6.5015 z m -68.3433,-35.5676 c 1.0978,-1.3226 1.2465,-2.2947 0.3511,-2.2947 -0.8544,0 -1.9497,1.0327 -2.434,2.2947 -0.4844,1.262 -0.6422,2.2946 -0.351,2.2946 0.2913,0 1.3865,-1.0326 2.4339,-2.2946 z m 18.8242,-20.2697 c 30.9282,-38.7228 47.3089,-80.37718 50.8342,-129.26685 l 1.0757,-14.91538 h -26.9533 c -14.8243,0 -26.9532,0.60412 -26.9532,1.34253 0,0.73825 1.0327,2.19935 2.2947,3.24682 1.2621,1.04739 2.2947,3.96521 2.2947,6.48397 0,4.68953 6.8634,15.41994 14.3335,22.40942 l 3.9031,3.6519 -4.1465,3.1463 c -2.2806,1.73061 -6.764,5.45307 -9.9632,8.27226 -8.1576,7.18874 -12.5935,8.62813 -18.1099,5.87621 -4.2223,-2.10631 -4.688,-2.00285 -8.6258,1.91574 -2.2893,2.2784 -6.8982,9.84194 -10.242,16.80776 l -6.0797,12.66543 4.9324,3.8601 c 4.3973,3.44159 4.9322,4.6992 4.9322,11.59562 0,4.43427 -1.6565,12.32757 -3.8813,18.49567 -2.7768,7.6977 -3.4118,11.2299 -2.231,12.4104 1.1806,1.1808 2.0013,1.0827 2.8834,-0.3446 0.6783,-1.0973 3.5058,-2.0598 6.2834,-2.1389 6.9853,-0.1985 9.6638,3.7316 8.4011,12.3269 -0.7531,5.1254 -0.3725,7.3035 1.6706,9.561 1.4552,1.6081 3.198,2.9239 3.8726,2.9239 0.6748,0 4.9382,-4.6469 9.4743,-10.3262 z m -310.774,-13.6242 20.9307,-20.8906 -7.2977,-9.01912 c -13.5338,-16.72634 -24.8306,-40.10535 -30.7262,-63.58932 -1.589,-6.3293 -1.7491,-6.4647 -4.9726,-4.2069 -4.7682,3.33983 -13.3727,3.11728 -13.3098,-0.3442 0.025,-1.47241 1.0594,-4.01338 2.2947,-5.64659 1.2353,-1.63321 2.246,-4.8188 2.246,-7.07919 0,-2.26023 1.1116,-5.03211 2.47,-6.15954 2.1177,-1.7574 2.8817,-1.54176 5.3544,1.51188 l 2.8841,3.56192 v -4.56759 c 0,-2.51221 -0.4301,-6.71885 -0.9561,-9.34824 -0.8306,-4.15353 -1.5952,-4.78054 -5.8286,-4.78054 -3.4121,0 -6.3638,1.4579 -9.8473,4.86362 -5.738,5.61006 -19.8813,15.02357 -22.5717,15.02357 -1.005,0 -3.327,3.09777 -5.16,6.88404 -3.399,7.02151 -6.1192,8.93685 -6.1192,4.3088 0,-4.00406 6.2112,-20.67907 9.3855,-25.19709 1.569,-2.23338 2.8528,-4.47063 2.8528,-4.97183 0,-0.50111 -6.2473,-0.91111 -13.8827,-0.91111 h -13.8829 l 1.0451,14.15054 c 1.2088,16.36714 1.6399,17.01533 16.0121,24.06775 16.8141,8.25093 18.9826,9.50885 23.3292,13.53212 2.6505,2.45352 4.2069,5.47077 4.2069,8.15561 0,2.34366 1.6594,7.89412 3.6874,12.33458 5.18,11.34092 5.8637,16.48686 2.1904,16.48686 -2.3593,0 -2.6978,0.75639 -1.8818,4.20695 0.5473,2.31387 2.2303,5.58375 3.7403,7.26653 1.51,1.68278 3.2169,4.95929 3.7933,7.28099 0.5761,2.3218 1.6598,4.5997 2.4079,5.0621 0.7483,0.4623 1.3603,6.9113 1.3603,14.3312 0,10.1252 -0.5724,13.9655 -2.2947,15.3948 -1.262,1.0475 -2.2947,2.875 -2.2947,4.0611 0,1.9697 4.7051,4.7839 8.3942,5.0207 0.8304,0.053 10.9287,-9.3039 22.4407,-20.7938 z m -22.2286,-65.45178 c -5.9025,-5.90233 -8.1198,-12.87501 -5.5947,-17.5931 3.9245,-7.3329 9.8029,-2.29285 12.7328,10.91682 3.0754,13.86382 1.5119,15.32615 -7.1381,6.67628 z m 126.8027,77.68728 c 1.7208,-1.7208 2.2204,-3.811 1.5545,-6.5016 -2.6875,-10.8548 1.4249,-16.9428 17.0503,-25.2408 7.9114,-4.2016 8.9645,-5.3188 9.4086,-9.98254 1.1078,-11.6287 -3.8889,-20.9441 -6.6193,-12.34113 -0.534,1.68278 -2.3014,3.05966 -3.9275,3.05966 -2.272,0 -2.9566,-1.07381 -2.9566,-4.63742 0,-2.71098 0.9534,-5.00318 2.2947,-5.51792 4.17,-1.60016 2.4056,-3.09484 -7.0235,-5.94968 -5.1249,-1.55171 -13.6379,-5.71853 -18.9179,-9.25975 l -9.6003,-6.43837 -24.8132,24.84747 -24.8134,24.84758 6.6341,5.6998 c 10.6415,9.1424 28.2127,19.4317 42.4125,24.8355 15.3533,5.8428 15.9709,5.9253 19.317,2.5792 z m 164.4289,-3.5437 c 0,-4.2094 -24.0579,-10.4206 -36.3323,-9.3803 -3.1699,0.2689 -2.1467,3.2218 1.1164,3.2218 1.6657,0 5.7977,1.108 9.1823,2.4621 5.1186,2.0482 14.9149,4.077 24.1214,4.9959 1.0517,0.1056 1.9122,-0.4797 1.9122,-1.2995 z m -141.1226,-2.421 c 3.5543,-0.7329 4.9718,-1.8737 4.9718,-4.0014 0,-1.6368 -0.5742,-2.6212 -1.2762,-2.1876 -0.7018,0.4339 -4.8291,1.137 -9.1716,1.5625 -9.7198,0.9525 -15.4554,3.6013 -12.3232,5.691 2.0575,1.3727 7.5817,1.0422 17.7992,-1.0645 z m 59.5798,-7.6671 c 6.9225,-4.698 19.6084,-6.3957 23.2387,-3.1103 3.2849,2.9725 4.6705,3.0016 8.4024,0.1757 2.7529,-2.0843 2.671,-2.35 -1.9122,-6.2065 -2.6335,-2.2159 -4.7881,-5.022 -4.7881,-6.2357 0,-1.2135 -1.0325,-2.6029 -2.2946,-3.0871 -1.2622,-0.4845 -2.2948,-1.8395 -2.2948,-3.0117 0,-3.65946 -3.6489,-2.3684 -7.9901,2.8271 l -4.1659,4.9856 -0.041,-4.2278 c -0.024,-2.325 -0.877,-5.5659 -1.8987,-7.20155 -1.5727,-2.51849 -1.2798,-3.59472 1.9123,-7.02551 2.0733,-2.22846 5.4442,-4.69787 7.4909,-5.48762 l 3.7214,-1.43564 -4.0621,-4.06209 -4.062,-4.06199 -3.6965,3.47258 c -3.1589,2.96762 -4.5515,6.16802 -6.4105,14.73173 -0.1827,0.84144 -0.4115,2.30145 -0.5085,3.24442 -0.096,0.94306 -4.479,2.22467 -9.7377,2.84807 -7.1331,0.8456 -8.7841,1.4512 -6.5015,2.3849 1.6829,0.6881 5.469,1.309 8.4139,1.3796 11.896,0.2854 13.9749,2.2501 10.4847,9.9103 -1.9041,4.1789 -4.3657,3.8916 -4.3657,-0.5094 0,-2.3739 -1.9574,-2.8811 -14.5276,-3.7646 -7.99,-0.5619 -16.4043,-0.5504 -18.6981,0.025 -4.7861,1.2012 -9.4829,6.1771 -9.5573,10.1256 -0.048,2.5226 0.32,2.5426 5.668,0.3081 7.294,-3.0474 11.973,-1.8459 14.9073,3.8282 2.2345,4.3211 2.6313,4.4585 10.2695,3.5539 4.3697,-0.5177 10.2215,-2.4858 13.0037,-4.3739 z m -133.3857,-52.67863 c 21.474,-21.50569 24.2176,-24.80763 22.5618,-27.15367 -1.0369,-1.46904 -3.5232,-5.73406 -5.525,-9.47793 -3.3663,-6.29554 -3.7227,-6.54578 -4.743,-3.33144 -0.6468,2.03804 -1.9487,3.15105 -3.1476,2.69104 -1.1246,-0.43151 -2.8787,0.22029 -3.8983,1.44876 -1.2448,1.49997 -3.4164,1.94261 -6.6134,1.34816 -2.8095,-0.52245 -7.0946,0.0949 -10.4584,1.50471 -5.6135,2.35435 -5.7376,2.33017 -8.3255,-1.61957 -1.4448,-2.20521 -5.4205,-5.21923 -8.8346,-6.69786 -3.414,-1.47854 -8.2059,-4.56017 -10.6488,-6.84794 -3.5111,-3.28827 -5.3963,-3.96839 -9.0008,-3.24759 -3.6414,0.7283 -5.3101,0.10095 -8.2885,-3.11185 -5.5394,-5.97724 -6.7755,-2.93266 -4.0858,10.06333 2.9092,14.0552 8.2195,28.37682 15.3031,41.27102 5.6442,10.27388 18.3254,27.64362 20.182,27.64362 0.5916,0 12.0769,-11.01729 25.5228,-24.48279 z m -243.1769,18.33562 c 5.307,-2.27476 7.7308,-2.64948 9.2077,-1.42367 2.2349,1.85468 6.4314,0.21605 9.7801,-3.81916 1.0855,-1.30787 4.2366,-2.37811 7.0023,-2.37811 h 5.0284 l -2.1843,-8.0314 c -3.4065,-12.52441 -8.2473,-41.9681 -8.2473,-50.16229 0,-4.07349 -0.6455,-7.80553 -1.4347,-8.29326 -3.6793,-2.27403 -19.2962,27.56155 -23.591,45.06983 -2.6168,10.66834 -5.0359,32.12561 -3.6217,32.12561 0.4716,0 4.099,-1.38935 8.0605,-3.08755 z m 444.3374,-1.6412 c 0,-0.71179 -1.0326,-0.89805 -2.2947,-0.41383 -1.2621,0.48439 -2.2946,1.92369 -2.2946,3.19884 0,1.88725 0.4265,1.96433 2.2946,0.41394 1.2621,-1.04741 2.2947,-2.48697 2.2947,-3.19895 z m -385.7673,-4.59721 c 14.1399,-2.05109 15.1652,-2.8986 15.9908,-13.219 1.3612,-17.01687 8.0689,-32.70616 17.0254,-39.82291 3.2235,-2.56118 3.2866,-3.18723 1.9225,-19.09317 l -1.4101,-16.44523 h -27.2567 c -26.4616,0 -27.3797,0.10553 -31.4673,3.62176 l -4.2105,3.62177 1.8584,19.70741 c 1.8956,20.10144 5.6368,40.89517 10.1525,56.42842 2.0558,7.07192 3.0004,8.48188 5.117,7.63921 1.4277,-0.56848 6.9529,-1.66568 12.278,-2.43826 z m 280.2121,-8.32048 c 0,-0.39099 -1.3767,-0.71105 -3.0595,-0.71105 -1.7311,0 -3.0597,1.01988 -3.0597,2.34859 0,1.87435 0.6177,2.01793 3.0597,0.71097 1.6828,-0.90052 3.0595,-1.95733 3.0595,-2.34851 z m 12.2384,-1.47585 c 2.1149,-2.54848 1.159,-2.75594 -6.0513,-1.31399 -3.4511,0.69021 -4.3009,1.36316 -2.8684,2.27127 3.1205,1.97826 6.8121,1.58205 8.9197,-0.95728 z m -22.9469,-12.47634 c 0,-1.39305 1.6376,-4.67972 3.6389,-7.30352 2.0014,-2.62405 4.9271,-8.43445 6.5017,-12.91218 3.0503,-8.67492 7.6252,-12.43667 15.1255,-12.43667 7.7395,0 9.4774,-2.1945 10.5654,-13.34157 0.5566,-5.70351 1.3617,-12.16976 1.7885,-14.36945 0.5616,-2.89174 -0.4028,-5.40074 -3.4822,-9.06059 -3.8543,-4.58047 -4.211,-5.994 -3.7541,-14.87712 0.4712,-9.163 0.1681,-10.23905 -4.5567,-16.18072 -2.7838,-3.50095 -5.6034,-6.59458 -6.2656,-6.87506 -0.662,-0.28056 -1.204,-1.48519 -1.204,-2.67705 0,-1.19202 -1.141,-2.16731 -2.5358,-2.16731 -1.3946,0 -6.199,-2.8261 -10.676,-6.28016 -7.0825,-5.46396 -7.9296,-6.67387 -6.5191,-9.30972 2.1457,-4.00942 1.6893,-4.25371 -6.015,-3.22032 -6.2701,0.84109 -6.5439,1.09411 -6.09,5.62942 0.4276,4.27183 -0.2539,5.14305 -6.7859,8.67345 -3.9935,2.15851 -9.1565,5.72768 -11.4733,7.93135 -2.3167,2.20374 -6.04,4.45827 -8.274,5.01016 -5.4954,1.35757 -9.9007,6.51004 -11.1004,12.98286 -1.6176,8.72743 -1.2982,10.39121 3.1018,16.15999 3.2112,4.21002 3.7308,5.78916 2.2136,6.72696 -1.2795,0.79074 -1.7707,3.44889 -1.3848,7.49534 0.6887,7.22014 -2.0385,9.47931 -6.533,5.41188 -2.0969,-1.89771 -2.4169,-3.21952 -1.2891,-5.32681 1.1693,-2.18459 0.8209,-3.16625 -1.5791,-4.4506 -1.7884,-0.95723 -3.0789,-3.20571 -3.0789,-5.36464 0,-2.13579 -1.2854,-4.40492 -3.0219,-5.33408 -5.0187,-2.68604 -5.6324,3.50459 -2.5948,26.17401 0.7885,5.88554 7.9933,21.81764 10.9918,24.306 1.2776,1.06026 3.0532,-1.02284 6.2205,-7.29801 2.4379,-4.83011 6.6488,-11.24301 9.3578,-14.25089 6.5979,-7.32624 8.1767,-11.94073 6.5511,-19.14799 -0.9428,-4.18048 -0.7977,-6.24063 0.4977,-7.0641 2.998,-1.906 3.9313,-1.42898 6.3482,3.24483 2.8059,5.4263 9.4205,10.84354 13.2399,10.84354 4.068,0 7.9177,8.25793 6.6492,14.26219 -2.198,10.40209 -14.908,23.98245 -22.4455,23.98245 -3.6204,0 -13.7157,7.48941 -12.5776,9.33076 1.7109,2.76856 14.047,8.99288 22.125,11.16371 11.7164,3.14849 18.3202,3.11952 18.3202,-0.0814 z m 22.7223,-1.88549 c 1.6148,-1.02327 1.6871,-2.0277 0.3286,-4.56594 -2.2883,-4.27586 -2.689,-4.12259 -3.4899,1.33519 -0.7104,4.83987 -0.2004,5.36101 3.1613,3.23075 z M -1356.899,899.2497 c 0,-4.72916 -5.2096,-5.32276 -7.595,-0.86535 -2.3053,4.30724 -2.06,4.68979 3.0057,4.68979 3.8755,0 4.5893,-0.59489 4.5893,-3.82444 z m -156.038,-21.14744 c 0,-17.46385 9.6486,-55.52006 19.7775,-78.00694 8.8694,-19.69082 25.3246,-44.55105 38.932,-58.81825 l 6.2222,-6.52377 -22.12,-22.15969 c -12.1661,-12.18779 -22.5708,-22.15959 -23.1216,-22.15959 -1.6684,0 -21.7189,24.43466 -30.7555,37.47979 -11.1513,16.09834 -21.2969,34.6019 -29.6183,54.01699 l -6.7599,15.77244 4.3869,6.40944 c 8.8892,12.98709 38.4673,60.64559 38.4673,61.98105 0,0.75896 -3.27,2.60728 -7.2665,4.1075 -8.8012,3.30373 -27.9186,12.73287 -27.9186,13.76989 0,0.41018 8.9493,0.74567 19.8872,0.74567 h 19.8873 z m 43.509,4.93927 c -0.5695,-0.92131 0.4385,-3.66867 2.2397,-6.10514 1.8013,-2.43647 3.7004,-6.6735 4.2199,-9.41567 0.5197,-2.74225 1.504,-5.70574 2.1873,-6.58568 0.6835,-0.87995 3.1996,-5.34583 5.5914,-9.92421 4.9136,-9.40557 11.7079,-14.53749 14.1272,-10.67066 1.137,1.81732 1.8144,1.89521 3.3272,0.38237 1.0446,-1.04461 3.4671,-1.89935 5.3827,-1.89935 3.9544,0 8.9403,-6.42446 7.632,-9.83423 -0.7065,-1.8408 3.2779,-8.75126 6.6783,-11.58272 0.5053,-0.42071 3.2289,-4.2069 6.0525,-8.41388 2.8236,-4.2069 7.7295,-10.79492 10.9019,-14.64 l 5.7679,-6.99111 -22.6045,-22.56711 -22.6048,-22.56709 -8.0427,8.79979 c -27.7722,30.38739 -49.6705,80.62424 -53.1076,121.8341 l -0.9888,11.85585 h 17.1379 c 12.0274,0 16.829,-0.49947 16.1025,-1.67526 z m 31.4503,-0.4322 c 0,-1.15895 -1.0853,-3.00814 -2.412,-4.10899 -2.011,-1.66921 -3.2826,-1.53302 -7.6488,0.81838 -2.8804,1.55109 -5.237,3.40027 -5.237,4.10915 0,0.70897 3.4421,1.28892 7.649,1.28892 5.4771,0 7.6488,-0.59852 7.6488,-2.10746 z m 381.2132,-3.19328 c -0.7642,-6.54485 -4.886,-10.87783 -4.886,-5.13608 0,3.63792 -2.4811,7.37722 -4.8954,7.37722 -0.6731,0 -1.2237,-4.13039 -1.2237,-9.17872 0,-5.04824 -0.6355,-9.17873 -1.4124,-9.17873 -0.7768,0 -3.5162,1.77017 -6.0873,3.9336 -4.2332,3.5621 -4.9731,3.72452 -7.8352,1.7199 -2.4874,-1.74227 -2.6937,-2.39277 -0.9684,-3.05484 1.2057,-0.4626 6.1204,-6.80633 10.9216,-14.09692 11.292,-17.1465 11.0232,-19.4525 -3.6883,-31.65265 -5.7904,-4.80204 -12.3699,-9.19314 -14.6206,-9.75806 -6.7458,-1.69314 -6.3671,-4.87571 1.5353,-12.89866 l 7.3284,-7.44025 -2.771,-4.29783 c -1.5239,-2.36385 -3.6337,-4.81388 -4.688,-5.44461 -1.0545,-0.63073 -3.3583,-4.07279 -5.1198,-7.64896 -1.7613,-3.57617 -7.9699,-11.66511 -13.7965,-17.97542 l -10.5939,-11.47339 -21.5253,21.39649 c -11.8388,11.76804 -21.5253,21.99474 -21.5253,22.72599 0,3.38973 8.3441,10.94975 12.0855,10.94975 2.9324,0 4.103,0.88392 4.4559,3.36417 0.3313,2.32913 3.5341,5.07295 10.4104,8.91819 5.65,3.15977 10.4979,7.04389 11.2454,9.00982 1.6622,4.37148 10.1528,11.59826 13.6269,11.59826 1.45,0 3.4403,-0.80413 4.4229,-1.78667 1.3625,-1.36231 3.2847,-1.33778 8.0949,0.1025 6.5549,1.96395 6.8574,2.93501 3.5764,11.48481 -0.5143,1.3403 -0.173,2.43682 0.7583,2.43682 0.9315,0 1.6935,1.8142 1.6935,4.03143 0,2.33526 1.6092,5.52283 3.8244,7.57581 5.4829,5.08124 4.7933,7.70355 -2.6771,10.18242 -5.5932,1.85608 -6.5675,2.82342 -6.9743,6.92271 -0.3845,3.87712 -1.4309,5.08149 -5.6142,6.46204 -2.8279,0.93331 -5.9694,2.69432 -6.9811,3.91329 -1.5949,1.92172 1.9074,2.21654 26.3417,2.21654 h 28.1811 l -0.6188,-5.30075 z m -78.3157,-73.37397 c 0,-1.20197 1.1722,-3.35762 2.6051,-4.7904 1.7178,-1.71783 2.4654,-4.53823 2.1951,-8.28193 -0.3311,-4.58513 0.3088,-6.14795 3.3275,-8.1258 2.2697,-1.4871 4.1352,-4.56864 4.75,-7.84612 1.4042,-7.4847 10.0691,-13.59674 10.0691,-7.10242 0,1.63468 1.4314,5.39823 3.1811,8.36345 3.4541,5.85462 2.9049,8.55162 -1.7415,8.55162 -2.1454,0 -2.9695,1.05852 -2.9695,3.81486 0,2.76297 -1.7926,5.05488 -6.5014,8.3113 -3.5759,2.4729 -7.7064,5.57517 -9.1788,6.89353 -3.3365,2.98767 -5.7367,3.07643 -5.7367,0.21191 z m 128.502,77.82352 c 0,-1.13944 -30.8384,-15.92649 -33.2729,-15.95447 -1.0517,-0.0155 -1.9122,-0.57089 -1.9122,-1.24185 0,-1.46414 14.2113,-24.68554 30.7646,-50.26889 l 12.03358,-18.59836 -2.09968,-5.8782 c -1.1548,-3.23308 -3.8836,-9.88423 -6.064,-14.78066 l -3.9643,-8.90256 -5.4716,4.17339 c -3.543,2.70219 -4.8493,4.55801 -3.7058,5.26465 2.3206,1.43416 -4.2136,6.09123 -8.4476,6.02042 -2.5664,-0.0431 -18.6371,-16.35542 -23.4427,-23.79565 -0.5918,-0.91622 -8.0675,-5.62337 -16.6129,-10.46048 -9.1855,-5.19962 -15.8477,-9.9831 -16.2971,-11.70154 -0.418,-1.59875 -2.3757,-3.52444 -4.3501,-4.27935 -1.9746,-0.75499 -4.9015,-2.82844 -6.5044,-4.60776 -3.8311,-4.25292 -5.6537,-4.08332 -10.4409,0.97174 l -3.9842,4.2069 4.6086,5.35428 c 11.6769,13.5661 21.0068,26.07558 26.4303,35.43805 5.7985,10.00936 5.9542,10.1382 8.4766,7.0229 1.4134,-1.7453 3.3332,-2.70174 4.266,-2.12517 2.4302,1.50212 11.0374,14.54293 11.0388,16.72535 5e-4,1.00966 1.9221,5.96602 4.2699,11.01426 3.899,8.38356 4.159,10.02437 3.003,18.94076 -1.0561,8.14549 -0.8463,10.22541 1.2668,12.56024 1.896,2.09512 2.2375,4.06347 1.3589,7.83075 -1.3384,5.73881 -1.3146,25.53101 0.039,32.95061 l 0.9075,4.97183 h 19.0529 c 10.4792,0 19.0531,-0.38307 19.0531,-0.85119 z m -344.2016,-50.80298 c 0,-1.38226 -35.5599,-37.07341 -36.9372,-37.07341 -1.3628,0 -16.6055,20.00808 -16.6055,21.79716 0,0.85256 1.4944,1.05222 3.4422,0.45983 15.9834,-4.85999 22.5249,-3.72288 30.3321,5.27199 5.7591,6.63508 19.7684,13.39892 19.7684,9.54443 z m 18.9957,-4.8081 c 1.4533,-1.60592 4.6669,-3.75837 7.1415,-4.78331 2.5579,-1.05956 5.5528,-4.08437 6.9416,-7.01089 2.0032,-4.22157 3.0774,-4.9878 5.9737,-4.26086 4.0677,1.02095 19.8656,-1.95186 23.9599,-4.50888 2.5107,-1.56794 2.7683,-4.38686 2.7683,-30.28118 v -28.55237 l -6.5017,0.717 c -31.5341,3.4772 -54.4735,12.31854 -78.055,30.08445 l -10.3618,7.80665 21.8155,21.85451 c 11.9986,12.02011 22.2341,21.85468 22.7458,21.85468 0.5114,0 2.1189,-1.31396 3.5722,-2.9198 z m 167.5154,-5.83553 c 1.4133,-3.10209 1.4474,-4.31631 0.133,-4.75412 -1.0993,-0.36649 -0.4848,-1.9503 1.6297,-4.20104 l 3.394,-3.61294 -5.6794,-6.93084 c -3.1235,-3.81192 -6.2149,-6.93084 -6.8695,-6.93084 -0.6548,0 -2.4204,1.35921 -3.9237,3.02039 -2.564,2.83317 -2.5757,3.26089 -0.189,6.90364 2.4693,3.76848 2.43,3.92668 -1.328,5.35565 -2.1299,0.80967 -3.8727,1.98684 -3.8727,2.61575 0,1.23866 12.424,12.52786 13.905,12.63512 0.4959,0.0371 1.756,-1.80962 2.7999,-4.10077 z m -62.7367,-1.36595 c 0.3447,-0.31112 0.8108,-4.51223 1.0359,-9.33562 0.4678,-10.02412 2.4117,-11.64869 6.9835,-5.83656 l 3.1938,4.06 2.9359,-3.15139 c 3.5646,-3.82608 5.5215,-3.94663 9.2527,-0.56984 2.719,2.46056 3.3541,2.08423 13.5506,-8.03135 l 10.6978,-10.61287 -5.0161,-4.24301 c -8.9891,-7.60353 -29.2109,-19.43254 -40.977,-23.96992 -10.9602,-4.22675 -28.3269,-8.23219 -42.4407,-9.78845 l -6.5017,-0.717 v 29.51504 29.51487 l 5.3783,1.00904 c 6.9912,1.31155 18.6619,8.49187 19.6437,12.08565 0.6882,2.51878 1.8504,2.69778 11.2022,1.7238 5.739,-0.59757 10.7164,-1.34117 11.0611,-1.65239 z m -57.9937,-7.90146 v -5.60392 l -3.2132,3.21305 c -2.6773,2.6774 -2.9195,3.76158 -1.4529,6.50201 2.4368,4.55353 4.6661,2.58949 4.6661,-4.11114 z m 218.8461,-17.58733 c -1.962,-1.86973 -3.0212,-2.36686 -2.3539,-1.10481 2.1321,4.03126 4.208,6.21808 5.0772,5.34876 0.4643,-0.4645 -0.7609,-2.37422 -2.7233,-4.24395 z m -497.4595,-18.31487 c 11.5371,-27.63313 28.7161,-55.20433 50.8744,-81.64959 l 11.6938,-13.9565 -26.9811,-26.95007 -26.9815,-26.94991 -11.473,13.13338 c -29.9956,34.33635 -51.825,69.09367 -68.125,108.47014 -5.4058,13.05919 -14.4831,39.5023 -14.4831,42.19101 0,0.79998 16.7824,1.39185 39.4644,1.39185 h 39.4643 z m 651.22599,4.58936 c -12.06552,-38.48011 -33.14121,-80.05385 -57.19437,-112.82168 -11.35829,-15.47347 -32.45162,-39.77439 -34.52412,-39.77439 -1.9779,0 -52.9562,50.59314 -52.9562,52.55588 0,0.73815 4.0259,5.90884 8.9461,11.4904 23.6823,26.86529 48.0369,67.17541 56.73498,93.90399 l 1.8668,5.73675 h 40.30227 40.30227 z m -468.65989,-7.06624 c 21.3424,-18.6412 54.4691,-32.16326 88.7808,-36.23941 l 7.2665,-0.8631 v -32.22932 -32.22923 l -12.6207,1.0568 c -17.5659,1.47103 -39.8133,6.14951 -55.7429,11.72252 -25.5798,8.94894 -60.2419,29.35477 -74.033,43.58329 l -5.1246,5.28744 22.1106,22.15002 c 12.1608,12.18262 22.6117,22.15009 23.2244,22.15009 0.6127,0 3.3752,-1.97507 6.1389,-4.3891 z m 232.1665,-17.76099 22.1106,-22.15002 -5.0577,-5.2181 c -8.4596,-8.72803 -31.0854,-24.00989 -48.5349,-32.78103 -24.1475,-12.13806 -53.3496,-20.25281 -81.3081,-22.59412 l -12.6207,-1.0568 v 32.21282 32.213 l 8.7964,1.03857 c 32.3255,3.81684 59.6301,14.54793 82.9909,32.6167 5.4688,4.23012 10.2965,7.73125 10.7283,7.78004 0.4314,0.0493 10.7343,-9.87844 22.8952,-22.06106 z m -280.3743,-40.0123 c 35.7687,-30.34361 83.1553,-49.70318 130.8695,-53.4663 l 13.3856,-1.05568 v -31.15024 -31.15023 h -9.1261 c -13.5237,0 -41.1617,4.19601 -60.3758,9.16628 -44.1985,11.43299 -83.1315,31.93623 -119.6069,62.98828 l -11.3128,9.63079 21.7895,21.82851 c 11.9844,12.00577 22.3355,21.82851 23.0028,21.82851 0.6673,0 5.7857,-3.87892 11.3742,-8.61992 z m 318.7153,1.66914 c 3.5681,-3.68127 4.6777,-5.77725 3.4579,-6.53111 -0.9879,-0.6107 -2.0126,-4.5335 -2.277,-8.71743 -0.4106,-6.49777 -1.0737,-7.89032 -4.5464,-9.54745 -5.5792,-2.66228 -12.009,-0.21432 -11.9648,4.55526 0.019,1.91394 1.7358,8.29868 3.8179,14.18828 2.082,5.88967 3.7886,10.88066 3.7921,11.09101 0.029,1.65031 3.3174,-0.49583 7.7203,-5.03856 z m -18.4222,-20.6801 c 0,-1.73494 -1.8225,-7.00718 -4.0502,-11.71614 -2.2278,-4.70897 -3.9918,-10.62264 -3.9202,-13.14158 0.1653,-5.81671 -7.1813,-20.39022 -13.1189,-26.02367 -4.4752,-4.24611 -4.517,-4.43022 -2.5108,-11.09647 l 2.0401,-6.7786 -5.6652,-2.86747 c -25.4613,-12.88752 -68.3128,-23.71362 -101.6592,-25.68352 l -16.4452,-0.97157 v 31.36871 31.36871 l 13.3018,1.02235 c 7.316,0.56234 20.2235,2.42222 28.6835,4.13298 13.1018,2.64942 20.8098,4.94721 42.9178,12.79392 1.6827,0.59741 -1.6738,-3.34534 -7.4593,-8.76137 -10.5165,-9.84511 -11.4616,-13.22914 -3.1089,-11.13272 4.7162,1.18364 25.1012,20.9819 25.1012,24.37862 0,1.74918 1.3655,2.49408 4.5714,2.49408 2.5145,0 10.6031,2.50624 17.975,5.56946 12.6143,5.24169 19.556,7.76408 22.1999,8.06718 0.6309,0.0717 1.1472,-1.28806 1.1472,-3.0229 z m -94.6205,-52.79741 c -2.0854,-4.57719 -1.1916,-6.76945 2.7602,-6.76945 2.949,0 4.6627,2.85685 4.6627,7.774 0,4.36864 -5.3015,3.65113 -7.4229,-1.00455 z m 18.1313,-9.3845 c -3.9825,-1.46448 -7.6489,-5.40644 -7.6489,-8.22408 0,-4.05457 6.194,-4.26709 10.3995,-0.3569 2.9782,2.76919 3.3004,3.87538 1.8951,6.50158 -0.9315,1.74055 -1.8416,3.11029 -2.0223,3.04397 -0.1809,-0.0656 -1.3613,-0.50059 -2.6234,-0.96457 z m -26.0063,-2.64484 c 0,-3.8 8.3693,-11.78239 11.2105,-10.69215 3.1782,1.21973 3.394,6.77332 0.2629,6.77332 -1.2748,0 -2.2946,1.35982 -2.2946,3.05952 0,2.37974 -1.0199,3.0596 -4.5895,3.0596 -2.9721,0 -4.5893,-0.77546 -4.5893,-2.20029 z m -247.4605,29.04846 c 35.8038,-30.40552 79.2295,-52.75172 124.8596,-64.25077 17.8449,-4.49696 45.6758,-8.491 59.1674,-8.491 h 9.891 v -39.11456 -39.11465 l -12.6207,0.95732 c -37.3814,2.83578 -59.8822,6.68292 -90.3067,15.43989 -52.5703,15.13134 -102.0572,42.32606 -144.1328,79.20613 -6.7311,5.89977 -12.9059,11.30173 -13.7216,12.00439 -0.8863,0.76303 9.2696,12.04368 25.225,28.01862 14.6897,14.70752 27.0599,26.73117 27.4896,26.71907 0.4297,-0.0155 6.7968,-5.13062 14.1492,-11.37444 z m 440.1742,-15.28297 c 14.325,-14.25305 26.0455,-26.42082 26.0455,-27.03971 0,-0.61882 -5.3351,-5.71473 -11.8557,-11.32427 -45.9458,-39.52569 -91.9623,-64.94593 -147.0332,-81.22362 -27.3678,-8.08937 -52.2595,-12.27364 -90.0837,-15.14309 l -12.6207,-0.95732 v 39.11465 39.11456 h 12.3286 c 7.8297,0 11.9837,-0.55819 11.3831,-1.52976 -0.5199,-0.84134 -3.2379,-1.52976 -6.0398,-1.52976 -6.3484,0 -11.0073,-3.87331 -12.2931,-10.2197 -1.1738,-5.79409 0.7496,-7.19233 12.178,-8.85274 4.1871,-0.60837 10.2003,-2.42611 13.3625,-4.03937 8.4318,-4.30146 35.3959,-5.00032 39.0064,-1.01077 3.3216,3.6703 1.8244,4.98236 -10.9873,9.62939 -7.2872,2.64312 -13.5965,3.78472 -20.9183,3.78472 -12.1789,0 -12.8801,1.20317 -5.0207,8.6156 4.2805,4.03687 4.8599,5.1625 2.6772,5.19894 -5.4519,0.0902 1.4589,2.57023 10.2171,3.66537 18.8125,2.35203 60.5718,14.99344 76.9561,23.29601 7.138,3.61702 8.0188,3.71615 17.6795,1.98968 8.6659,-1.54866 11.0216,-1.45989 15.9558,0.6018 5.6276,2.35142 5.8251,2.32431 7.0979,-0.96958 0.7201,-1.8636 3.0633,-5.01966 5.2072,-7.01349 l 3.8979,-3.62512 3.1427,5.15497 c 1.7602,2.88715 3.1452,7.80354 3.1486,11.17549 0,4.76854 1.2514,7.49826 5.9954,13.12431 3.2944,3.90698 6.7223,9.80271 7.6179,13.10159 1.0507,3.87047 3.5859,7.55147 7.1473,10.37713 3.9324,3.12015 5.047,4.85128 3.8764,6.02172 -1.1707,1.17052 -0.9113,2.45115 0.9018,4.45457 1.3994,1.54642 3.0933,2.62281 3.7642,2.39199 0.6709,-0.23073 12.9402,-12.08124 27.2654,-26.33419 z m -180.093,-95.29126 c -2.5522,-0.89031 -2.415,-3.75778 0.3534,-7.38628 1.9609,-2.57015 2.4722,-2.6609 3.8011,-0.67476 3.3208,4.96292 0.8284,9.79899 -4.1545,8.06104 z m -724.0482,710.75107 c -1.5878,-3.8336 -1.4588,-4.9192 0.894,-7.519 2.6733,-2.954 2.3676,-3.8349 -10.9979,-31.704 -12.9211,-26.9421 -14.0035,-28.6691 -18.0034,-28.7282 -3.7993,-0.055 -8.2679,-4.6094 -8.4758,-8.6361 -0.029,-0.5778 6.3133,-4.1083 14.0961,-7.8459 7.7828,-3.7377 29.1748,-14.0985 47.5373,-23.0241 l 33.3868,-16.2286 19.1353,39.3721 c 10.5242,21.6546 19.25,39.877 19.3907,40.4943 0.1407,0.6171 -21.2009,11.7372 -47.4258,24.711 l -47.6814,23.589 z m 82.19,-49.3334 c 0.2539,-0.213 -28.5021,-57.7962 -29.3644,-58.8017 -0.9347,-1.0897 -64.9864,31.9971 -64.9864,33.5698 0,0.9477 5.9739,14.6543 13.2754,30.4591 l 13.2754,28.7361 33.7656,-16.8689 c 18.5708,-9.2778 33.8864,-16.9704 34.0344,-17.0944 z m -75.2425,2.0689 c -12.5747,-25.1163 -13.0508,-26.4341 -10.5473,-29.2004 1.4419,-1.5934 3.0586,-2.897 3.5925,-2.897 0.5339,0 3.5735,4.8189 6.7546,10.7085 3.1811,5.8897 6.4512,10.7085 7.2668,10.7085 0.8157,0 4.1906,-1.3812 7.4997,-3.0694 6.5408,-3.3368 6.5754,-4.0143 0.7794,-15.2224 -3.0306,-5.8607 -3.0655,-5.7251 2.1696,-8.4324 l 4.4982,-2.3259 4.2287,7.7696 c 3.9171,7.1968 4.564,7.7025 8.776,6.8602 2.5009,-0.5001 4.8144,-1.1767 5.1413,-1.5035 0.3268,-0.3268 -1.5903,-4.9215 -4.26,-10.2103 -4.5959,-9.1045 -4.7077,-9.7232 -2.1026,-11.6281 5.6807,-4.1539 7.3422,-2.3259 19.3905,21.3361 l 11.8692,23.3101 -3.2424,2.6771 c -1.7833,1.4725 -3.7092,2.6771 -4.2796,2.6771 -0.5704,0 -3.2992,-3.7322 -6.0638,-8.2943 -4.8511,-8.0043 -5.1835,-8.2398 -9.502,-6.7344 -5.306,1.8496 -5.4093,2.6112 -1.4156,10.4394 3.8466,7.5396 3.8246,8.6618 -0.211,10.8215 -2.9112,1.558 -3.9282,0.9817 -9.2442,-5.2376 -5.4635,-6.3915 -6.3269,-6.8591 -10.1148,-5.4758 -2.2779,0.8319 -4.9778,1.8054 -6,2.1633 -1.3292,0.4656 -0.7849,3.0783 1.9123,9.177 3.827,8.6536 4.9203,16.0878 2.3658,16.0878 -0.7725,0 -2.4594,0.4048 -3.7484,0.8995 -1.7946,0.6885 -5.4312,-5.2669 -15.5129,-25.4042 z m 21.0484,9.1372 c -4.2144,-1.6672 -4.3298,-3.2419 -0.4919,-6.7151 1.8843,-1.7052 4.0949,-2.3063 6.1191,-1.6638 3.868,1.2276 3.9694,2.5907 0.492,6.6303 -2.0725,2.4077 -3.4545,2.8026 -6.1192,1.7486 z m 275.7439,23.1522 c -21.8759,-7.3627 -45.364,-15.8212 -52.1956,-18.7965 -24.6542,-10.7371 -44.7524,-26.4095 -56.1274,-43.7679 -6.8141,-10.3982 -37.742,-78.5977 -40.7166,-89.7851 -1.9908,-7.4865 -2.1222,-15.5866 -0.2717,-16.7305 0.7551,-0.4666 6.8665,6.8932 13.5811,16.355 23.7176,33.4204 33.5139,43.0009 69.1845,67.66 19.1796,13.2587 35.1607,27.194 56.602,49.3559 17.7311,18.327 26.7299,26.181 28.2527,24.6583 0.3414,-0.3415 -7.3635,-12.654 -17.1221,-27.3608 -9.7585,-14.7072 -19.8692,-31.2148 -22.468,-36.6837 l -4.7253,-9.9436 0.2116,-37.1816 c 0.1164,-20.4499 0.6972,-37.66 1.29,-38.2447 2.3258,-2.2932 25.5303,29.3631 34.2937,46.7849 9.8942,19.6698 14.2093,35.974 15.4755,58.4722 1.0001,17.7732 1.9526,23.0805 6.8337,38.0735 3.1192,9.5816 6.9584,20.424 8.5317,24.0941 1.9849,4.6304 2.2916,6.6353 1.0026,6.5503 -1.022,-0.068 -19.7565,-6.1469 -41.6324,-13.5098 z m 677.45823,10.9551 c 0.48677,-1.4723 4.08522,-11.9706 7.99644,-23.3293 6.53647,-18.982 7.21159,-22.3383 8.34869,-41.5065 1.0606,-17.8777 2.02682,-23.2278 6.76868,-37.4797 3.04224,-9.1438 8.70127,-22.1325 12.57544,-28.8636 7.55786,-13.1312 27.4682,-40.5393 29.44924,-40.5393 1.87388,0 3.15061,18.3191 3.16253,45.3749 0.0155,33.521 -0.71725,35.6162 -25.83455,73.9335 -11.02634,16.8214 -20.04807,30.9772 -20.04807,31.4575 0,2.4602 15.7182,-10.9194 27.05404,-23.0288 20.532,-21.9331 38.70663,-37.6455 65.79928,-56.885 29.02921,-20.6143 40.89085,-32.4464 61.20429,-61.051 7.32963,-10.3215 13.95866,-18.3757 14.73101,-17.8982 2.83162,1.7501 -0.38652,18.3189 -6.32689,32.5737 -14.61935,35.082 -29.6342,66.5209 -35.98648,75.3509 -19.37978,26.9391 -38.49005,37.8882 -104.83801,60.0674 -23.85826,7.9753 -43.73017,14.5006 -44.1597,14.5006 -0.4297,0 -0.3829,-1.2047 0.10406,-2.6771 z m -756.24233,-131.9936 c -22.3676,-20.1194 -54.914,-52.8921 -55.0226,-55.405 -0.027,-0.6311 10.4486,-1.1372 23.2797,-1.125 l 23.3291,0.024 3.6332,9.5386 c 4.7876,12.5707 12.051,27.3289 14.8484,30.1704 1.97,2.0011 2.1189,1.6334 1.2399,-3.0597 -0.8668,-4.6266 -8.5174,-29.3313 -10.7717,-34.7821 -0.6033,-1.4591 3.0454,-1.9122 15.3994,-1.9122 h 16.1902 l -0.03,4.2068 c -0.017,2.3139 -1.0358,13.5005 -2.2643,24.8592 -1.2286,11.3586 -2.2569,25.4708 -2.2853,31.3605 -0.052,10.9663 -1.1445,17.6461 -2.8649,17.5235 -0.5329,-0.039 -11.6392,-9.6669 -24.6807,-21.3975 z m 849.90296,8.081 c -0.51284,-7.3621 -1.61031,-21.9908 -2.43897,-32.5079 -0.82857,-10.5173 -1.69366,-22.048 -1.92249,-25.6239 l -0.41597,-6.5016 h 15.88443 c 12.10932,0 15.70932,0.4561 15.14793,1.9191 -3.43515,8.9517 -10.29259,32.4636 -10.26531,35.1965 0.0336,3.4118 0.0441,3.4102 3.02955,-0.4008 1.64771,-2.1034 6.07205,-11.0527 9.83181,-19.8872 l 6.83612,-16.0627 23.98754,-0.4222 23.98743,-0.4224 -11.03039,12.2356 c -14.50156,16.0865 -68.08229,65.8632 -70.89631,65.8632 -0.44169,0 -1.2226,-6.0236 -1.73537,-13.3857 z M -2030.7181,959.45314 c -25.8065,-16.28225 -48.8705,-36.91062 -58.8335,-52.62062 -2.587,-4.07928 -4.7038,-8.69316 -4.7038,-10.25288 0,-7.79015 10.1486,-17.62403 14.1049,-13.66773 1.3715,1.3713 59.8556,1.80488 243.5051,1.80488 h 241.7002 l -5.1897,5.35419 -5.1894,5.35429 h -237.6936 c -224.233,0 -237.665,0.1499 -237.1855,2.63871 1.2747,6.61953 -3.3138,6.49381 237.8923,6.51746 l 229.7623,0.0233 -5.2717,8.00449 c -7.2296,10.97738 -14.3151,28.54641 -17.2637,42.8055 l -2.4629,11.91124 -190.4919,-0.0919 -190.4922,-0.0917 z m 1108.27802,4.21873 c 0,-10.16676 -11.82598,-41.48841 -20.08088,-53.18495 -1.5763,-2.23336 -2.86592,-4.47061 -2.86592,-4.97181 0,-0.5012 103.45161,-0.91113 229.89249,-0.91113 205.59435,0 230.25147,-0.25163 233.29207,-2.38146 1.86999,-1.30982 3.39993,-3.37497 3.39993,-4.58936 0,-1.91447 -31.54496,-2.20789 -237.41529,-2.20789 h -237.41547 l -4.29075,-4.11071 c -2.35987,-2.26083 -4.29057,-4.67027 -4.29057,-5.35427 0,-0.68393 108.38292,-1.2435 240.85088,-1.2435 158.91699,0 241.17246,-0.52046 241.79628,-1.52984 1.63441,-2.6445 4.86594,-1.68348 9.78181,2.90847 6.98845,6.52819 6.51134,12.72381 -1.85479,24.077 -9.93363,13.48061 -30.23834,31.57519 -50.58874,45.08255 l -18.18499,12.07018 H -731.42701 -922.44008 Z M -1794.4176,774.72431 c 0,-24.76756 11.6649,-68.38124 26.0219,-97.29344 10.4618,-21.06835 30.5802,-47.89615 30.5802,-40.7787 0,0.70966 -1.3724,5.27916 -3.0498,10.15452 -7.4531,21.66315 -8.4374,31.98934 -8.2048,86.07886 l 0.2187,50.86541 h -22.783 -22.7832 z m 94.6134,-24.24616 c 18.3593,-18.30009 37.0008,-37.9208 41.4253,-43.6015 4.4245,-5.68088 8.6278,-9.96843 9.3404,-9.52795 2.6556,1.64125 -11.235,40.97221 -24.1668,68.42729 l -8.4665,17.97497 h -25.7566 -25.7564 z m 815.15687,18.3216 c -11.59076,-24.64165 -26.24483,-65.28788 -25.28907,-70.14459 0.34024,-1.72932 3.65908,1.31102 10.40884,9.53544 5.45013,6.64096 24.3155,26.35864 41.92295,43.81732 l 32.01353,31.74304 h -26.01185 -26.01166 z m 74.89155,-30.55993 c 1.05075,-50.42526 -0.54818,-68.15387 -8.15102,-90.37814 -5.90402,-17.25859 -3.70165,-16.93614 10.18362,1.49106 23.02589,30.5576 42.851,87.90698 42.851,123.95727 v 10.44095 h -22.91588 -22.91606 z m -921.39162,12.25896 c -0.6632,-4.84928 -1.2099,-29.469 -1.2142,-54.71048 0,-42.85404 0.2183,-46.70403 3.4125,-58.13182 4.3408,-15.5304 12.0817,-31.90411 20.1103,-42.53816 7.475,-9.90046 41.8186,-41.85448 42.568,-39.60609 0.2882,0.86449 -2.0222,6.62101 -5.1341,12.79221 -8.2605,16.38105 -13.5373,33.1506 -22.1011,70.23698 -4.1924,18.15563 -9.6484,39.47198 -12.1243,47.36938 -2.476,7.89749 -4.262,14.59889 -3.9689,14.89198 0.2929,0.293 3.5298,-5.14937 7.1927,-12.09445 9.9043,-18.77817 20.6496,-29.31954 48.8735,-47.94641 24.5329,-16.1909 45.6446,-34.37105 52.2525,-44.99664 3.0681,-4.93373 3.4918,-5.17095 3.9157,-2.19416 0.6425,4.51501 -7.5205,24.53251 -16.1064,39.49599 -13.5071,23.53953 -23.2229,34.05086 -64.1214,69.3719 -25.8681,22.34042 -38.3245,35.37449 -45.1797,47.27422 -2.5447,4.41726 -5.1987,8.38478 -5.8978,8.8169 -0.6992,0.43203 -1.8139,-3.18204 -2.4773,-8.03135 z m 895.14187,-0.4005 c -8.1195,-13.36602 -20.23856,-25.83826 -52.05321,-53.56975 -39.00264,-33.99698 -48.29363,-44.75978 -61.74539,-71.52687 -12.65559,-25.18292 -16.81291,-42.34722 -6.71142,-27.70921 7.73316,11.20614 25.56418,26.68203 47.07863,40.86046 36.32154,23.93651 38.89082,26.4114 53.69289,51.71601 3.87298,6.62126 6.61247,10.73636 6.08778,9.14478 -3.63498,-11.02488 -9.60186,-33.90467 -16.20102,-62.12216 -9.95115,-42.55005 -13.7932,-53.84781 -27.1828,-79.93124 -0.32399,-0.63107 0.22644,-1.14728 1.22295,-1.14728 3.54526,0 38.36381,34.22891 45.00208,44.24024 12.07969,18.21686 18.90786,39.60506 20.55178,64.37445 1.16465,17.54813 -0.92917,89.81261 -2.69363,92.96549 -0.93789,1.67586 -2.71903,-0.16762 -7.04864,-7.29492 z M -1890.7941,640.72764 c -25.6621,-12.07062 -46.646,-22.51839 -46.6309,-23.21734 0.056,-2.62637 4.4574,-12.74419 5.5428,-12.74419 1.6909,0 93.6408,42.90896 95.2684,44.45754 1.738,1.65368 -3.4597,13.72109 -5.8417,13.56247 -0.9241,-0.0614 -22.6764,-9.98786 -48.3386,-22.05848 z m 1177.33767,3.17307 c -10.07378,-3.7354 -21.92187,-12.95834 -27.18703,-21.16358 -13.59261,-21.18224 -13.69217,-43.14721 -0.2873,-63.34415 20.50842,-30.89999 66.75304,-32.2687 89.33379,-2.64407 21.80218,28.60272 13.10643,67.78739 -18.67703,84.16214 -6.89078,3.55019 -10.43353,4.28403 -22.69818,4.70154 -9.98182,0.33989 -16.39669,-0.19628 -20.48425,-1.71188 z m 34.25232,-16.43296 c 19.51164,-8.40524 30.40284,-33.50959 22.55104,-51.9811 -3.34335,-7.86546 -13.0541,-18.12894 -20.25636,-21.40893 -8.622,-3.92676 -25.3654,-3.76847 -34.42019,0.32556 -27.429,12.40161 -33.1622,47.48786 -11.0273,67.48541 5.44426,4.91837 10.39061,7.30701 19.44118,9.38779 5.06215,1.16388 16.39392,-0.65629 23.71163,-3.80873 z m -206.05392,3.52082 c -4.37063,-3.90509 -11.94308,-9.13131 -16.82768,-11.6138 -14.95527,-7.60088 -27.49677,-15.97183 -32.91573,-21.96997 -2.84035,-3.14405 -12.27822,-16.20611 -20.97292,-29.02663 -8.69454,-12.82051 -21.55789,-30.18601 -28.58511,-38.58978 -9.19322,-10.99423 -12.00496,-15.27962 -10.02498,-15.27962 4.20275,0 43.85478,20.18779 57.24108,29.14285 30.78109,20.5915 46.55758,42.19144 57.7125,79.01521 4.71017,15.54879 3.86313,16.80134 -5.62716,8.32174 z m -797.48517,4.72494 c 0,-4.27701 7.3151,-26.15277 12.3148,-36.82714 13.3719,-28.54978 29.261,-44.46401 64.9394,-65.04247 13.3075,-7.67555 42.2944,-21.1496 43.3114,-20.13261 0.3468,0.34698 -5.0123,7.38015 -11.9091,15.62952 -6.8967,8.24938 -19.4874,25.32481 -27.9789,37.94552 -19.6539,29.21115 -29.283,38.8035 -49.7329,49.54333 -8.6283,4.53141 -18.7101,10.89914 -22.4038,14.15054 -6.7327,5.92637 -8.5409,6.92833 -8.5409,4.73331 z m -175.1604,-28.40064 c -25.4219,-8.35129 -42.9715,-37.26738 -37.6573,-62.04721 5.5115,-25.69854 25.8133,-44.24458 50.1289,-45.79281 5.3406,-0.34007 9.7103,-0.21407 9.7103,0.28004 0,0.49411 -2.1763,3.98601 -4.8365,7.75984 -3.3355,4.73245 -6.3025,7.17056 -9.5611,7.85759 -7.6299,1.60886 -18.9689,8.41458 -23.1479,13.89381 -20.181,26.45846 -0.6309,64.88159 33.1114,65.07615 16.7394,0.0964 29.0772,-7.06772 35.7865,-20.78106 3.3117,-6.76883 3.9877,-10.10589 3.6932,-18.22919 -0.325,-8.9669 0.1377,-10.72091 4.7179,-17.85754 l 5.0783,-7.91389 2.3505,5.09592 c 1.5649,3.39258 2.3797,9.95304 2.4381,19.62865 0.077,12.64876 -0.44,15.65862 -3.9823,23.21482 -5.4578,11.6424 -14.5723,21.187 -25.3165,26.51115 -7.4049,3.66917 -11.1172,4.46527 -22.6264,4.8517 -8.4906,0.28506 -16.1133,-0.30819 -19.8871,-1.54797 z m 1079.42698,-48.46556 -4.98236,-6.19994 7.64128,-14.87575 7.64128,-14.87599 -6.27715,-6.87058 c -3.45242,-3.77883 -9.33796,-10.20623 -13.07888,-14.28309 l -6.80175,-7.41278 -15.83202,6.12196 -15.8322,6.12189 -4.62199,-5.26404 c -2.542,-2.89527 -4.62192,-5.82327 -4.62192,-6.50677 0,-0.68331 21.57411,-9.606 47.94242,-19.82786 64.362,-24.95029 56.969,-22.84628 62.30678,-17.73251 2.46661,2.36325 4.48488,4.91847 4.48488,5.67812 0,1.49642 -50.14972,99.01656 -51.91471,100.9521 -0.58927,0.64627 -3.31332,-1.61491 -6.05366,-5.02476 z m 27.97915,-68.28523 c 5.57812,-9.80512 9.96074,-18.00693 9.73941,-18.226 -1.02009,-1.01043 -37.78047,15.57382 -37.37237,16.86023 0.6329,1.99547 15.31528,18.95881 16.522,19.08885 0.53314,0.0578 5.53294,-7.91786 11.11096,-17.72308 z m -1027.87883,23.65508 c -6.5693,-14.56366 -17.2726,-38.18247 -23.7852,-52.48594 l -11.8409,-26.00639 5.0376,-5.16336 5.0377,-5.16318 50.2659,22.53531 c 27.6462,12.39446 51.0749,22.97876 52.0634,23.52072 1.189,0.65187 -0.029,2.97696 -3.5992,6.8709 l -5.3965,5.88554 -15.5232,-6.90304 -15.5232,-6.90312 -13.6577,13.53812 -13.6576,13.5382 5.0218,11.19112 c 10.2653,22.87623 9.8937,19.92449 3.3185,26.34498 l -5.8168,5.68001 z m 12.8414,-40.06273 9.6718,-9.75868 -18.0434,-9.36369 c -9.9239,-5.14996 -18.5952,-9.36359 -19.2695,-9.36359 -0.6743,0 3.0604,8.60498 8.2991,19.12227 5.2388,10.51728 9.5577,19.12236 9.5976,19.12236 0.039,0 4.4249,-4.39144 9.7444,-9.75867 z m 917.63387,9.29875 -7.30441,-6.42412 1.68813,-28.36836 c 2.55556,-42.94322 3.7241,-41.59869 -15.79472,-18.17583 -9.06257,10.87506 -16.97922,19.74489 -17.59251,19.71069 -0.61346,-0.0336 -3.47625,-2.0807 -6.36194,-4.54765 -4.79937,-4.10327 -5.04859,-4.71733 -2.92463,-7.20432 1.27726,-1.49539 16.60549,-19.75673 34.06313,-40.58094 17.45762,-20.82423 32.31687,-37.86217 33.0204,-37.86217 1.63838,0 10.70268,7.59324 10.66279,8.93225 -0.0172,0.55624 -7.21356,9.61638 -15.99333,20.13366 -8.77976,10.51728 -15.41502,19.31536 -14.74525,19.55145 0.66966,0.23584 15.12632,-2.71021 32.12576,-6.54691 l 30.9082,-6.97566 6.88101,5.63847 c 3.78454,3.10105 6.33466,6.11039 5.6668,6.68716 -0.66777,0.57692 -13.94968,3.65405 -29.51522,6.83818 -15.56562,3.18421 -29.84992,6.37377 -31.74305,7.08809 -3.24181,1.2232 -3.45416,2.21342 -3.64949,17.01688 -0.11467,8.64497 -0.6302,23.77208 -1.1473,33.61581 l -0.93995,17.89769 z m -851.80907,-39.15602 c -26.5842,-8.50549 -42.3829,-33.8095 -38.0485,-60.94134 3.466,-21.69584 16.9798,-37.67397 37.7571,-44.64169 39.1709,-13.13627 78.764,20.37704 72.2033,61.116 -2.5988,16.1366 -10.4997,28.70842 -23.34,37.13766 -15.6703,10.28734 -31.7452,12.71293 -48.5719,7.32937 z m 34.8172,-15.6632 c 14.6056,-6.88265 25.0491,-25.32791 22.6508,-40.00651 -3.6732,-22.47969 -20.3238,-37.71467 -41.266,-37.75719 -24.4301,-0.049 -43.8883,22.18614 -39.2969,44.90651 2.3345,11.55327 4.1282,15.39886 10.4409,22.38628 12.7949,14.16263 31.0788,18.19544 47.4712,10.47091 z m 735.10109,-9.20195 c -3.43429,-2.19891 -4.75879,-4.01519 -4.1278,-5.65989 0.51131,-1.33217 9.88138,-17.14995 20.82258,-35.15083 10.94111,-18.0008 19.68263,-32.89187 19.42546,-33.09121 -0.25715,-0.19932 -20.05653,9.25092 -43.99856,21.00058 l -43.53129,21.36296 -6.5692,-3.58852 c -3.61321,-1.97371 -6.56937,-4.20405 -6.56937,-4.9562 0,-1.07527 52.51987,-89.02585 54.32665,-90.97634 0.85439,-0.92229 13.09971,7.48111 12.5011,8.57904 -0.75828,1.39058 -34.05578,57.52895 -38.13505,64.29412 -2.91997,4.84268 -1.11448,4.09814 40.29217,-16.61546 l 43.34926,-21.68516 6.67903,3.61229 c 3.67359,1.98673 7.00408,4.12261 7.40123,4.74645 1.04651,1.64375 -53.09379,91.42275 -55.11291,91.39201 -0.93288,-0.0155 -3.97193,-1.48287 -6.7533,-3.26384 z m -653.05859,-71.60786 c -17.4676,-10.65067 -9.4944,-38.30659 11.0435,-38.30659 8.8727,0 18.2128,8.27261 19.981,17.69748 1.2553,6.69173 -3.7715,17.35143 -9.8854,20.96295 -5.9189,3.49647 -15.0757,3.34319 -21.1391,-0.35384 z m 18.5539,-8.58271 c 8.8707,-8.87062 0.3373,-23.04529 -12.0081,-19.94671 -8.0645,2.02406 -9.8645,15.0843 -2.8168,20.43609 3.5114,2.66658 11.9475,2.388 14.8249,-0.48938 z m 98.2076,-3.06202 c -9.9992,-3.20413 -17.2168,-7.9587 -25.1229,-16.54967 -10.4952,-11.4041 -13.19,-18.90264 -13.2553,-36.88343 -0.052,-13.67443 0.3932,-16.21128 4.1727,-23.90503 5.2248,-10.63582 16.7708,-21.65824 28.328,-27.04324 7.4358,-3.4648 10.8117,-4.07595 22.5154,-4.07595 11.5996,0 15.1042,0.62292 22.2519,3.9551 15.7955,7.36408 26.3937,19.93525 31.3541,37.19106 6.9942,24.33216 -5.7063,52.17898 -29.0363,63.6643 -12.0621,5.93833 -29.2969,7.46352 -41.2076,3.64686 z m 35.7602,-17.17153 c 28.0775,-14.03195 27.2649,-56.6438 -1.3871,-72.72492 -21.3023,-11.95602 -49.3534,-0.32492 -56.2254,23.31333 -4.9306,16.96102 0.081,33.6496 13.5736,45.19856 12.5426,10.73603 28.0231,12.21702 44.0389,4.21303 z m 289.9851,11.73637 c -3.3156,-0.77714 -6.1922,-1.57676 -6.3926,-1.77715 -0.2004,-0.2004 4.9911,-23.4175 11.5367,-51.59354 l 11.9011,-51.2293 6.5841,0.31316 c 3.6211,0.17209 7.088,0.8605 7.704,1.52978 0.6159,0.66913 -3.8786,22.68213 -9.9882,48.91763 -13.7659,59.11472 -12.8625,55.5895 -14.1985,55.40575 -0.615,-0.084 -3.831,-0.78936 -7.1466,-1.56633 z m 83.7393,-7.39667 c -13.1002,-7.98762 -12.4979,-28.36619 1.0491,-35.49973 17.6512,-9.29483 36.7801,8.98993 28.2378,26.99152 -5.1368,10.82491 -18.9202,14.82912 -29.2869,8.50821 z m 19.3193,-10.21193 c 4.0888,-5.19791 4.0307,-10.91915 -0.1556,-15.37541 -9.9397,-10.58014 -25.6463,4.00313 -17.2392,16.00629 3.568,5.09388 13.1656,4.74585 17.3948,-0.63088 z m -336.4288,6.78795 c 0.016,-0.2544 7.413,-24.90076 16.4582,-54.76981 l 16.4458,-54.30737 h 7.4011 7.4012 l 23.6097,51.07432 c 12.9853,28.09098 23.417,51.26371 23.1815,51.49517 -0.9273,0.91037 -14.409,1.21265 -15.7887,0.35399 -0.8071,-0.50223 -4.1991,-7.17178 -7.5378,-14.82102 l -6.0705,-13.90789 -6.9327,0.0152 c -3.8131,0 -12.6095,0.45098 -19.5476,0.99115 l -12.6148,0.98197 -5.0296,16.21893 -5.0296,16.21894 -7.9797,0.46244 c -4.3884,0.25425 -7.9737,0.25425 -7.9665,0 z m 54.5321,-49.47859 c 3.1999,-0.66715 3.0665,-1.25045 -4.531,-19.79895 -4.3051,-10.51145 -8.2615,-18.6034 -8.7917,-17.9823 -0.5301,0.62123 -2.809,8.35767 -5.0639,17.19217 -2.2551,8.83451 -4.4737,17.47505 -4.9304,19.2011 -0.7869,2.97451 -0.2859,3.11067 9.5948,2.60691 5.7338,-0.29235 11.9087,-0.84092 13.7222,-1.21893 z m 91.2434,47.02406 c -36.2503,-12.94335 -49.3393,-55.81024 -26.5952,-87.10015 5.9995,-8.25395 18.2397,-16.29512 29.8397,-19.60311 23.1045,-6.58895 51.8474,5.58981 62.6938,26.5644 l 2.4055,4.65177 -8.7773,-0.84093 c -7.1757,-0.68748 -9.7546,-1.7562 -14.1316,-5.85633 -8.9667,-8.39912 -16.3032,-11.4394 -27.5136,-11.40162 -11.8815,0.0398 -20.1447,3.36292 -28.0691,11.28735 -7.8447,7.84475 -10.552,13.92289 -11.3847,25.5595 -1.0216,14.27718 2.4438,23.89281 12.0854,33.53441 13.7253,13.72523 30.7613,15.31958 47.8556,4.47877 5.6601,-3.58951 8.8587,-4.52342 15.4934,-4.52342 10.3348,0 10.6446,1.71795 1.8589,10.31228 -13.9969,13.69234 -38.0298,19.26809 -55.7608,12.93708 z"
       style="fill:#999999;stroke-width:1.52978516" />
    <path
       sodipodi:nodetypes="ccscscccccssscccssccccccsccccscccssscsccsccccccccccccscccsssccccccccscsccss"
       inkscape:connector-curvature="0"
       id="path2802"
       d="m 594.43455,1288.5118 c -77.61104,-20.6002 -135.45164,-77.2549 -153.7336,-150.5818 -4.49426,-18.0262 -6.00106,-61.4293 -6.00106,-172.86374 0,-141.25633 0.48924,-150.34887 9.65833,-179.48757 11.85876,-37.6865 30.31983,-66.24576 59.09072,-91.41387 69.01835,-60.37556 175.42439,-71.28141 261.44902,-26.79635 38.64654,19.98502 81.41083,74.8537 96.55513,123.88547 12.61339,40.83739 12.72205,40.57097 -16.00207,39.26753 l -24.6902,-1.12026 -5.23191,-17.50524 c -22.1728,-74.18854 -75.50098,-119.24565 -147.3871,-124.52781 -56.30429,-4.1372 -97.46211,9.6672 -134.24974,45.02776 -42.42725,40.78146 -49.63065,71.2756 -51.343,217.35333 -1.51973,129.64385 2.37533,170.90475 19.62302,207.87415 58.06369,124.4555 244.33962,122.3948 303.36744,-3.356 5.91246,-12.596 12.07287,-28.3176 13.68964,-34.9367 2.76188,-11.3075 4.3891,-12.0347 26.92564,-12.0347 17.16141,0 23.98625,1.6729 23.98625,5.8793 0,8.772 -15.13761,51.0968 -25.63265,71.6687 -14.41204,28.2499 -54.29098,68.3073 -83.5042,83.8776 -47.12506,25.1176 -115.77212,33.2734 -166.56966,19.7902 z m 1111.57885,4.3227 c -49.8068,-9.2349 -100.2515,-39.0491 -131.5799,-77.7672 -38.8785,-48.0493 -47.5247,-92.1961 -47.6771,-243.4365 -0.1544,-153.10652 7.8331,-197.89431 43.8937,-246.12495 62.0411,-82.97952 182.2887,-109.66896 279.2012,-61.96982 38.6644,19.03005 76.4962,55.4583 93.1546,89.69889 21.1356,43.44295 23.4013,64.63757 23.3458,218.39588 -0.045,123.8381 -1.0769,145.908 -7.9829,170.6756 -18.4082,66.0177 -64.246,114.5735 -132.0071,139.8345 -25.8364,9.6316 -93.601,15.6528 -120.3483,10.6936 z m 74.7409,-45.5623 c 45.798,-8.6854 89.1444,-38.4018 111.3928,-76.3659 20.8747,-35.6208 24.8842,-68.1472 24.8338,-201.46444 -0.051,-134.32414 -4.4485,-171.05512 -24.5969,-205.43575 -19.6328,-33.50063 -64.7991,-66.38419 -102.3279,-74.49984 -19.157,-4.14273 -65.1003,-4.27869 -84.1157,-0.24854 -25.3896,5.38065 -65.1967,28.96685 -82.9742,49.16308 -21.7939,24.75919 -33.7668,50.78478 -39.3013,85.42878 -5.9934,37.51727 -6.167,248.03351 -0.2359,286.00411 6.3149,40.4272 22.1758,71.6907 48.2764,95.1573 43.0225,38.6811 93.082,52.8746 149.0489,42.2607 z M 254.14943,968.5678 l 1.1223,-322.97106 h 24.06963 24.06964 v 321.65775 321.65771 l -25.19193,1.3134 -25.19208,1.3133 z m 690.45429,319.2503 c 0.0348,-1.8052 53.01412,-147.0435 117.72898,-322.75184 l 117.6634,-319.46952 21.8107,-1.30533 c 20.4143,-1.22194 22.0931,-0.52134 26.2212,10.94071 2.4256,6.73537 55.8234,151.8227 118.6617,322.41646 62.8382,170.59372 114.2512,311.00262 114.2512,312.01992 0,1.0173 -12.0678,1.2632 -26.8175,0.5466 l -26.8176,-1.3029 -27.3441,-76.5852 -27.344,-76.5851 h -150.0033 -150.0032 l -16.0203,43.7629 c -8.8111,24.0696 -21.5114,59.0254 -28.2228,77.6793 l -12.20244,33.9163 H 970.352 c -14.19762,0 -25.78431,-1.477 -25.74828,-3.2823 z m 388.35018,-205.6858 c -5.2969,-19.3603 -126.8445,-358.11771 -129.473,-360.84646 -2.5733,-2.67123 -132.5262,356.43846 -132.1651,365.22266 0.074,1.8052 59.4446,3.2823 131.9342,3.2823 123.4039,0 131.6659,-0.4879 129.7039,-7.6585 z"
       style="fill:#999999;stroke-width:4.37629557" />
    <path
       inkscape:connector-curvature="0"
       id="path2815"
       d="M -61.362487,490.14637 V 1435.1287"
       style="fill:#999999;fill-opacity:1;stroke:#000000;stroke-width:15;stroke-linecap:butt;stroke-linejoin:miter;stroke-miterlimit:4;stroke-dasharray:none;stroke-opacity:1" />
  </g>
</svg>
