<?xml version="1.0" encoding="UTF-8" standalone="no"?>
<svg
   xmlns:dc="http://purl.org/dc/elements/1.1/"
   xmlns:cc="http://creativecommons.org/ns#"
   xmlns:rdf="http://www.w3.org/1999/02/22-rdf-syntax-ns#"
   xmlns:svg="http://www.w3.org/2000/svg"
   xmlns="http://www.w3.org/2000/svg"
   xmlns:sodipodi="http://sodipodi.sourceforge.net/DTD/sodipodi-0.dtd"
   xmlns:inkscape="http://www.inkscape.org/namespaces/inkscape"
   height="200"
   viewBox="0 0 350 200"
   width="350"
   version="1.1"
   id="svg1627"
   sodipodi:docname="sovrin.svg"
   inkscape:version="0.92.4 (5da689c313, 2019-01-14)">
  <metadata
     id="metadata1633">
    <rdf:RDF>
      <cc:Work
         rdf:about="">
        <dc:format>image/svg+xml</dc:format>
        <dc:type
           rdf:resource="http://purl.org/dc/dcmitype/StillImage" />
        <dc:title></dc:title>
      </cc:Work>
    </rdf:RDF>
  </metadata>
  <defs
     id="defs1631" />
  <sodipodi:namedview
     pagecolor="#ffffff"
     bordercolor="#666666"
     borderopacity="1"
     objecttolerance="10"
     gridtolerance="10"
     guidetolerance="10"
     inkscape:pageopacity="0"
     inkscape:pageshadow="2"
     inkscape:window-width="1600"
     inkscape:window-height="837"
     id="namedview1629"
     showgrid="false"
     fit-margin-top="0"
     fit-margin-left="0"
     fit-margin-right="0"
     fit-margin-bottom="0"
     inkscape:zoom="1.4352941"
     inkscape:cx="52.745894"
     inkscape:cy="18.255"
     inkscape:window-x="-8"
     inkscape:window-y="-8"
     inkscape:window-maximized="1"
     inkscape:current-layer="svg1627" />
  <g
     id="g1625"
     transform="matrix(1.7681755,0,0,1.7681755,24.707219,67.39396)"
     style="fill:#999999">
    <path
       d="m 0.31,16.188 c 0.498,-1.539 2.147,-2.384 3.687,-1.881 1.374,0.448 2.193,1.821 1.99,3.21 l 4.999,1.62 c -0.139,0.307 -0.244,0.634 -0.315,0.974 L 5.667,18.487 C 5.01,19.713 3.554,20.33 2.186,19.886 0.65,19.384 -0.19,17.729 0.31,16.188 Z m 0,9.71 c -0.5,-1.54 0.34,-3.195 1.876,-3.696 1.381,-0.448 2.847,0.185 3.497,1.433 l 4.992,-1.641 c 0.07,0.34 0.177,0.666 0.317,0.974 L 5.993,24.61 C 6.174,25.986 5.36,27.338 3.997,27.784 2.457,28.285 0.808,27.437 0.31,25.898 Z m 5.692,7.857 c 1.305,0.951 3.138,0.663 4.088,-0.648 0.841,-1.162 0.71,-2.733 -0.242,-3.738 l 3.08,-4.279 C 12.63,24.92 12.355,24.72 12.102,24.491 L 9.029,28.76 C 7.774,28.126 6.21,28.48 5.355,29.658 4.404,30.967 4.695,32.801 6.002,33.755 Z M 24.423,8.333 c -1.304,-0.951 -3.137,-0.664 -4.085,0.649 -0.844,1.163 -0.712,2.734 0.241,3.739 l -3.082,4.277 c 0.299,0.171 0.574,0.372 0.827,0.6 l 3.073,-4.269 c 1.257,0.633 2.821,0.28 3.675,-0.899 0.95,-1.31 0.66,-3.144 -0.649,-4.097 z m 5.693,7.855 c 0.501,1.541 -0.34,3.196 -1.878,3.698 -1.377,0.447 -2.846,-0.185 -3.495,-1.43 l -4.993,1.638 c -0.069,-0.34 -0.176,-0.667 -0.317,-0.974 l 5.002,-1.642 c -0.183,-1.374 0.632,-2.728 1.995,-3.171 1.537,-0.503 3.188,0.342 3.686,1.881 z m 0,9.71 c -0.498,1.539 -2.149,2.387 -3.686,1.886 -1.377,-0.45 -2.192,-1.824 -1.99,-3.211 l -5,-1.62 c 0.14,-0.31 0.245,-0.635 0.315,-0.975 l 5.006,1.624 c 0.655,-1.227 2.111,-1.845 3.477,-1.4 1.538,0.501 2.379,2.156 1.878,3.696 z m -5.693,7.857 c 1.308,-0.954 1.599,-2.788 0.649,-4.097 -0.849,-1.167 -2.392,-1.525 -3.642,-0.917 l -3.093,-4.262 c -0.251,0.23 -0.527,0.433 -0.824,0.602 l 3.092,4.26 c -0.976,1.004 -1.118,2.593 -0.269,3.766 0.95,1.311 2.783,1.599 4.087,0.648 z M 15.213,5.332 c 1.616,0 2.925,1.312 2.925,2.934 0,1.448 -1.041,2.645 -2.415,2.887 v 5.272 c -0.167,-0.02 -0.338,-0.029 -0.511,-0.029 -0.173,0 -0.341,0.009 -0.51,0.029 v -5.272 c -1.373,-0.242 -2.414,-1.439 -2.414,-2.887 0,-1.622 1.309,-2.934 2.925,-2.934 z m 0.51,25.603 c 1.374,0.244 2.415,1.442 2.415,2.889 0,1.622 -1.309,2.931 -2.925,2.931 -1.616,0 -2.925,-1.309 -2.925,-2.931 0,-1.447 1.041,-2.645 2.414,-2.889 v -5.271 c 0.169,0.019 0.337,0.028 0.51,0.028 0.173,0 0.344,-0.009 0.511,-0.028 z M 15.213,18.11 c -1.615,0 -2.925,1.314 -2.925,2.935 0,1.622 1.309,2.932 2.925,2.934 1.616,-0.002 2.924,-1.312 2.924,-2.934 0,-1.621 -1.309,-2.935 -2.924,-2.935 z M 6.003,8.333 C 4.694,9.286 4.404,11.12 5.355,12.43 c 0.846,1.169 2.39,1.525 3.64,0.917 l 3.095,4.262 c 0.251,-0.229 0.526,-0.432 0.822,-0.602 L 9.82,12.75 C 10.797,11.746 10.939,10.155 10.089,8.982 9.14,7.669 7.307,7.382 6.003,8.333 Z"
       id="path1621"
       inkscape:connector-curvature="0"
       style="fill:#999999" />
    <path
       d="m 52.475,22.248 c -1.831,-0.333 -4.191,-0.892 -5.674,-1.972 -1.905,-1.119 -2.981,-2.777 -2.981,-5.012 0,-2.278 1.133,-4.051 2.946,-5.388 1.888,-1.302 4.124,-1.777 6.388,-1.777 1.068,0 2.118,0.18 3.134,0.507 0.785,0.255 1.64,0.555 2.364,0.952 0.73,0.401 1.458,0.858 2.188,1.321 0.413,0.31 0.689,0.743 0.788,1.248 0.102,0.505 0.026,0.997 -0.245,1.433 -0.28,0.45 -0.708,0.728 -1.226,0.831 -0.502,0.104 -1,0.023 -1.447,-0.257 -0.598,-0.41 -1.214,-0.829 -1.835,-1.203 -0.499,-0.304 -1.13,-0.539 -1.679,-0.734 -0.656,-0.233 -1.344,-0.382 -2.042,-0.382 -1.41,0 -2.934,0.249 -4.062,1.157 -0.66,0.533 -1.367,1.286 -1.367,2.192 0,0.837 0.466,1.454 1.081,1.94 1.292,0.888 3.072,1.318 4.603,1.557 h 0.099 l 0.055,0.009 c 2.167,0.335 4.253,1.016 6.196,2.1 1.944,1.275 3.077,3.08 3.077,5.431 0,2.371 -1.128,4.229 -3.006,5.624 -1.947,1.453 -4.154,2.164 -6.582,2.164 -3.556,-0.036 -6.702,-1.437 -9.466,-3.66 -0.858,-0.759 -0.971,-1.738 -0.259,-2.605 0.321,-0.434 0.77,-0.682 1.307,-0.737 0.543,-0.053 1.028,0.11 1.414,0.448 1.866,1.369 4.232,2.689 6.611,2.689 1.596,0 3.298,-0.306 4.595,-1.359 0.793,-0.538 1.52,-1.28 1.505,-2.301 C 58.94,25.449 58.356,24.676 57.59,24.061 56.341,23.057 54.231,22.575 52.686,22.32 l -0.108,-0.019 z m 16.72,7.897 c -2.388,-2.551 -3.579,-5.602 -3.579,-9.102 0,-3.498 1.192,-6.547 3.579,-9.1 2.35,-2.512 5.246,-3.844 8.689,-3.844 3.442,0 6.336,1.332 8.688,3.844 2.388,2.553 3.58,5.602 3.58,9.1 0,3.5 -1.192,6.551 -3.58,9.102 -2.351,2.512 -5.246,3.844 -8.688,3.844 -3.444,0 -6.339,-1.332 -8.689,-3.844 z m 35.979,2.381 c -0.077,0.328 -0.252,0.622 -0.469,0.88 -0.324,0.381 -0.759,0.583 -1.256,0.583 -0.402,0 -0.789,-0.094 -1.149,-0.275 l -0.108,-0.055 -0.085,-0.085 c -0.226,-0.228 -0.437,-0.492 -0.555,-0.785 L 92.409,10.974 c -0.214,-0.489 -0.212,-1.004 0.005,-1.495 0.479,-1.051 1.375,-1.508 2.442,-1.027 0.512,0.205 0.882,0.556 1.05,1.056 l 7.42,17.614 7.408,-17.588 c 0.172,-0.513 0.533,-0.87 1.029,-1.08 0.492,-0.207 1.011,-0.212 1.499,0.003 1.085,0.468 1.425,1.419 0.98,2.507 z M 123.14,13.037 c 2.316,-2.981 5.363,-4.89 9.355,-4.89 0.525,0 0.995,0.193 1.363,0.565 0.372,0.373 0.567,0.843 0.567,1.369 0,0.526 -0.195,0.997 -0.564,1.367 -0.371,0.374 -0.841,0.566 -1.366,0.566 -2.754,0 -4.847,1.591 -6.473,3.693 -1.237,1.656 -2.146,3.533 -2.823,5.481 l -0.015,0.045 -0.044,0.109 v 10.716 c 0,0.526 -0.193,0.994 -0.564,1.369 -0.371,0.372 -0.841,0.562 -1.365,0.562 -0.522,0 -0.993,-0.19 -1.366,-0.564 -0.37,-0.373 -0.564,-0.841 -0.564,-1.367 V 10.081 c 0,-0.526 0.194,-0.996 0.564,-1.371 0.373,-0.369 0.841,-0.563 1.366,-0.563 0.524,0 0.994,0.194 1.367,0.565 0.369,0.373 0.562,0.843 0.562,1.369 z m 15.992,19.021 V 10.03 c 0,-0.526 0.195,-0.996 0.564,-1.368 0.373,-0.375 0.856,-0.563 1.388,-0.563 0.532,0 1.018,0.188 1.391,0.563 0.368,0.372 0.563,0.847 0.563,1.368 v 22.028 c 0,0.538 -0.213,1.02 -0.607,1.387 -0.38,0.354 -0.848,0.544 -1.372,0.544 -0.522,0 -0.997,-0.193 -1.365,-0.564 -0.367,-0.368 -0.562,-0.841 -0.562,-1.367 z m 0,-28.854 V 2.06 c 0,-0.528 0.19,-0.998 0.562,-1.37 0.37,-0.373 0.841,-0.564 1.365,-0.564 0.524,0 0.99,0.188 1.372,0.544 0.397,0.369 0.607,0.852 0.607,1.39 v 1.144 c 0,0.55 -0.195,1.053 -0.589,1.443 -0.378,0.381 -0.852,0.59 -1.39,0.59 -0.538,0 -1.015,-0.213 -1.382,-0.608 -0.368,-0.394 -0.545,-0.885 -0.545,-1.425 z m 9.681,29.842 c -0.156,-0.17 -0.183,-0.257 -0.185,-0.416 l -0.051,-0.101 V 10.081 c 0,-0.526 0.193,-0.996 0.565,-1.369 0.37,-0.371 0.839,-0.565 1.365,-0.565 0.527,0 0.998,0.198 1.358,0.585 0.346,0.375 0.52,0.839 0.52,1.349 v 0.524 c 1.81,-1.599 3.989,-2.458 6.545,-2.458 3.004,0 5.643,0.991 7.777,3.133 2.069,2.071 3.125,4.588 3.125,7.521 v 13.257 c 0,0.526 -0.192,0.996 -0.563,1.369 -0.372,0.372 -0.841,0.562 -1.363,0.562 -0.528,0 -0.997,-0.19 -1.367,-0.564 -0.372,-0.371 -0.565,-0.841 -0.565,-1.367 V 18.801 c 0,-1.875 -0.659,-3.456 -1.975,-4.788 -1.317,-1.337 -2.895,-1.999 -4.769,-1.999 -1.872,0 -3.45,0.651 -4.774,1.976 -1.336,1.341 -2.011,2.938 -2.071,4.818 v 13.54 l -0.022,0.087 c -0.233,0.937 -0.867,1.554 -1.856,1.554 h -0.397 l -0.096,-0.025 c -0.523,-0.142 -0.935,-0.457 -1.201,-0.918 z M 77.884,11.914 c -2.361,0 -4.293,0.944 -5.902,2.659 -1.7,1.815 -2.51,3.961 -2.51,6.448 0,2.484 0.811,4.631 2.51,6.446 1.609,1.715 3.541,2.657 5.902,2.657 2.359,0 4.292,-0.942 5.9,-2.657 1.7,-1.815 2.51,-3.962 2.51,-6.446 0,-2.487 -0.808,-4.633 -2.51,-6.448 -1.608,-1.715 -3.54,-2.659 -5.9,-2.659 z"
       id="path1623"
       inkscape:connector-curvature="0"
       style="fill:#999999" />
  </g>
</svg>
