<?xml version="1.0" encoding="UTF-8" standalone="no"?>
<!-- Created with Inkscape (http://www.inkscape.org/) -->

<svg
   xmlns:dc="http://purl.org/dc/elements/1.1/"
   xmlns:cc="http://creativecommons.org/ns#"
   xmlns:rdf="http://www.w3.org/1999/02/22-rdf-syntax-ns#"
   xmlns:svg="http://www.w3.org/2000/svg"
   xmlns="http://www.w3.org/2000/svg"
   xmlns:xlink="http://www.w3.org/1999/xlink"
   xmlns:sodipodi="http://sodipodi.sourceforge.net/DTD/sodipodi-0.dtd"
   xmlns:inkscape="http://www.inkscape.org/namespaces/inkscape"
   width="5000.854mm"
   height="3362.9739mm"
   viewBox="0 0 5000.854 3362.9739"
   version="1.1"
   id="svg2034"
   sodipodi:docname="grafica.svg"
   inkscape:version="0.92.4 (5da689c313, 2019-01-14)">
  <defs
     id="defs2028">
    <linearGradient
       inkscape:collect="always"
       xlink:href="#linearGradient928"
       id="linearGradient930"
       x1="3838.2693"
       y1="2805.0508"
       x2="3862.6877"
       y2="3689.7192"
       gradientUnits="userSpaceOnUse"
       gradientTransform="matrix(1.2337622,0,0,1.3902847,-2005.599,939.92298)" />
    <linearGradient
       inkscape:collect="always"
       id="linearGradient928">
      <stop
         style="stop-color:#4e79d5;stop-opacity:1;"
         offset="0"
         id="stop924" />
      <stop
         style="stop-color:#7a54c4;stop-opacity:1"
         offset="1"
         id="stop926" />
    </linearGradient>
    <linearGradient
       inkscape:collect="always"
       xlink:href="#linearGradient1859"
       id="linearGradient1861"
       x1="3838.2693"
       y1="2805.0508"
       x2="3862.6877"
       y2="3689.7192"
       gradientUnits="userSpaceOnUse"
       gradientTransform="matrix(1.2337622,0,0,1.3902847,-2005.599,939.92298)" />
    <linearGradient
       inkscape:collect="always"
       id="linearGradient1859">
      <stop
         style="stop-color:#6d63c9;stop-opacity:1;"
         offset="0"
         id="stop1855" />
      <stop
         style="stop-color:#7a54c4;stop-opacity:1"
         offset="1"
         id="stop1857" />
    </linearGradient>
  </defs>
  <sodipodi:namedview
     id="base"
     pagecolor="#ffffff"
     bordercolor="#666666"
     borderopacity="1.0"
     inkscape:pageopacity="0.0"
     inkscape:pageshadow="2"
     inkscape:zoom="0.031612645"
     inkscape:cx="10886.147"
     inkscape:cy="5749.512"
     inkscape:document-units="mm"
     inkscape:current-layer="layer1"
     showgrid="false"
     inkscape:window-width="1600"
     inkscape:window-height="837"
     inkscape:window-x="-8"
     inkscape:window-y="-8"
     inkscape:window-maximized="1"
     fit-margin-top="0"
     fit-margin-left="0"
     fit-margin-right="0"
     fit-margin-bottom="0" />
  <metadata
     id="metadata2031">
    <rdf:RDF>
      <cc:Work
         rdf:about="">
        <dc:format>image/svg+xml</dc:format>
        <dc:type
           rdf:resource="http://purl.org/dc/dcmitype/StillImage" />
        <dc:title></dc:title>
      </cc:Work>
    </rdf:RDF>
  </metadata>
  <g
     inkscape:label="Layer 1"
     inkscape:groupmode="layer"
     id="layer1"
     transform="translate(2577.9121,1532.6536)">
    <path
       style="opacity:0.52600002;fill:none;fill-opacity:1;stroke:none;stroke-width:20;stroke-linecap:round;stroke-linejoin:round;stroke-miterlimit:4;stroke-dasharray:none;stroke-dashoffset:0;stroke-opacity:1"
       d="m -2577.9121,-1532.6536 h 5000.854 v 3362.9739 h -5000.854 z"
       id="rect1977"
       inkscape:connector-curvature="0" />
    <g
       id="g1917"
       transform="matrix(-1,0,0,1,2602.2041,-5287.6173)">
      <path
         sodipodi:nodetypes="ccccccccccc"
         inkscape:connector-curvature="0"
         id="path3808-8-6"
         d="m 390.9805,6358.3984 312.44318,-225.3234 287.28745,11.7686 261.81717,-278.57 347.9045,-184.356 553.0269,-288.4131 576.4531,1.1594 592.8234,-341.3049 569.9249,341.3049 568.3968,-859.2724 -2.4158,1824.7683"
         style="opacity:0.57700004;fill:#1ccefa;fill-opacity:0.56862745;stroke:#1bcefa;stroke-width:0.26458332px;stroke-linecap:butt;stroke-linejoin:miter;stroke-opacity:0.58823529" />
      <path
         sodipodi:nodetypes="ccccccccccc"
         inkscape:connector-curvature="0"
         id="path3808-8"
         d="m 390.98064,6358.397 312.44304,-225.3234 287.28745,11.7689 261.81737,-278.57 347.904,-184.3559 553.0271,-288.4132 576.4531,1.1609 592.8235,-341.3053 569.9252,341.3053 568.3961,-859.2724 -2.416,1824.7667"
         style="opacity:1;fill:url(#linearGradient930);fill-opacity:1;stroke:url(#linearGradient1861);stroke-width:0.26458332px;stroke-linecap:butt;stroke-linejoin:miter;stroke-opacity:1" />
      <g
         style="stroke:#545454;stroke-width:0.76354104;stroke-opacity:1"
         transform="matrix(1.2337622,0,0,1.3902847,-777.06295,2443.87)"
         id="g922">
        <path
           style="fill:none;stroke:#545454;stroke-width:15.27082157;stroke-linecap:butt;stroke-linejoin:miter;stroke-miterlimit:4;stroke-dasharray:none;stroke-opacity:1"
           d="m 4245.6482,1504.3841 -460.7014,618.0545 -461.9408,-245.4929 -480.5006,245.4929 -467.2317,-0.8348 -730.2309,340.0518 -212.2107,200.3692 -232.8545,-8.4651 -253.24426,162.07"
           id="path3810"
           inkscape:connector-curvature="0"
           sodipodi:nodetypes="ccccccccc" />
        <path
           style="opacity:1;fill:#f9f9f9;fill-opacity:1;stroke:#545454;stroke-width:15.27082157;stroke-linecap:round;stroke-linejoin:round;stroke-miterlimit:4;stroke-dasharray:none;stroke-dashoffset:0;stroke-opacity:1"
           d="m 1241.5555,2655.1985 a 40.977203,40.977203 0 0 1 -40.9773,40.9772 40.977203,40.977203 0 0 1 -40.9772,-40.9772 40.977203,40.977203 0 0 1 40.9772,-40.9772 40.977203,40.977203 0 0 1 40.9773,40.9772 z"
           id="path3814"
           inkscape:connector-curvature="0" />
        <path
           style="opacity:1;fill:#f9f9f9;fill-opacity:1;stroke:#545454;stroke-width:15.27082157;stroke-linecap:round;stroke-linejoin:round;stroke-miterlimit:4;stroke-dasharray:none;stroke-dashoffset:0;stroke-opacity:1"
           d="m 1471.2,2662.6423 a 40.977203,40.977203 0 0 1 -40.9772,40.9772 40.977203,40.977203 0 0 1 -40.9772,-40.9772 40.977203,40.977203 0 0 1 40.9772,-40.9772 40.977203,40.977203 0 0 1 40.9772,40.9772 z"
           id="path3814-3"
           inkscape:connector-curvature="0" />
        <path
           style="opacity:1;fill:#f9f9f9;fill-opacity:1;stroke:#545454;stroke-width:15.27082157;stroke-linecap:round;stroke-linejoin:round;stroke-miterlimit:4;stroke-dasharray:none;stroke-dashoffset:0;stroke-opacity:1"
           d="m 1678.0818,2465.8162 a 40.977203,40.977203 0 0 1 -40.9772,40.9772 40.977203,40.977203 0 0 1 -40.9772,-40.9772 40.977203,40.977203 0 0 1 40.9772,-40.9772 40.977203,40.977203 0 0 1 40.9772,40.9772 z"
           id="path3814-36"
           inkscape:connector-curvature="0" />
        <path
           style="opacity:1;fill:#f9f9f9;fill-opacity:1;stroke:#545454;stroke-width:15.27082157;stroke-linecap:round;stroke-linejoin:round;stroke-miterlimit:4;stroke-dasharray:none;stroke-dashoffset:0;stroke-opacity:1"
           d="m 2415.4523,2116.4626 a 40.977203,40.977203 0 0 1 -40.9772,40.9772 40.977203,40.977203 0 0 1 -40.9772,-40.9772 40.977203,40.977203 0 0 1 40.9772,-40.9772 40.977203,40.977203 0 0 1 40.9772,40.9772 z"
           id="path3814-36-2"
           inkscape:connector-curvature="0" />
        <path
           style="opacity:1;fill:#f9f9f9;fill-opacity:1;stroke:#545454;stroke-width:15.27082157;stroke-linecap:round;stroke-linejoin:round;stroke-miterlimit:4;stroke-dasharray:none;stroke-dashoffset:0;stroke-opacity:1"
           d="m 2879.0563,2120.6335 a 40.977203,40.977203 0 0 1 -40.9772,40.9772 40.977203,40.977203 0 0 1 -40.9772,-40.9772 40.977203,40.977203 0 0 1 40.9772,-40.9772 40.977203,40.977203 0 0 1 40.9772,40.9772 z"
           id="path3814-36-9"
           inkscape:connector-curvature="0" />
        <path
           style="opacity:1;fill:#f9f9f9;fill-opacity:1;stroke:#545454;stroke-width:15.27082157;stroke-linecap:round;stroke-linejoin:round;stroke-miterlimit:4;stroke-dasharray:none;stroke-dashoffset:0;stroke-opacity:1"
           d="m 3366.5221,1878.6052 a 40.977203,40.977203 0 0 1 -40.9772,40.9772 40.977203,40.977203 0 0 1 -40.9772,-40.9772 40.977203,40.977203 0 0 1 40.9772,-40.9772 40.977203,40.977203 0 0 1 40.9772,40.9772 z"
           id="path3814-36-9-1"
           inkscape:connector-curvature="0" />
        <path
           style="opacity:1;fill:#f9f9f9;fill-opacity:1;stroke:#545454;stroke-width:15.27082157;stroke-linecap:round;stroke-linejoin:round;stroke-miterlimit:4;stroke-dasharray:none;stroke-dashoffset:0;stroke-opacity:1"
           d="m 3836.944,2110.408 a 40.977203,40.977203 0 0 1 -40.9772,40.9772 40.977203,40.977203 0 0 1 -40.9772,-40.9772 40.977203,40.977203 0 0 1 40.9772,-40.9772 40.977203,40.977203 0 0 1 40.9772,40.9772 z"
           id="path3814-36-9-1-9"
           inkscape:connector-curvature="0" />
        <path
           style="opacity:1;fill:#f9f9f9;fill-opacity:1;stroke:#545454;stroke-width:15.27082157;stroke-linecap:round;stroke-linejoin:round;stroke-miterlimit:4;stroke-dasharray:none;stroke-dashoffset:0;stroke-opacity:1"
           d="m 4269.8688,1520.676 a 40.977203,40.977203 0 0 1 -40.9772,40.9772 40.977203,40.977203 0 0 1 -40.9772,-40.9772 40.977203,40.977203 0 0 1 40.9772,-40.9772 40.977203,40.977203 0 0 1 40.9772,40.9772 z"
           id="path3814-36-9-1-96"
           inkscape:connector-curvature="0" />
      </g>
    </g>
    <g
       aria-label="50  40  30  20  10"
       style="font-style:normal;font-weight:normal;font-size:97.72828674px;line-height:1.25;font-family:sans-serif;letter-spacing:0px;word-spacing:0px;fill:#7856c6;fill-opacity:1;stroke:#7856c5;stroke-width:0.19033898;stroke-opacity:1"
       id="text3788"
       transform="matrix(1.3898421,0,0,1.3902847,-1609.1566,-7806.0368)">
      <path
         inkscape:connector-curvature="0"
         d="m -523.07812,5404.4226 q 0,4.9628 -1.81332,9.4961 -1.81332,4.5333 -4.96277,7.635 -3.43576,3.3403 -8.20765,5.1536 -4.72417,1.7656 -10.97534,1.7656 -5.8217,0 -11.21394,-1.2407 -5.39223,-1.1929 -9.11431,-2.9108 v -10.0687 h 0.66807 q 3.91295,2.4814 9.16202,4.247 5.24908,1.7179 10.30728,1.7179 3.38805,0 6.53749,-0.9544 3.19717,-0.9544 5.67855,-3.3403 2.09963,-2.0519 3.14945,-4.9151 1.09753,-2.8631 1.09753,-6.6329 0,-3.6744 -1.28841,-6.2035 -1.24069,-2.5291 -3.48348,-4.0561 -2.48138,-1.8133 -6.0603,-2.5291 -3.53119,-0.7635 -7.92133,-0.7635 -4.19926,0 -8.11221,0.5727 -3.86523,0.5726 -6.68065,1.1452 v -36.6004 h 42.75613 v 8.3508 h -33.54638 v 18.8967 q 2.05191,-0.1909 4.19926,-0.2863 2.14735,-0.095 3.72207,-0.095 5.77399,0 10.11641,1.0021 4.34242,0.9543 7.96905,3.4357 3.81751,2.6246 5.91715,6.7761 2.09963,4.1515 2.09963,10.4027 z"
         style="fill:#7856c6;fill-opacity:1;stroke:#7856c5;stroke-width:0.19033898;stroke-opacity:1"
         id="path3938" />
      <path
         inkscape:connector-curvature="0"
         d="m -460.3755,5391.4431 q 0,19.1353 -6.01258,28.1064 -5.96486,8.9234 -18.56265,8.9234 -12.78866,0 -18.7058,-9.0666 -5.86943,-9.0665 -5.86943,-27.8678 0,-18.9444 5.96486,-27.9633 5.96486,-9.0665 18.61037,-9.0665 12.78866,0 18.65809,9.2097 5.91714,9.162 5.91714,27.7247 z m -12.55007,21.6644 q 1.67016,-3.8653 2.24279,-9.0666 0.62034,-5.2491 0.62034,-12.5978 0,-7.2533 -0.62034,-12.5978 -0.57263,-5.3445 -2.29051,-9.0666 -1.67016,-3.6744 -4.58101,-5.5354 -2.86314,-1.861 -7.39643,-1.861 -4.48558,0 -7.44415,1.861 -2.91085,1.861 -4.62873,5.6308 -1.62244,3.5312 -2.24279,9.2098 -0.57262,5.6785 -0.57262,12.4546 0,7.4442 0.5249,12.4546 0.52491,5.0105 2.24279,8.9712 1.57473,3.7221 4.43786,5.6785 2.91085,1.9565 7.68274,1.9565 4.48558,0 7.44415,-1.861 2.95857,-1.8611 4.58101,-5.6308 z"
         style="fill:#7856c6;fill-opacity:1;stroke:#7856c5;stroke-width:0.19033898;stroke-opacity:1"
         id="path3940" />
      <path
         inkscape:connector-curvature="0"
         d="m -520.88305,5651.3202 h -10.54588 v 19.9942 h -9.16203 v -19.9942 h -34.02356 v -10.9754 l 34.40531,-40.0839 h 8.78028 v 43.4242 h 10.54588 z m -19.70791,-7.6351 v -32.0671 l -27.5338,32.0671 z"
         style="fill:#7856c6;fill-opacity:1;stroke:#7856c5;stroke-width:0.19033898;stroke-opacity:1"
         id="path3942" />
      <path
         inkscape:connector-curvature="0"
         d="m -460.3755,5635.7638 q 0,19.1353 -6.01258,28.1064 -5.96486,8.9235 -18.56265,8.9235 -12.78866,0 -18.7058,-9.0666 -5.86943,-9.0666 -5.86943,-27.8679 0,-18.9444 5.96486,-27.9632 5.96486,-9.0666 18.61037,-9.0666 12.78866,0 18.65809,9.2097 5.91714,9.162 5.91714,27.7247 z m -12.55007,21.6644 q 1.67016,-3.8653 2.24279,-9.0666 0.62034,-5.2491 0.62034,-12.5978 0,-7.2533 -0.62034,-12.5978 -0.57263,-5.3445 -2.29051,-9.0666 -1.67016,-3.6743 -4.58101,-5.5354 -2.86314,-1.861 -7.39643,-1.861 -4.48558,0 -7.44415,1.861 -2.91085,1.8611 -4.62873,5.6309 -1.62244,3.5312 -2.24279,9.2097 -0.57262,5.6786 -0.57262,12.4546 0,7.4442 0.5249,12.4547 0.52491,5.0104 2.24279,8.9711 1.57473,3.7221 4.43786,5.6786 2.91085,1.9564 7.68274,1.9564 4.48558,0 7.44415,-1.861 2.95857,-1.861 4.58101,-5.6308 z"
         style="fill:#7856c6;fill-opacity:1;stroke:#7856c5;stroke-width:0.19033898;stroke-opacity:1"
         id="path3944" />
      <path
         inkscape:connector-curvature="0"
         d="m -528.75667,5881.4206 q 2.29051,2.052 3.76979,5.1537 1.47929,3.1017 1.47929,8.0168 0,4.8673 -1.7656,8.9234 -1.7656,4.0561 -4.96277,7.0624 -3.57891,3.3403 -8.44624,4.9627 -4.81961,1.5748 -10.59359,1.5748 -5.91715,0 -11.64341,-1.4316 -5.72627,-1.3838 -9.40062,-3.054 v -9.9733 h 0.71578 q 4.0561,2.6723 9.54378,4.4379 5.48767,1.7656 10.59359,1.7656 3.00629,0 6.39433,-1.0021 3.38804,-1.0021 5.48767,-2.9586 2.19507,-2.0996 3.24489,-4.6287 1.09753,-2.5291 1.09753,-6.3943 0,-3.8175 -1.24069,-6.2989 -1.19297,-2.5291 -3.34032,-3.9607 -2.14735,-1.4793 -5.20136,-2.0042 -3.05401,-0.5726 -6.58521,-0.5726 h -4.2947 v -7.9213 h 3.34033 q 7.25327,0 11.54797,-3.0063 4.34242,-3.054 4.34242,-8.8757 0,-2.5769 -1.09754,-4.4856 -1.09753,-1.9565 -3.05401,-3.1972 -2.05191,-1.2407 -4.39014,-1.7179 -2.33822,-0.4772 -5.29679,-0.4772 -4.5333,0 -9.63922,1.6225 -5.10592,1.6224 -9.63921,4.581 h -0.47719 v -9.9733 q 3.38804,-1.6701 9.01887,-3.054 5.67855,-1.4315 10.97534,-1.4315 5.20136,0 9.16203,0.9544 3.96067,0.9543 7.15783,3.054 3.43576,2.2905 5.20136,5.5354 1.7656,3.2448 1.7656,7.5873 0,5.9171 -4.19926,10.355 -4.15155,4.3901 -9.83009,5.5353 v 0.6681 q 2.2905,0.3818 5.24907,1.6225 2.95858,1.1929 5.01049,3.0062 z"
         style="fill:#7856c6;fill-opacity:1;stroke:#7856c5;stroke-width:0.19033898;stroke-opacity:1"
         id="path3946" />
      <path
         inkscape:connector-curvature="0"
         d="m -460.3755,5880.0845 q 0,19.1353 -6.01258,28.1064 -5.96486,8.9235 -18.56265,8.9235 -12.78866,0 -18.7058,-9.0666 -5.86943,-9.0666 -5.86943,-27.8678 0,-18.9444 5.96486,-27.9633 5.96486,-9.0666 18.61037,-9.0666 12.78866,0 18.65809,9.2097 5.91714,9.1621 5.91714,27.7247 z m -12.55007,21.6644 q 1.67016,-3.8652 2.24279,-9.0666 0.62034,-5.2491 0.62034,-12.5978 0,-7.2533 -0.62034,-12.5978 -0.57263,-5.3445 -2.29051,-9.0666 -1.67016,-3.6743 -4.58101,-5.5354 -2.86314,-1.861 -7.39643,-1.861 -4.48558,0 -7.44415,1.861 -2.91085,1.8611 -4.62873,5.6309 -1.62244,3.5312 -2.24279,9.2097 -0.57262,5.6786 -0.57262,12.4547 0,7.4441 0.5249,12.4546 0.52491,5.0105 2.24279,8.9711 1.57473,3.7221 4.43786,5.6786 2.91085,1.9565 7.68274,1.9565 4.48558,0 7.44415,-1.8611 2.95857,-1.861 4.58101,-5.6308 z"
         style="fill:#7856c6;fill-opacity:1;stroke:#7856c5;stroke-width:0.19033898;stroke-opacity:1"
         id="path3948" />
      <path
         inkscape:connector-curvature="0"
         d="m -522.5055,6159.9558 h -48.10064 v -9.9732 q 5.01049,-4.2947 10.02097,-8.5894 5.0582,-4.2947 9.40062,-8.5417 9.16203,-8.8757 12.55007,-14.0771 3.38804,-5.2491 3.38804,-11.3094 0,-5.5354 -3.67436,-8.6371 -3.62663,-3.1494 -10.16412,-3.1494 -4.34242,0 -9.40062,1.527 -5.0582,1.527 -9.87781,4.6764 h -0.47719 v -10.021 q 3.38804,-1.6701 9.01887,-3.054 5.67855,-1.3838 10.97535,-1.3838 10.92762,0 17.13108,5.2968 6.20345,5.2491 6.20345,14.2679 0,4.0561 -1.04981,7.5873 -1.0021,3.4835 -3.00629,6.633 -1.86104,2.9585 -4.39014,5.8217 -2.48138,2.8631 -6.0603,6.3466 -5.10592,5.0105 -10.54587,9.7346 -5.43996,4.6765 -10.16413,8.6849 h 38.22283 z"
         style="fill:#7856c6;fill-opacity:1;stroke:#7856c5;stroke-width:0.19033898;stroke-opacity:1"
         id="path3950" />
      <path
         inkscape:connector-curvature="0"
         d="m -460.3755,6124.4052 q 0,19.1353 -6.01258,28.1065 -5.96486,8.9234 -18.56265,8.9234 -12.78866,0 -18.7058,-9.0666 -5.86943,-9.0666 -5.86943,-27.8678 0,-18.9444 5.96486,-27.9633 5.96486,-9.0666 18.61037,-9.0666 12.78866,0 18.65809,9.2098 5.91714,9.162 5.91714,27.7246 z m -12.55007,21.6644 q 1.67016,-3.8652 2.24279,-9.0666 0.62034,-5.2491 0.62034,-12.5978 0,-7.2532 -0.62034,-12.5978 -0.57263,-5.3445 -2.29051,-9.0665 -1.67016,-3.6744 -4.58101,-5.5354 -2.86314,-1.8611 -7.39643,-1.8611 -4.48558,0 -7.44415,1.8611 -2.91085,1.861 -4.62873,5.6308 -1.62244,3.5312 -2.24279,9.2097 -0.57262,5.6786 -0.57262,12.4547 0,7.4441 0.5249,12.4546 0.52491,5.0105 2.24279,8.9711 1.57473,3.7221 4.43786,5.6786 2.91085,1.9565 7.68274,1.9565 4.48558,0 7.44415,-1.8611 2.95857,-1.861 4.58101,-5.6308 z"
         style="fill:#7856c6;fill-opacity:1;stroke:#7856c5;stroke-width:0.19033898;stroke-opacity:1"
         id="path3952" />
      <path
         inkscape:connector-curvature="0"
         d="m -526.5616,6404.2765 h -38.46143 v -7.2533 h 14.79286 v -47.6234 h -14.79286 v -6.4898 q 3.00629,0 6.44205,-0.4772 3.43576,-0.5249 5.20136,-1.4792 2.19507,-1.193 3.43576,-3.0063 1.28841,-1.8611 1.47929,-4.9628 h 7.39642 v 64.0387 h 14.50655 z"
         style="fill:#7856c6;fill-opacity:1;stroke:#7856c5;stroke-width:0.19033898;stroke-opacity:1"
         id="path3954" />
      <path
         inkscape:connector-curvature="0"
         d="m -460.3755,6368.7259 q 0,19.1353 -6.01258,28.1065 -5.96486,8.9234 -18.56265,8.9234 -12.78866,0 -18.7058,-9.0666 -5.86943,-9.0666 -5.86943,-27.8678 0,-18.9444 5.96486,-27.9633 5.96486,-9.0666 18.61037,-9.0666 12.78866,0 18.65809,9.2098 5.91714,9.162 5.91714,27.7246 z m -12.55007,21.6644 q 1.67016,-3.8652 2.24279,-9.0666 0.62034,-5.249 0.62034,-12.5978 0,-7.2532 -0.62034,-12.5977 -0.57263,-5.3446 -2.29051,-9.0666 -1.67016,-3.6744 -4.58101,-5.5354 -2.86314,-1.8611 -7.39643,-1.8611 -4.48558,0 -7.44415,1.8611 -2.91085,1.861 -4.62873,5.6308 -1.62244,3.5312 -2.24279,9.2098 -0.57262,5.6785 -0.57262,12.4546 0,7.4441 0.5249,12.4546 0.52491,5.0105 2.24279,8.9712 1.57473,3.722 4.43786,5.6785 2.91085,1.9565 7.68274,1.9565 4.48558,0 7.44415,-1.861 2.95857,-1.8611 4.58101,-5.6309 z"
         style="fill:#7856c6;fill-opacity:1;stroke:#7856c5;stroke-width:0.19033898;stroke-opacity:1"
         id="path3956" />
    </g>
    <path
       style="fill:#567bd5;fill-opacity:0.6745098;stroke:#29ecec;stroke-width:2.5;stroke-linecap:butt;stroke-linejoin:miter;stroke-miterlimit:4;stroke-dasharray:14.99999982, 14.99999982;stroke-dashoffset:0;stroke-opacity:1"
       d="m -2259.6395,-553.78527 4477.6472,-7.64489"
       id="path3487"
       inkscape:connector-curvature="0" />
    <path
       style="fill:#567bd5;fill-opacity:0.6745098;stroke:#29ecec;stroke-width:2.5;stroke-linecap:butt;stroke-linejoin:miter;stroke-miterlimit:4;stroke-dasharray:14.99999982, 14.99999982;stroke-dashoffset:0;stroke-opacity:1"
       d="m -2251.8659,-237.18143 4477.6469,-7.64504"
       id="path3487-8"
       inkscape:connector-curvature="0" />
    <path
       style="fill:#567bd5;fill-opacity:0.6745098;stroke:#29ecec;stroke-width:2.5;stroke-linecap:butt;stroke-linejoin:miter;stroke-miterlimit:4;stroke-dasharray:14.99999982, 14.99999982;stroke-dashoffset:0;stroke-opacity:1"
       d="M -2266.4239,107.50834 2211.2235,99.863023"
       id="path3487-8-3"
       inkscape:connector-curvature="0" />
    <path
       style="fill:#567bd5;fill-opacity:0.6745098;stroke:#29ecec;stroke-width:2.5;stroke-linecap:butt;stroke-linejoin:miter;stroke-miterlimit:4;stroke-dasharray:14.99999982, 14.99999982;stroke-dashoffset:0;stroke-opacity:1"
       d="m -2266.4239,436.24407 4477.6474,-7.64503"
       id="path3487-8-3-6"
       inkscape:connector-curvature="0" />
    <path
       style="fill:#567bd5;fill-opacity:0.6745098;stroke:#29ecec;stroke-width:2.5;stroke-linecap:butt;stroke-linejoin:miter;stroke-miterlimit:4;stroke-dasharray:14.99999982, 14.99999982;stroke-dashoffset:0;stroke-opacity:1"
       d="m -2266.4239,749.68946 4477.6474,-7.64504"
       id="path3487-8-3-6-6"
       inkscape:connector-curvature="0" />
    <path
       style="fill:#567bd5;fill-opacity:0.6745098;stroke:#29ecec;stroke-width:2.5;stroke-linecap:butt;stroke-linejoin:miter;stroke-miterlimit:4;stroke-dasharray:14.99999982, 14.99999982;stroke-dashoffset:0;stroke-opacity:1"
       d="m -2266.4239,1078.4251 4477.6474,-7.6454"
       id="path3487-8-3-6-6-1"
       inkscape:connector-curvature="0" />
    <path
       style="fill:#567bd5;fill-opacity:0.6745098;stroke:#29ecec;stroke-width:2.5;stroke-linecap:butt;stroke-linejoin:miter;stroke-miterlimit:4;stroke-dasharray:14.99999982, 14.99999982;stroke-dashoffset:0;stroke-opacity:1"
       d="m -1981.4826,1089.8923 6.7844,-1880.673"
       id="path3566"
       inkscape:connector-curvature="0" />
    <path
       style="fill:#567bd5;fill-opacity:0.6745098;stroke:#29ecec;stroke-width:2.5;stroke-linecap:butt;stroke-linejoin:miter;stroke-miterlimit:4;stroke-dasharray:14.99999982, 14.99999982;stroke-dashoffset:0;stroke-opacity:1"
       d="m -1699.9335,1078.4251 6.7843,-1880.67273"
       id="path3566-0"
       inkscape:connector-curvature="0" />
    <path
       style="fill:#567bd5;fill-opacity:0.6745098;stroke:#29ecec;stroke-width:2.5;stroke-linecap:butt;stroke-linejoin:miter;stroke-miterlimit:4;stroke-dasharray:14.99999982, 14.99999982;stroke-dashoffset:0;stroke-opacity:1"
       d="m -1401.5656,1078.4251 6.7846,-1880.67273"
       id="path3566-0-8"
       inkscape:connector-curvature="0" />
    <path
       style="fill:#567bd5;fill-opacity:0.6745098;stroke:#29ecec;stroke-width:2.5;stroke-linecap:butt;stroke-linejoin:miter;stroke-miterlimit:4;stroke-dasharray:14.99999982, 14.99999982;stroke-dashoffset:0;stroke-opacity:1"
       d="m -1098.0881,1078.4251 6.7842,-1880.67273"
       id="path3566-0-8-4"
       inkscape:connector-curvature="0" />
    <path
       style="fill:#567bd5;fill-opacity:0.6745098;stroke:#29ecec;stroke-width:2.5;stroke-linecap:butt;stroke-linejoin:miter;stroke-miterlimit:4;stroke-dasharray:14.99999982, 14.99999982;stroke-dashoffset:0;stroke-opacity:1"
       d="m -817.97269,1078.4251 6.78421,-1880.67273"
       id="path3566-0-8-4-4"
       inkscape:connector-curvature="0" />
    <path
       style="fill:#567bd5;fill-opacity:0.6745098;stroke:#29ecec;stroke-width:2.5;stroke-linecap:butt;stroke-linejoin:miter;stroke-miterlimit:4;stroke-dasharray:14.99999982, 14.99999982;stroke-dashoffset:0;stroke-opacity:1"
       d="m -533.03137,1078.4251 6.78421,-1880.67273"
       id="path3566-0-8-4-4-6"
       inkscape:connector-curvature="0" />
    <path
       style="fill:#567bd5;fill-opacity:0.6745098;stroke:#29ecec;stroke-width:2.5;stroke-linecap:butt;stroke-linejoin:miter;stroke-miterlimit:4;stroke-dasharray:14.99999982, 14.99999982;stroke-dashoffset:0;stroke-opacity:1"
       d="m -234.52149,1078.4251 6.78421,-1880.67273"
       id="path3566-0-8-4-4-6-5"
       inkscape:connector-curvature="0" />
    <path
       style="fill:#567bd5;fill-opacity:0.6745098;stroke:#29ecec;stroke-width:2.5;stroke-linecap:butt;stroke-linejoin:miter;stroke-miterlimit:4;stroke-dasharray:14.99999982, 14.99999982;stroke-dashoffset:0;stroke-opacity:1"
       d="M 57.203678,1078.4251 63.988013,-802.24763"
       id="path3566-0-8-4-4-6-8"
       inkscape:connector-curvature="0" />
    <path
       style="fill:#567bd5;fill-opacity:0.6745098;stroke:#29ecec;stroke-width:2.5;stroke-linecap:butt;stroke-linejoin:miter;stroke-miterlimit:4;stroke-dasharray:14.99999982, 14.99999982;stroke-dashoffset:0;stroke-opacity:1"
       d="m 342.14476,1078.4251 6.78458,-1880.67273"
       id="path3566-0-8-4-4-6-82"
       inkscape:connector-curvature="0" />
    <path
       style="fill:#567bd5;fill-opacity:0.6745098;stroke:#29ecec;stroke-width:2.5;stroke-linecap:butt;stroke-linejoin:miter;stroke-miterlimit:4;stroke-dasharray:14.99999982, 14.99999982;stroke-dashoffset:0;stroke-opacity:1"
       d="m 640.65488,1078.4251 6.78421,-1880.67273"
       id="path3566-0-8-4-4-6-82-1"
       inkscape:connector-curvature="0" />
    <path
       style="fill:#567bd5;fill-opacity:0.6745098;stroke:#29ecec;stroke-width:2.5;stroke-linecap:butt;stroke-linejoin:miter;stroke-miterlimit:4;stroke-dasharray:14.99999982, 14.99999982;stroke-dashoffset:0;stroke-opacity:1"
       d="m 925.59596,1078.4251 6.78421,-1880.67273"
       id="path3566-0-8-4-4-6-82-1-8"
       inkscape:connector-curvature="0" />
    <path
       style="fill:#567bd5;fill-opacity:0.6745098;stroke:#29ecec;stroke-width:2.5;stroke-linecap:butt;stroke-linejoin:miter;stroke-miterlimit:4;stroke-dasharray:14.99999982, 14.99999982;stroke-dashoffset:0;stroke-opacity:1"
       d="m 1224.1057,1078.4251 6.7846,-1880.67273"
       id="path3566-0-8-4-4-6-82-1-8-6"
       inkscape:connector-curvature="0" />
    <path
       style="fill:#567bd5;fill-opacity:0.6745098;stroke:#29ecec;stroke-width:2.5;stroke-linecap:butt;stroke-linejoin:miter;stroke-miterlimit:4;stroke-dasharray:14.99999982, 14.99999982;stroke-dashoffset:0;stroke-opacity:1"
       d="m 1509.047,1078.4251 6.7844,-1880.67273"
       id="path3566-0-8-4-4-6-82-1-8-6-8"
       inkscape:connector-curvature="0" />
    <path
       style="fill:#567bd5;fill-opacity:0.6745098;stroke:#29ecec;stroke-width:2.5;stroke-linecap:butt;stroke-linejoin:miter;stroke-miterlimit:4;stroke-dasharray:14.99999982, 14.99999982;stroke-dashoffset:0;stroke-opacity:1"
       d="m 1793.9881,1078.4251 6.7842,-1880.67273"
       id="path3566-0-8-4-4-6-82-1-8-6-8-5"
       inkscape:connector-curvature="0" />
  </g>
</svg>
